<svg width="95" height="59" viewBox="0 0 95 59" fill="none" xmlns="http://www.w3.org/2000/svg">
<path fill-rule="evenodd" clip-rule="evenodd" d="M58.3688 35.0141H37.6948C37.1221 35.0141 36.6573 34.5536 36.6573 33.9855C36.6577 33.4172 37.1219 32.9568 37.6945 32.9568L57.332 32.9566V14.5054H37.6948C37.1221 14.5054 36.6573 14.0449 36.6573 13.4769C36.6577 12.9086 37.1219 12.4481 37.6945 12.4481L58.3688 12.4479C58.9414 12.4479 59.4056 12.9086 59.4056 13.4769V33.9853C59.4056 34.5536 58.941 35.0143 58.3688 35.0141Z" fill="#DB9D2B"/>
<path fill-rule="evenodd" clip-rule="evenodd" d="M50.6989 21.8444C50.446 21.8444 50.1953 21.7523 50.0007 21.5759L48.0306 19.7952L46.0622 21.5757C45.758 21.8503 45.319 21.9214 44.9451 21.7568C44.5693 21.592 44.3271 21.2233 44.3271 20.8154L44.3274 13.4766C44.3274 12.9086 44.7895 12.4481 45.3644 12.4481C45.9368 12.4479 46.3992 12.9086 46.3992 13.4769L46.3997 18.4855L47.333 17.6426C47.7281 17.2845 48.3328 17.2847 48.7305 17.6426L49.6619 18.4855V13.4766C49.6619 12.9086 50.1261 12.4481 50.6987 12.4481C51.2714 12.4479 51.7355 12.9086 51.7355 13.4769L51.7357 20.8154C51.7357 21.2231 51.4938 21.592 51.1177 21.7568C50.9843 21.8155 50.8412 21.8447 50.6989 21.8444Z" fill="#DB9D2B"/>
<path fill-rule="evenodd" clip-rule="evenodd" d="M51.6623 26.8883H44.4008C43.8286 26.8883 43.3638 26.4276 43.3638 25.8597C43.3638 25.2912 43.8281 24.8307 44.4008 24.8307L51.6623 24.8305C52.235 24.8305 52.6993 25.2914 52.6993 25.8597C52.6998 26.4274 52.2347 26.8885 51.6623 26.8883Z" fill="#DB9D2B"/>
<path fill-rule="evenodd" clip-rule="evenodd" d="M51.6623 30.5077H44.4008C43.8286 30.5077 43.3638 30.047 43.3638 29.4787C43.3638 28.9104 43.8281 28.4499 44.4008 28.4499L51.6623 28.4497C52.235 28.4497 52.6993 28.9104 52.6993 29.4787C52.6998 30.0468 52.2347 30.5077 51.6623 30.5077Z" fill="#DB9D2B"/>
<path fill-rule="evenodd" clip-rule="evenodd" d="M13.3908 32.9566H36.6577V9.87551H13.3908V32.9566ZM37.6948 35.0141H12.354C11.7813 35.0141 11.3167 34.5536 11.3167 33.9855L11.3172 8.84674C11.3172 8.27865 11.7813 7.81819 12.3537 7.81819H37.6948C38.2674 7.81819 38.7316 8.27887 38.7316 8.84696V33.9853C38.7316 34.5536 38.267 35.0143 37.6948 35.0141Z" fill="#DB9D2B"/>
<path fill-rule="evenodd" clip-rule="evenodd" d="M28.2941 18.8714C28.0414 18.8714 27.7907 18.779 27.5963 18.6031L25.0257 16.2773L22.4544 18.6031C22.1498 18.877 21.711 18.9479 21.335 18.7838C20.9591 18.6188 20.7172 18.2503 20.7172 17.8426V8.84674C20.7172 8.27865 21.1818 7.81819 21.7542 7.81819C22.3271 7.81819 22.7912 8.27887 22.7912 8.84696L22.7914 15.5124L24.3255 14.1247C24.7228 13.7669 25.3277 13.7671 25.723 14.125L27.2573 15.5124V8.84674C27.2573 8.27865 27.7217 7.81819 28.2941 7.81819C28.8669 7.81819 29.3311 8.27887 29.3311 8.84696V17.8424C29.3311 18.2503 29.0892 18.619 28.7131 18.7838C28.5796 18.8425 28.4365 18.8716 28.2941 18.8714Z" fill="#DB9D2B"/>
<path fill-rule="evenodd" clip-rule="evenodd" d="M29.474 25.0538H20.5747C20.0021 25.0538 19.5375 24.5933 19.5375 24.0252C19.5377 23.4567 20.0021 22.9965 20.5745 22.9965L29.474 22.9963C30.0466 22.9963 30.5108 23.4569 30.5108 24.0252C30.5108 24.5933 30.0462 25.054 29.474 25.0538Z" fill="#DB9D2B"/>
<path fill-rule="evenodd" clip-rule="evenodd" d="M29.474 29.4902H20.5747C20.0021 29.4902 19.5375 29.0297 19.5375 28.4614C19.5377 27.8931 20.0021 27.4327 20.5745 27.4327L29.474 27.4325C30.0466 27.4325 30.5108 27.8931 30.5108 28.4614C30.5108 29.0295 30.0462 29.4902 29.474 29.4902Z" fill="#DB9D2B"/>
<path fill-rule="evenodd" clip-rule="evenodd" d="M75.6484 52.8748H69.6831C69.1111 52.8748 68.646 52.4141 68.646 51.846L68.6463 41.8033C68.6463 41.2352 69.1106 40.7747 69.6831 40.7747C70.2557 40.7747 70.7203 41.2352 70.7203 41.8035L70.7205 50.817H75.6484C76.221 50.817 76.6854 51.2777 76.6854 51.846C76.6856 52.4141 76.2208 52.875 75.6484 52.8748ZM88.5576 52.8748H87.9981C87.4255 52.8748 86.9607 52.4141 86.9607 51.846C86.9611 51.2775 87.4253 50.817 87.9977 50.817H88.5576C90.9668 50.817 92.926 49.1121 92.926 47.0163L92.9264 30.1483L83.435 14.2891C83.0353 13.6221 82.3848 13.2547 81.6027 13.2547H69.6831C69.1111 13.2547 68.646 12.7944 68.646 12.2261C68.6463 11.6578 69.1106 11.1971 69.6831 11.1971H81.6027C83.1238 11.1971 84.4415 11.9415 85.2193 13.2388L94.8534 29.3409C94.9485 29.4996 95 29.6813 95 29.8659V47.0161C95 50.2465 92.1094 52.875 88.5576 52.8748Z" fill="#DB9D2B"/>
<path fill-rule="evenodd" clip-rule="evenodd" d="M93.9632 30.8947H75.0974C74.5248 30.8947 74.0604 30.4342 74.0604 29.8659L74.0606 16.5886C74.0606 16.0203 74.5248 15.5598 75.0974 15.5598H86.0166C86.5892 15.5598 87.0536 16.0205 87.0536 16.5886C87.054 17.1567 86.5892 17.6174 86.0166 17.6174H76.1344V28.8371H93.9632C94.5358 28.8371 95 29.2978 95 29.8659C95 30.434 94.5356 30.8947 93.9632 30.8947Z" fill="#DB9D2B"/>
<path fill-rule="evenodd" clip-rule="evenodd" d="M10.3255 52.8748H8.56024C6.55063 52.8748 4.9173 51.2536 4.9173 49.261V41.8033C4.9173 41.2352 5.37949 40.7747 5.95432 40.7747C6.52696 40.7747 6.99134 41.2352 6.99134 41.8035L6.99156 49.2608C6.99156 50.1191 7.6935 50.817 8.56002 50.817H10.3255C10.8975 50.817 11.3621 51.2777 11.3621 51.846C11.3623 52.4141 10.8975 52.875 10.3255 52.8748ZM29.7418 52.8748H22.6727C22.1002 52.8748 21.6352 52.4141 21.6352 51.846C21.6354 51.2775 22.0998 50.817 22.6724 50.817H29.7418C30.3144 50.817 30.7786 51.2777 30.7786 51.846C30.7788 52.4141 30.3142 52.875 29.7418 52.8748ZM69.6831 52.8748L42.0911 52.8748C41.5189 52.8748 41.0541 52.4141 41.0541 51.846C41.0543 51.2775 41.5185 50.817 42.0911 50.817H69.6831C70.2557 50.817 70.7203 51.2777 70.7203 51.846C70.7205 52.4141 70.2557 52.875 69.6831 52.8748Z" fill="#DB9D2B"/>
<path fill-rule="evenodd" clip-rule="evenodd" d="M3.83272 2.05754C2.86298 2.05754 2.07404 2.83934 2.07404 3.8005V39.0318C2.07404 39.9927 2.86254 40.7747 3.83272 40.7747H68.6463V3.80028C68.6463 2.83934 67.8595 2.05754 66.8896 2.05754H3.83272ZM69.6831 42.8323H3.83272C1.71967 42.8323 0 41.1276 0 39.032L0.000219151 3.80028C0.000219151 1.70491 1.71967 0 3.83272 0H66.89C69.0026 0 70.7203 1.70491 70.7203 3.8005L70.7205 41.8033C70.7205 42.3716 70.2557 42.8325 69.6831 42.8323Z" fill="#DB9D2B"/>
<path fill-rule="evenodd" clip-rule="evenodd" d="M16.5001 46.7493C13.6656 46.7493 11.3621 49.0358 11.3621 51.846C11.3623 54.6562 13.6651 56.9422 16.4998 56.9422C19.3326 56.942 21.6352 54.6562 21.6352 51.846C21.6354 49.0356 19.3324 46.7495 16.5001 46.7493ZM16.5001 59C12.5227 59 9.28804 55.7906 9.28804 51.846C9.28804 47.9009 12.5223 44.692 16.4998 44.692C20.4755 44.6918 23.7095 47.9011 23.7095 51.846C23.7097 55.7904 20.4752 59.0002 16.5001 59Z" fill="#DB9D2B"/>
<path fill-rule="evenodd" clip-rule="evenodd" d="M35.9166 46.7493C33.0838 46.7493 30.7786 49.0358 30.7786 51.846C30.7788 54.6562 33.0838 56.9422 35.9164 56.9422C38.7491 56.942 41.0541 54.6562 41.0541 51.846C41.0543 49.0356 38.7489 46.7495 35.9166 46.7493ZM35.9166 59C31.941 59 28.7046 55.7906 28.7046 51.846C28.705 47.9009 31.941 44.692 35.9164 44.692C39.892 44.6918 43.1282 47.9011 43.1282 51.846C43.1286 55.7904 39.8918 59.0002 35.9166 59Z" fill="#DB9D2B"/>
<path fill-rule="evenodd" clip-rule="evenodd" d="M81.8234 46.7493C78.9908 46.7493 76.6854 49.0358 76.6854 51.846C76.6856 54.6562 78.9906 56.9422 81.8231 56.9422C84.6554 56.942 86.9607 54.6562 86.9607 51.846C86.9611 49.0356 84.6554 46.7495 81.8234 46.7493ZM81.8234 59C77.846 59 74.6113 55.7906 74.6113 51.846C74.6113 47.9009 77.8456 44.692 81.8231 44.692C85.8009 44.6918 89.035 47.9011 89.035 51.846C89.035 55.7904 85.8005 59.0002 81.8234 59Z" fill="#DB9D2B"/>
<path fill-rule="evenodd" clip-rule="evenodd" d="M78.0789 38.2602H75.0974C74.5248 38.2602 74.0604 37.7997 74.0604 37.2317C74.0606 36.6631 74.5248 36.2027 75.0974 36.2027H78.0789C78.6516 36.2027 79.116 36.6634 79.116 37.2317C79.1162 37.7997 78.6514 38.2604 78.0789 38.2602Z" fill="#DB9D2B"/>
<path fill-rule="evenodd" clip-rule="evenodd" d="M93.9632 40.5571H90.7441C89.4327 40.5571 88.3672 39.5979 88.3672 38.4183L88.3676 36.045C88.3676 34.8654 89.4325 33.9062 90.7439 33.9062L93.9632 33.906C94.5358 33.906 95 34.3667 95 34.9347C95 35.5028 94.5356 35.9635 93.963 35.9635H90.7441C90.5754 35.9635 90.4717 36.035 90.4415 36.0705L90.4417 38.3926C90.4719 38.4283 90.5753 38.4996 90.7439 38.4996L93.9632 38.4994C94.5358 38.4994 95 38.9605 95 39.5283C95 40.0964 94.5356 40.5573 93.9632 40.5571Z" fill="#DB9D2B"/>
<path fill-rule="evenodd" clip-rule="evenodd" d="M16.4981 50.3507C15.6684 50.3507 14.9919 51.0216 14.9919 51.846C14.9921 52.6702 15.6679 53.3413 16.4977 53.3413C17.3298 53.3411 18.0056 52.6704 18.0056 51.846C18.0061 51.0216 17.3293 50.3509 16.4981 50.3507ZM16.4981 55.3987C14.5231 55.3987 12.9176 53.8048 12.9176 51.846C12.9178 49.8867 14.5229 48.2931 16.4977 48.2931C18.4746 48.2929 20.0797 49.8869 20.0797 51.846C20.0799 53.8048 18.4746 55.3987 16.4981 55.3987Z" fill="#DB9D2B"/>
<path fill-rule="evenodd" clip-rule="evenodd" d="M35.9166 50.3507C35.0847 50.3507 34.4084 51.0216 34.4084 51.846C34.4086 52.6702 35.0845 53.3413 35.9164 53.3413C36.7483 53.3411 37.4243 52.6704 37.4243 51.846C37.4243 51.0216 36.7483 50.3509 35.9166 50.3507ZM35.9166 55.3987C33.9418 55.3987 32.3341 53.8048 32.3341 51.846C32.3343 49.8867 33.9416 48.2931 35.9164 48.2931C37.8911 48.2929 39.4986 49.8869 39.4986 51.846C39.4988 53.8048 37.8911 55.3987 35.9166 55.3987Z" fill="#DB9D2B"/>
<path fill-rule="evenodd" clip-rule="evenodd" d="M81.8234 50.3507C80.9917 50.3507 80.3149 51.0216 80.3149 51.846C80.3149 52.6702 80.9912 53.3413 81.8231 53.3413C82.6552 53.3411 83.3311 52.6704 83.3311 51.846C83.3313 51.0216 82.6548 50.3509 81.8234 50.3507ZM81.8234 55.3987C79.8488 55.3987 78.2409 53.8048 78.2409 51.846C78.2413 49.8867 79.8484 48.2931 81.8231 48.2931C83.7979 48.2929 85.4052 49.8869 85.4052 51.846C85.4056 53.8048 83.7977 55.3987 81.8234 55.3987Z" fill="#DB9D2B"/>
</svg>
