<svg width="80" height="80" viewBox="0 0 80 80" fill="none" xmlns="http://www.w3.org/2000/svg">
<path d="M43.3582 13.4791L40.8668 7.61264C40.5419 6.84802 39.4581 6.84802 39.1334 7.61264L36.6418 13.4791M45.8497 18.6874L48.4942 12.3146C48.7767 11.634 48.05 10.9745 47.3998 11.3215L42.439 13.9699C40.9148 14.7835 39.0852 14.7835 37.5611 13.9699L32.6002 11.3215C31.9502 10.9745 31.2234 11.634 31.5059 12.3146L34.1503 18.6874M24.1522 26.2468C24.7502 21.9748 28.419 18.6874 32.8557 18.6874H47.1443C51.5811 18.6874 55.2499 21.9748 55.8478 26.2468M49.3234 46.6372C48.9606 45.471 48.7652 44.231 48.7652 42.9455C48.7652 36.089 54.3236 30.5308 61.18 30.5308M61.18 30.5308C68.0365 30.5308 73.5948 36.089 73.5948 42.9455C73.5948 44.2255 73.4009 45.4602 73.0412 46.622M61.18 30.5308L61.18 20.1817M28.8174 46.622L32.1574 39.2704C32.6377 38.2133 32.7926 37.0371 32.6021 35.8918C32.04 32.5116 28.7055 30.3364 25.3854 31.1842L20.9904 32.3065C20.0409 32.5489 19.0457 32.5489 18.0963 32.3065L13.7013 31.1842C10.381 30.3364 7.04662 32.5116 6.48461 35.8918C6.29408 37.0371 6.44882 38.2133 6.92907 39.2704L10.2691 46.622M19.5433 32.312V20.1817M75.8424 54.8019V60.9661M75.8424 67.7307V77.4306C75.8424 78.2974 75.1397 79 74.2729 79H5.7271C4.86031 79 4.15768 78.2974 4.15768 77.4306V54.802M19.5433 54.8019H2.56942C1.70263 54.8019 1 54.0991 1 53.2325V48.1914C1 47.3246 1.70263 46.622 2.56942 46.622H77.4306C78.2974 46.622 79 47.3246 79 48.1914V53.2325C79 54.0991 78.2974 54.8019 77.4306 54.8019H25.9569M32.0149 26.8578H33.0695M39.4727 26.8578H40.5274M46.9306 26.8578H47.9853M39.4727 40.1502H40.5274M35.7438 33.6784H36.7984M43.2016 33.6784H44.2563M63.2032 25.7582L61.18 24.0627L63.2032 22.3675C64.9526 20.9013 67.5018 20.9013 69.2514 22.3675L70.5567 23.4613C70.931 23.7749 70.931 24.3506 70.5567 24.6643L69.2514 25.7582C67.5018 27.2243 64.9526 27.2243 63.2032 25.7582ZM17.5201 25.7582L19.5433 24.0627L17.5201 22.3675C15.7707 20.9013 13.2215 20.9013 11.4719 22.3675L10.1665 23.4613C9.79233 23.7749 9.79233 24.3506 10.1666 24.6643L11.4719 25.7582C13.2215 27.2243 15.7707 27.2243 17.5201 25.7582ZM44.6806 67.7307H35.3195C33.4485 67.7307 31.9316 66.2138 31.9316 64.3428C31.9316 62.4717 33.4485 60.9549 35.3195 60.9549H44.6806C46.5517 60.9549 48.0685 62.4717 48.0685 64.3428C48.0685 66.2138 46.5517 67.7307 44.6806 67.7307ZM76.3369 14.8163L76.3761 14.8033C76.6587 14.7101 76.6587 14.3102 76.3761 14.217L76.3367 14.204C74.6645 13.6521 73.3526 12.3401 72.8008 10.6679C72.7964 10.6547 72.7922 10.6415 72.7879 10.6287C72.6946 10.346 72.2948 10.3463 72.2016 10.6288L72.1886 10.6682C71.6368 12.3404 70.3251 13.6521 68.653 14.204L68.6136 14.217C68.3308 14.3102 68.3308 14.7101 68.6136 14.8033L68.6528 14.8163C70.325 15.3681 71.6369 16.6803 72.1887 18.3525C72.1931 18.3657 72.1974 18.3788 72.2016 18.3918C72.295 18.6744 72.6947 18.6741 72.7879 18.3915L72.801 18.3522C73.3528 16.68 74.6646 15.3681 76.3369 14.8163ZM17.8211 9.0866L17.8604 9.07373C18.143 8.98035 18.143 8.58062 17.8604 8.48739L17.821 8.47437C16.1488 7.92256 14.8369 6.61037 14.2851 4.93816C14.2809 4.92498 14.2765 4.91195 14.2722 4.89893C14.1788 4.61628 13.7793 4.61659 13.6859 4.89924L13.6729 4.93863C13.1211 6.61084 11.8093 7.92256 10.1373 8.47437L10.0979 8.48739C9.81524 8.58062 9.81524 8.98035 10.0979 9.07373L10.1373 9.0866C11.8093 9.63856 13.1212 10.9506 13.673 12.6228C13.6774 12.636 13.6818 12.6492 13.686 12.662C13.7793 12.9447 14.179 12.9445 14.2722 12.6617L14.2853 12.6226C14.8371 10.9503 16.1489 9.63856 17.8211 9.0866ZM63.9342 7.38101L63.9911 7.36217C64.401 7.22689 64.401 6.64699 63.9911 6.51171L63.9339 6.49287C61.5087 5.69263 59.6061 3.78956 58.8057 1.36418C58.7994 1.34519 58.7932 1.32605 58.7869 1.30721C58.6516 0.897282 58.0719 0.897753 57.9366 1.30768L57.9177 1.36481C57.1173 3.79018 55.2149 5.69247 52.7897 6.49287L52.7325 6.51171C52.3226 6.64699 52.3226 7.22689 52.7325 7.36217L52.7897 7.38101C55.2149 8.18141 57.1177 10.0845 57.9181 12.5097C57.9243 12.5288 57.9306 12.5478 57.9367 12.5667C58.072 12.9766 58.6518 12.9761 58.787 12.5664L58.8059 12.5094C59.6063 10.084 61.5087 8.18141 63.9342 7.38101Z" stroke="#DD7D47" stroke-width="2" stroke-miterlimit="10" stroke-linecap="round" stroke-linejoin="round"/>
</svg>
