<svg width="81" height="81" viewBox="0 0 81 81" fill="none" xmlns="http://www.w3.org/2000/svg">
<path d="M79.6217 63.5723L78.4662 54.3282L77.2031 1.23652L77.1715 1.23778C77.1652 0.969469 77.1044 0.703687 76.9348 0.488531C76.6956 0.179719 76.3273 0 75.9375 0H25.3125C24.7316 0 24.2253 0.396141 24.0848 0.959344L21.5536 11.0843C21.4587 11.4628 21.5447 11.8627 21.7839 12.169C22.0042 12.4512 22.3357 12.6082 22.6901 12.6347L21.0701 35.4375H5.72062C4.57144 35.4375 3.55894 36.2057 3.26152 37.3018L0.0999844 48.6823C-0.116438 49.4416 0.0329063 50.239 0.511313 50.8731C0.998578 51.5198 1.74403 51.8906 2.55656 51.8906H2.64136L3.68044 63.2812H2.53125C1.13527 63.2812 0 64.4165 0 65.8125V78.4688C0 79.8647 1.13527 81 2.53125 81H78.4688C79.8647 81 81 79.8647 81 78.4688V65.8125C81 64.8342 80.4368 63.9938 79.6217 63.5723ZM74.8959 10.6528L75.9375 54.451C75.9375 54.494 75.9413 54.5358 75.9464 54.5788L77.0348 63.2812H69.7764L70.8725 54.4965L73.3341 12.6562H73.4062C73.9872 12.6562 74.4934 12.2601 74.6339 11.6969L74.8959 10.6528ZM72.4178 10.125H54.4219V2.53125H74.3162L72.4178 10.125ZM44.2969 2.53125H51.8906V13.1397L51.1907 12.7904C50.8351 12.612 50.4149 12.612 50.058 12.7904L48.0938 13.7725L46.1282 12.7904C45.7726 12.612 45.3524 12.612 44.9955 12.7904L44.2969 13.1397V2.53125ZM25.2264 12.6562H39.2344C39.933 12.6562 40.5 12.0905 40.5 11.3906C40.5 10.6907 39.933 10.125 39.2344 10.125H24.4025L26.301 2.53125H41.7656V15.1875C41.7656 15.6267 41.9934 16.0329 42.3655 16.2645C42.7389 16.4962 43.2059 16.5151 43.597 16.3202L45.5625 15.3368L47.528 16.319C47.8837 16.4974 48.3038 16.4974 48.6608 16.319L50.625 15.3368L52.5905 16.319C52.769 16.4088 52.9626 16.4531 53.1562 16.4531C53.3879 16.4531 53.6182 16.3898 53.822 16.2645C54.1941 16.0329 54.4219 15.6267 54.4219 15.1875V12.6562H70.7991L68.3539 54.2649L67.2262 63.2812H39.3521L40.3912 51.8906H40.476C41.2885 51.8906 42.0339 51.5198 42.5225 50.8731C42.9996 50.239 43.1502 49.4404 42.9363 48.6911L39.7735 37.3068C39.4723 36.2057 38.4598 35.4375 37.3106 35.4375H23.609L25.2264 12.6562ZM5.72062 37.9688L37.3321 37.9789L40.4747 49.3594H3.79688L2.53505 49.3695L5.72062 37.9688ZM17.7188 51.8906H25.3125V54.4219H17.7188V51.8906ZM15.1875 51.8906V54.4219C15.1875 55.8179 16.3228 56.9531 17.7188 56.9531H25.3125C26.7085 56.9531 27.8438 55.8179 27.8438 54.4219V51.8906H37.8359L36.7031 63.2812L6.22181 63.28L5.184 51.8906H15.1875ZM78.4688 78.4688H2.53125V65.8125H46.8281V70.875H34.1719V68.3438C34.1719 67.6439 33.6049 67.0781 32.9062 67.0781C32.2076 67.0781 31.6406 67.6439 31.6406 68.3438V70.875C31.6406 72.271 32.7759 73.4062 34.1719 73.4062H46.8281C48.2241 73.4062 49.3594 72.271 49.3594 70.875V65.8125H78.4688V78.4688Z" fill="#48588A"/>
</svg>
