<svg width="76" height="80" viewBox="0 0 76 80" fill="none" xmlns="http://www.w3.org/2000/svg">
<path d="M17.7237 25.8288L13.5967 18.5687C11.578 15.0176 7.51065 13.144 3.48666 13.9119C1.60536 14.2708 0.525428 16.2067 1.20373 17.9602C2.78078 22.0358 6.87315 31.0965 6.87315 31.0965C8.67251 37.0332 8.491 43.432 6.13339 49.1713C4.58266 52.9466 4.15126 57.069 4.83303 61.0388M41.5377 24.8202L48.7319 9.88451C50.2263 6.78193 49.009 3.05724 45.9671 1.42552L45.8619 1.36902C44.4142 0.592473 42.6101 1.07883 41.7545 2.4775C39.6684 5.88768 35.7651 12.2331 32.1364 17.9424M48.9093 21.5285L43.3629 27.2238M51.9506 34.2329L63.6745 20.5358C65.8631 17.9791 65.7113 14.1764 63.3261 11.8005L63.0377 11.5131C61.8167 10.297 59.8325 10.312 58.6303 11.5465L52.8922 17.4389M54.4138 47.3464L71.0147 37.1207C73.9413 35.3181 74.9386 31.5487 73.2841 28.5436C72.4359 27.0032 70.4684 26.4798 68.9623 27.3941L54.9408 35.9054M6.52798 66.4689C7.57136 68.7116 9.01857 70.814 10.8758 72.6639C19.3573 81.112 33.1086 81.112 41.5902 72.6639L51.8915 62.4032C52.4864 61.8106 53.2079 61.3597 54.0024 61.0839L70.6602 55.3028C73.3345 54.3747 75.0916 51.8217 74.9963 49.0026L74.9922 48.8767C74.929 47.0091 73.2248 45.6271 71.3758 45.9441L55.2685 48.7069M21.0424 21.3627C17.6099 24.5174 16.2231 29.2213 17.2041 33.6089C18.0093 37.2096 17.472 40.9798 15.8198 44.2812C15.8198 44.2812 12.5085 49.1856 11.1739 51.418C10.5997 52.3784 11.0381 53.6213 12.1052 54.0196C14.3874 54.8715 16.9609 54.1789 18.5018 52.2981L21.7432 48.3418C23.1687 46.6019 25.9419 46.9283 26.8964 48.9629C26.901 48.9727 26.9054 48.9822 26.9098 48.9918C28.7335 52.926 32.0125 61.0787 33.394 64.5439C33.755 65.4493 34.7638 65.9145 35.6908 65.6036L35.7581 65.581C37.7058 64.9278 38.7944 62.8653 38.2302 60.8968L33.9751 46.0509L44.2015 60.9103C44.7823 61.7541 45.9442 61.961 46.7824 61.3698L46.9806 61.2299C48.6182 60.075 49.0896 57.8603 48.0635 56.1427L39.654 42.0646L51.8542 52.649C52.6453 53.3355 53.8516 53.225 54.5037 52.4064C55.7762 50.8093 55.5708 48.4996 54.0359 47.1504L43.5522 37.9345L55.1354 42.0128C56.1876 42.3833 57.326 41.743 57.5508 40.6541L57.566 40.5808C57.9054 38.9372 57.1319 37.265 55.6571 36.4537L45.8057 31.0352L40.3581 23.3727C37.0458 18.7134 31.1919 16.9144 25.9983 18.5147" stroke="#8B9764" stroke-width="2" stroke-miterlimit="10" stroke-linecap="round" stroke-linejoin="round"/>
</svg>
