<svg width="580" height="366" viewBox="0 0 580 366" fill="none" xmlns="http://www.w3.org/2000/svg">
<g clip-path="url(#clip0_142_237)">
<path d="M112.243 249.63H84.9424V162.149H11.1752L0 140.624L87.4177 16.1094L112.243 23.9645V134.811H132.264V162.149H112.243V249.63ZM37.4569 134.811H84.9424V67.1766L37.4569 134.811Z" fill="#FDD66D" fill-opacity="0.34"/>
<path d="M559.798 249.63H532.497V162.149H458.857L447.682 140.624L534.972 16.1094L559.798 23.9645V134.811H580V162.149H559.798V249.63ZM485.12 134.811H532.497V67.2313L485.12 134.811Z" fill="#FDD66D" fill-opacity="0.34"/>
<path d="M295.488 263.227C278.452 263.227 261.907 259.874 246.328 253.276C231.294 246.897 217.789 237.785 206.195 226.175C194.601 214.566 185.501 201.043 179.131 185.989C172.542 170.388 169.193 153.821 169.193 136.762C169.193 119.703 172.542 103.136 179.131 87.5356C185.501 72.4815 194.601 58.9584 206.195 47.3489C217.789 35.7394 231.294 26.6267 246.328 20.2479C261.907 13.6503 278.452 10.2969 295.488 10.2969C312.523 10.2969 329.068 13.6503 344.648 20.2479C359.681 26.6267 373.186 35.7394 384.78 47.3489C396.374 58.9584 405.474 72.4815 411.844 87.5356C418.433 103.136 421.782 119.703 421.782 136.762C421.782 153.821 418.433 170.388 411.844 185.989C405.474 201.043 396.374 214.566 384.78 226.175C373.186 237.785 359.681 246.897 344.648 253.276C329.068 259.874 312.523 263.227 295.488 263.227Z" fill="#FDD66D" fill-opacity="0.34"/>
<path d="M295.487 37.6367C240.904 37.6367 196.494 82.1064 196.494 136.764C196.494 191.422 240.904 235.891 295.487 235.891C350.071 235.891 394.481 191.422 394.481 136.764C394.481 82.1064 350.071 37.6367 295.487 37.6367Z" fill="#FDD66D" fill-opacity="0.34"/>
<path d="M539.96 313.218C539.96 313.218 527.711 327.798 539.96 339.554C539.96 339.554 521.723 342.16 521.723 324.7C521.723 307.24 539.96 313.218 539.96 313.218Z" fill="#0A1324"/>
<path d="M322.952 204.671C323.971 196.816 307.846 189.398 307.846 189.398C294.013 182.126 279.07 186.209 279.07 186.209C256.52 190.838 258.85 201.828 258.85 201.828L322.952 204.671Z" fill="#0A1324"/>
<path d="M510.947 316.373L465.737 313.075L403.399 288.689C382.76 275.603 359.336 223.078 359.336 223.078L350.636 225.21L348.725 266.965L356.678 276.077C356.678 276.077 363.067 288.908 381.358 303.725L464.044 339.483L512.039 339.556" fill="#C99300"/>
<path d="M428.226 298.402L403.4 288.688C401.034 287.175 398.613 285.152 396.211 282.746C392.989 301.081 376.117 299.24 376.117 299.24C377.755 300.698 379.502 302.211 381.377 303.723L420.745 320.746L428.226 298.402Z" fill="#0A1324"/>
<path d="M355.404 303.36L359.371 223.077C359.371 223.077 354.366 211.14 322.952 204.652C253.862 190.381 216.06 215.532 216.06 215.532L214.148 281.489C214.148 281.489 214.239 307.916 214.367 329.294C214.512 350.673 252.115 347.319 252.115 347.319L337.167 348.631L355.385 347.319V303.36H355.404Z" fill="#FDD66D"/>
<path d="M259.377 215.696C259.377 215.696 314.671 202.793 350.653 225.228L348.742 266.982L263.399 264.905L259.377 215.696Z" fill="#C99300"/>
<path d="M316.637 242.158V234.868H300.257V225.755H316.637V218.465H296.671L292.977 222.146V254.988L296.671 258.56H316.637V251.27H300.257V242.158H316.637Z" fill="white"/>
<path d="M236.591 74.3784L224.251 130.184C223.505 133.538 223.978 137.037 225.58 140.08L244.454 175.966C246.693 180.213 250.897 183.092 255.666 183.621L362.303 195.467C369.11 196.214 375.517 192.095 377.646 185.589L397.54 124.917C399.178 119.905 397.977 114.401 394.391 110.537L361.812 75.4537C359.337 72.7928 355.951 71.1525 352.329 70.8791L251.844 63.0605C244.654 62.4955 238.157 67.3252 236.591 74.3784Z" fill="#FDD66D"/>
<path d="M397.538 124.862L377.645 185.553C375.515 192.059 369.109 196.196 362.302 195.431L255.664 183.584C253.589 183.347 251.642 182.691 249.895 181.652L266.494 112.305C268.241 104.997 275.266 100.258 282.692 101.352L398.139 118.429C398.412 120.58 398.23 122.767 397.538 124.862Z" fill="#C99300"/>
<path d="M265.383 92.0936L243.725 67.1797" stroke="#0A1324" stroke-width="10" stroke-miterlimit="10" stroke-linecap="round" stroke-linejoin="round"/>
<path d="M284.913 149.812L314.071 154.934C314.071 154.934 307.901 168.803 294.924 166.033C281.946 163.263 284.913 149.812 284.913 149.812Z" fill="white"/>
<path d="M337.296 158.105L366.835 162.862C366.835 162.862 363.65 174.763 347.47 172.85C331.308 170.936 337.296 158.105 337.296 158.105Z" fill="white"/>
<path d="M403.927 352.077L355.313 347.338C355.313 347.338 344.629 342.108 344.629 325.632C344.629 309.156 355.313 303.379 355.313 303.379L399.486 303.543" fill="#C99300"/>
<path d="M441.493 254.116C420.126 249.396 397.721 282.602 397.721 323.026C397.721 363.45 417.869 365.855 444.624 365.855" fill="#FFBB00"/>
<path d="M441.494 254.115C465.828 256.266 479.533 361.006 444.643 365.854C409.752 370.702 412.464 251.545 441.494 254.115Z" fill="#0A1324"/>
<path d="M360.81 303.414C360.81 303.414 349.853 328.747 367.508 348.649" stroke="#0A1324" stroke-width="10" stroke-miterlimit="10" stroke-linecap="round" stroke-linejoin="round"/>
<path d="M376.735 303.543C376.735 303.543 371.675 334.052 390.567 351.111" stroke="#0A1324" stroke-width="10" stroke-miterlimit="10" stroke-linecap="round" stroke-linejoin="round"/>
<path d="M88.9297 306.622C88.9297 306.622 131.628 310.923 159.439 293.609C188.469 275.529 216.061 215.532 216.061 215.532C216.061 215.532 226.618 213.655 232.951 229.784C239.285 245.895 230.822 258.106 230.822 258.106C230.822 258.106 199.826 307.515 169.777 324.829C139.728 342.143 90.4949 333.413 90.4949 333.413" fill="#C99300"/>
<path d="M208.543 230.457C208.543 230.457 217.498 234.667 220.21 273.596" stroke="#0A1324" stroke-width="10" stroke-miterlimit="10" stroke-linecap="round" stroke-linejoin="round"/>
<path d="M194.184 254.879C194.184 254.879 204.649 266.561 200.936 297.654" stroke="#0A1324" stroke-width="10" stroke-miterlimit="10" stroke-linecap="round" stroke-linejoin="round"/>
<path d="M173.763 281.488C173.763 281.488 182.19 302.229 172.816 322.969" stroke="#0A1324" stroke-width="10" stroke-miterlimit="10" stroke-linecap="round" stroke-linejoin="round"/>
<path d="M146.733 299.789C146.733 299.789 148.626 323.755 132.828 335.037" stroke="#0A1324" stroke-width="10" stroke-miterlimit="10" stroke-linecap="round" stroke-linejoin="round"/>
<path d="M114.283 306.566C114.283 306.566 113.919 326.505 102.98 334.451" stroke="#0A1324" stroke-width="10" stroke-miterlimit="10" stroke-linecap="round" stroke-linejoin="round"/>
<path d="M552.426 339.483L568.716 337.66V347.52L552.135 355.047" fill="#0A1324"/>
<path d="M552.135 297.637L568.716 303.76V313.055L552.426 313.074" fill="#0A1324"/>
<path d="M524.633 326.324C524.834 342.982 552.462 339.483 552.462 339.483L552.153 355.047C531.295 354.355 509.363 349.306 509.035 327.709C508.708 306.112 527.455 296.909 552.189 297.638L552.535 313.074C552.517 313.074 524.433 309.666 524.633 326.324Z" fill="#FFBB00"/>
<path d="M370.747 245.824C370.747 245.824 374.388 275.094 364.941 287.779" stroke="#0A1324" stroke-width="10" stroke-miterlimit="10" stroke-linecap="round" stroke-linejoin="round"/>
<path d="M388.311 273.578C388.311 273.578 394.863 292.368 388.311 303.522" stroke="#0A1324" stroke-width="10" stroke-miterlimit="10" stroke-linecap="round" stroke-linejoin="round"/>
<path d="M497.132 315.371C497.132 315.371 493.182 331.81 504.503 339.556" stroke="#0A1324" stroke-width="10" stroke-miterlimit="10" stroke-linecap="round" stroke-linejoin="round"/>
<path d="M474.963 313.75C474.963 313.75 471.05 331.192 481.861 339.484" stroke="#0A1324" stroke-width="10" stroke-miterlimit="10" stroke-linecap="round" stroke-linejoin="round"/>
<path d="M299.346 83.2881C299.346 83.2881 300.711 60.0144 329.049 63.0034C357.406 66.0105 355.841 89.8674 355.841 89.8674C355.841 89.8674 352.874 95.6266 333.982 93.9863C315.089 92.3461 299.346 83.2881 299.346 83.2881Z" fill="#FFBB00"/>
<path d="M322.479 70.7676L299.346 0.910156" stroke="#0A1324" stroke-width="10" stroke-miterlimit="10" stroke-linecap="round" stroke-linejoin="round"/>
<path d="M336.203 73.5198L361.193 38.1445L396.01 70.7678" stroke="#0A1324" stroke-width="10" stroke-miterlimit="10" stroke-linecap="round" stroke-linejoin="round"/>
<path d="M398.174 84.4016C404.175 84.4016 409.04 79.5302 409.04 73.5211C409.04 67.512 404.175 62.6406 398.174 62.6406C392.173 62.6406 387.309 67.512 387.309 73.5211C387.309 79.5302 392.173 84.4016 398.174 84.4016Z" fill="#FFBB00"/>
<path d="M92.2777 334.652C86.5263 352.476 51.0351 354.098 51.0351 354.098L33.6353 337.441L37.603 320.892L15.016 326.487L1.12891 316.39L4.05921 290.219C4.05921 290.219 51.3263 281.544 77.062 292.643C102.816 303.742 98.0292 316.828 92.2777 334.652Z" fill="#0A1324"/>
<path d="M61.154 322.276L40.4053 309.245C40.4053 309.245 83.2678 309.062 68.3251 299.895C53.3823 290.728 18.7465 302.629 18.7465 302.629L4.05859 290.199C4.05859 290.199 51.3257 281.524 77.0614 292.623C84.3962 295.794 89.2558 299.111 92.3135 302.665C101.887 316.99 61.154 322.276 61.154 322.276Z" fill="#FFBB00"/>
<path d="M61.1535 322.277L51.034 354.08L33.6523 337.422L40.4048 309.246L61.1535 322.277Z" fill="#FDD66D"/>
<path d="M18.7653 302.647L15.016 326.468L1.12891 316.371L4.07741 290.199L18.7653 302.647Z" fill="#FDD66D"/>
<path d="M300.729 352.077L252.115 347.338C252.115 347.338 241.432 342.108 241.432 325.632C241.432 309.156 252.115 303.379 252.115 303.379L296.288 303.543" fill="#C99300"/>
<path d="M338.296 254.116C316.928 249.396 294.523 282.602 294.523 323.026C294.523 363.45 314.672 365.855 341.427 365.855" fill="#FFBB00"/>
<path d="M338.295 254.115C362.629 256.266 376.334 361.006 341.443 365.854C306.553 370.702 309.265 251.545 338.295 254.115Z" fill="#0A1324"/>
<path d="M257.611 303.414C257.611 303.414 246.654 328.747 264.308 348.649" stroke="#0A1324" stroke-width="10" stroke-miterlimit="10" stroke-linecap="round" stroke-linejoin="round"/>
<path d="M273.537 303.543C273.537 303.543 268.478 334.052 287.37 351.111" stroke="#0A1324" stroke-width="10" stroke-miterlimit="10" stroke-linecap="round" stroke-linejoin="round"/>
</g>
<defs>
<clipPath id="clip0_142_237">
<rect width="580" height="366" fill="white"/>
</clipPath>
</defs>
</svg>
