<svg width="283" height="1427" viewBox="0 0 283 1427" fill="none" xmlns="http://www.w3.org/2000/svg">
<path d="M253.75 118V363H197.05V262.55H85.75V363H29.05V118H85.75V214.6H197.05V118H253.75Z" fill="#FDD66D" fill-opacity="0.25"/>
<path d="M221.75 1268.5V1314H32.05V1069H217.2V1114.5H88.4V1167.7H202.15V1211.8H88.4V1268.5H221.75Z" fill="#FDD66D" fill-opacity="0.25"/>
<path fill-rule="evenodd" clip-rule="evenodd" d="M144.818 705.114L96.3911 665.174L96.2556 664.933C75.7828 676.401 58.8525 693.441 47.519 714H32V774.5V1001H94V882.773C112.628 893.722 134.331 900 157.5 900C226.812 900 283 843.812 283 774.5C283 720.744 243.308 684.606 214.826 660.121C208.855 654.988 200.414 648.916 190.826 642.019C188.939 640.662 187.008 639.273 185.043 637.853C173.076 629.205 159.811 619.389 147.455 608.561C122.711 586.88 101.752 561.263 102 533.004C102.199 510.359 111.334 496.594 122.627 488.557C133.947 480.502 147.48 478.17 156.48 478.5C165.655 478.913 179.428 482.141 190.894 490.467C202.338 498.777 211.5 512.173 211.5 533C211.5 569.745 186.681 590.114 174.7 599.1L174.185 599.486L174.687 599.89L225.687 640.89L226.153 640.31L226.274 640.495C260.438 618.071 283 579.421 283 535.5C283 466.188 226.812 410 157.5 410C88.1883 410 32 466.188 32 535.5C32 563.301 41.5301 590.214 56.3487 609.802C71.141 629.354 99.6819 655.386 124.697 674.398C128.244 677.093 132.529 680.131 137.276 683.495L137.277 683.496C149.328 692.037 164.349 702.684 177.785 715.179C196.512 732.596 212 753.469 212 777C212 794.598 204.819 807.705 193.999 816.423C183.166 825.151 168.658 829.5 154 829.5C124.782 829.5 101 804.23 101 777C101 749.738 118.84 727.368 144.819 705.885L145.285 705.499L144.818 705.114Z" fill="#FDD66D" fill-opacity="0.25"/>
</svg>
