<svg width="22" height="24" viewBox="0 0 22 24" fill="none" xmlns="http://www.w3.org/2000/svg">
<path id="Vector" d="M21 16.2392V21.672C21 22.4054 20.3973 23 19.6539 23H2.34606C1.60268 23 1.00001 22.4054 1.00001 21.672V19.8247M15.4395 21.672C16.0497 21.672 16.5443 21.1841 16.5443 20.5821V18.3661C16.5443 17.7641 17.0389 17.2761 17.649 17.2761H19.8953C20.5054 17.2761 21 16.7882 21 16.1863M4.97866 7.26153H1M21 7.26153H6.32472M4.8104 4.50287C4.43108 4.50287 4.1236 4.19952 4.1236 3.82529V1.67757C4.1236 1.30335 4.43108 1 4.8104 1H4.96488C5.3442 1 5.65168 1.30335 5.65168 1.67757V2.51716M17.0351 4.50287C16.6558 4.50287 16.3483 4.19952 16.3483 3.82529V1.67757C16.3483 1.30335 16.6558 1 17.0351 1H17.1896C17.5689 1 17.8764 1.30335 17.8764 1.67757V2.51716M12.1647 18.2389V17.783C12.1647 17.6083 12.3082 17.4668 12.4852 17.4668H14.0876C14.2646 17.4668 14.4081 17.6083 14.4081 17.783V19.3639C14.4081 19.5385 14.2646 19.6801 14.0876 19.6801H12.4852C12.3082 19.6801 12.1647 19.5385 12.1647 19.3639M15.9921 21.672H2.34832C1.60368 21.672 1.00002 21.0765 1.00002 20.3418V3.84735C1.00002 3.11271 1.60368 2.51716 2.34832 2.51716H19.6517C20.3963 2.51716 21 3.11271 21 3.84735V16.7314C21 17.0842 20.8579 17.4225 20.6051 17.672L16.9455 21.2824C16.6926 21.5319 16.3497 21.672 15.9921 21.672ZM4.94203 11.4668H3.3396C3.16259 11.4668 3.0191 11.3252 3.0191 11.1506V9.56967C3.0191 9.39504 3.16259 9.25348 3.3396 9.25348H4.94203C5.11903 9.25348 5.26252 9.39504 5.26252 9.56967V11.1506C5.26252 11.3252 5.11903 11.4668 4.94203 11.4668ZM9.51481 11.4668H7.91238C7.73537 11.4668 7.59188 11.3252 7.59188 11.1506V9.56967C7.59188 9.39504 7.73537 9.25348 7.91238 9.25348H9.51481C9.69181 9.25348 9.8353 9.39504 9.8353 9.56967V11.1506C9.8353 11.3252 9.69181 11.4668 9.51481 11.4668ZM14.0876 11.4668H12.4852C12.3082 11.4668 12.1647 11.3252 12.1647 11.1506V9.56967C12.1647 9.39504 12.3082 9.25348 12.4852 9.25348H14.0876C14.2646 9.25348 14.4081 9.39504 14.4081 9.56967V11.1506C14.4081 11.3252 14.2646 11.4668 14.0876 11.4668ZM18.6604 11.4668H17.058C16.881 11.4668 16.7375 11.3252 16.7375 11.1506V9.56967C16.7375 9.39504 16.881 9.25348 17.058 9.25348H18.6604C18.8374 9.25348 18.9809 9.39504 18.9809 9.56967V11.1506C18.9809 11.3252 18.8374 11.4668 18.6604 11.4668ZM4.94203 15.5734H3.3396C3.16259 15.5734 3.0191 15.4319 3.0191 15.2572V13.6763C3.0191 13.5017 3.16259 13.3602 3.3396 13.3602H4.94203C5.11903 13.3602 5.26252 13.5017 5.26252 13.6763V15.2572C5.26252 15.4319 5.11903 15.5734 4.94203 15.5734ZM9.51481 15.5734H7.91238C7.73537 15.5734 7.59188 15.4319 7.59188 15.2572V13.6763C7.59188 13.5017 7.73537 13.3602 7.91238 13.3602H9.51481C9.69181 13.3602 9.8353 13.5017 9.8353 13.6763V15.2572C9.8353 15.4319 9.69181 15.5734 9.51481 15.5734ZM14.0876 15.5734H12.4852C12.3082 15.5734 12.1647 15.4319 12.1647 15.2572V13.6763C12.1647 13.5017 12.3082 13.3602 12.4852 13.3602H14.0876C14.2646 13.3602 14.4081 13.5017 14.4081 13.6763V15.2572C14.4081 15.4319 14.2646 15.5734 14.0876 15.5734ZM18.6604 15.672H17.058C16.881 15.672 16.7375 15.5304 16.7375 15.3558V13.7749C16.7375 13.6003 16.881 13.4587 17.058 13.4587H18.6604C18.8374 13.4587 18.9809 13.6003 18.9809 13.7749V15.3558C18.9809 15.5304 18.8374 15.672 18.6604 15.672ZM4.94203 19.6801H3.3396C3.16259 19.6801 3.0191 19.5385 3.0191 19.3639V17.783C3.0191 17.6084 3.16259 17.4668 3.3396 17.4668H4.94203C5.11903 17.4668 5.26252 17.6084 5.26252 17.783V19.3639C5.26252 19.5385 5.11903 19.6801 4.94203 19.6801ZM9.51481 19.6801H7.91238C7.73537 19.6801 7.59188 19.5385 7.59188 19.3639V17.783C7.59188 17.6084 7.73537 17.4668 7.91238 17.4668H9.51481C9.69181 17.4668 9.8353 17.6084 9.8353 17.783V19.3639C9.8353 19.5385 9.69181 19.6801 9.51481 19.6801Z" stroke="#48588A" stroke-width="0.7" stroke-miterlimit="10" stroke-linecap="round" stroke-linejoin="round"/>
</svg>
