<svg width="24" height="24" viewBox="0 0 24 24" fill="none" xmlns="http://www.w3.org/2000/svg">
<g id="Vector">
<path d="M12 3.91304C12.287 3.91304 12.5217 3.67826 12.5217 3.3913V3.13043C12.5217 2.84348 12.287 2.6087 12 2.6087C11.713 2.6087 11.4783 2.84348 11.4783 3.13043V3.3913C11.4783 3.67826 11.713 3.91304 12 3.91304Z" fill="#465CA3"/>
<path d="M12 20.087C11.713 20.087 11.4783 20.3217 11.4783 20.6087V20.8696C11.4783 21.1565 11.713 21.3913 12 21.3913C12.287 21.3913 12.5217 21.1565 12.5217 20.8696V20.6087C12.5217 20.3217 12.287 20.087 12 20.087Z" fill="#465CA3"/>
<path d="M3.3913 11.4783H3.13043C2.84348 11.4783 2.6087 11.713 2.6087 12C2.6087 12.287 2.84348 12.5217 3.13043 12.5217H3.3913C3.67826 12.5217 3.91304 12.287 3.91304 12C3.91304 11.713 3.67826 11.4783 3.3913 11.4783Z" fill="#465CA3"/>
<path d="M20.8696 11.4783H20.6087C20.3217 11.4783 20.087 11.713 20.087 12C20.087 12.287 20.3217 12.5217 20.6087 12.5217H20.8696C21.1565 12.5217 21.3913 12.287 21.3913 12C21.3913 11.713 21.1565 11.4783 20.8696 11.4783Z" fill="#465CA3"/>
<path d="M6.10435 5.37391C5.89565 5.16522 5.58261 5.16522 5.37391 5.37391C5.16522 5.58261 5.16522 5.89565 5.37391 6.10435L5.55652 6.28696C5.66087 6.3913 5.7913 6.44348 5.92174 6.44348C6.05217 6.44348 6.18261 6.3913 6.28696 6.28696C6.49565 6.07826 6.49565 5.76522 6.28696 5.55652L6.10435 5.37391Z" fill="#465CA3"/>
<path d="M5.55652 17.713L5.37391 17.8957C5.16522 18.1043 5.16522 18.4174 5.37391 18.6261C5.47826 18.7304 5.6087 18.7826 5.73913 18.7826C5.86957 18.7826 6 18.7304 6.10435 18.6261L6.28696 18.4435C6.49565 18.2348 6.49565 17.9217 6.28696 17.713C6.07826 17.5043 5.76522 17.5043 5.55652 17.713Z" fill="#465CA3"/>
<path d="M17.8957 5.37391L17.713 5.55652C17.5043 5.76522 17.5043 6.07826 17.713 6.28696C17.8174 6.3913 17.9478 6.44348 18.0783 6.44348C18.2087 6.44348 18.3391 6.3913 18.4435 6.28696L18.6261 6.10435C18.8348 5.89565 18.8348 5.58261 18.6261 5.37391C18.4174 5.16522 18.1043 5.16522 17.8957 5.37391Z" fill="#465CA3"/>
<path d="M15.4507 14.7202C13.5753 12.8449 12.5217 10.3013 12.5217 7.64917V7.04348C12.5217 6.75652 12.287 6.52174 12 6.52174C11.713 6.52174 11.4783 6.75652 11.4783 7.04348V12C11.4783 12.1304 11.5304 12.2609 11.6348 12.3652L17.3478 18.0783C17.4522 18.1826 17.5826 18.2348 17.713 18.2348C17.8435 18.2348 17.9739 18.1826 18.0783 18.0783C18.287 17.8696 18.287 17.5565 18.0783 17.3478L15.4507 14.7202Z" fill="#465CA3"/>
<path d="M12 0C5.37391 0 0 5.37391 0 12C0 18.6261 5.37391 24 12 24C18.6261 24 24 18.6261 24 12C24 5.37391 18.6261 0 12 0ZM12 22.9565C5.94783 22.9565 1.04348 18.0522 1.04348 12C1.04348 5.94783 5.94783 1.04348 12 1.04348C18.0522 1.04348 22.9565 5.94783 22.9565 12C22.9565 18.0522 18.0522 22.9565 12 22.9565Z" fill="#465CA3"/>
</g>
</svg>
