<svg width="291" height="348" viewBox="0 0 291 348" fill="none" xmlns="http://www.w3.org/2000/svg">
<g filter="url(#filter0_b_342_2)">
<rect x="1" y="58" width="289" height="289" rx="144.5" fill="url(#paint0_linear_342_2)" fill-opacity="0.5"/>
<rect x="0.5" y="57.5" width="290" height="290" rx="145" stroke="url(#paint1_radial_342_2)"/>
<rect x="0.5" y="57.5" width="290" height="290" rx="145" stroke="url(#paint2_radial_342_2)"/>
<rect x="0.5" y="57.5" width="290" height="290" rx="145" stroke="url(#paint3_radial_342_2)"/>
</g>
<path d="M190.37 80.4508C194.649 80.2944 198.884 81.3671 203.006 82.5291C204.41 82.9314 205.971 83.4677 206.55 84.8086C206.171 81.9928 204.856 79.4005 203.898 76.7188C201.38 69.59 201.58 61.5225 204.455 54.5278C210.249 62.6846 211.007 74.6852 207.798 84.0711C204.566 93.5241 189.947 92.4738 181.946 91.3341C180.23 91.0882 178.202 90.4625 177.779 88.7864C177.467 87.602 178.135 86.3729 178.915 85.4567C181.679 82.1492 186.091 80.6073 190.37 80.4508Z" fill="#FFDB00"/>
<path d="M166.457 65.8579C172.408 63.4891 178.893 62.4611 185.311 62.841C184.331 70.685 171.271 75.2439 165.321 69.8358C164.563 69.143 164.184 67.9586 164.697 67.0647C165.075 66.439 165.789 66.1261 166.457 65.8579Z" fill="#FFDB00"/>
<path d="M180.743 30.4596C182.459 30.9736 183.551 32.6049 184.464 34.1469C187.094 38.5717 189.479 43.2423 190.37 48.3152C191.239 53.3881 190.459 58.9526 187.25 62.9751C186.604 62.9081 185.958 62.8634 185.311 62.8187C185.378 62.3717 185.378 61.9024 185.356 61.4108C184.71 50.684 179.539 41.7227 180.743 30.4596Z" fill="#FFDB00"/>
<path d="M151.748 46.3486C155.671 45.2536 159.816 45.1866 163.872 45.5888C161.799 39.8679 154.824 36.985 152.952 31.197C152.484 29.7668 152.84 27.6661 154.334 27.5768C155.091 27.5321 155.738 28.1131 156.272 28.6494C160.373 32.8731 166.636 41.164 165.387 47.533C164.006 54.5725 153.776 57.2095 147.982 58.9526C146.667 59.3548 145.285 59.7571 143.926 59.6454C142.544 59.5336 141.118 58.8185 140.583 57.5447C139.914 56.0027 140.717 54.2149 141.72 52.8741C144.127 49.656 147.826 47.4436 151.748 46.3486Z" fill="#FFDB00"/>
<path d="M140.472 36.1358C137.686 32.0016 134.9 27.8896 132.114 23.7553C131.245 22.4815 130.376 20.7608 131.29 19.5093C137.307 22.0569 141.519 30.1914 142.99 36.2699C144.416 42.259 140.271 46.2592 135.101 48.9186C132.203 50.3935 128.571 51.1757 125.718 49.5667C125.228 49.2985 124.76 48.9409 124.537 48.4493C124.069 47.4436 124.693 46.2816 125.339 45.3877C128.95 40.4936 134.499 37.1191 140.472 36.1358Z" fill="#FFDB00"/>
<path d="M108.023 20.8502C108.803 20.0233 109.94 19.6434 111.054 19.4646C114.909 18.8389 118.876 20.3585 121.974 22.7497C124.403 24.6045 127.078 31.0853 128.95 31.7334C132.85 33.1189 111.789 27.1969 108.781 25.1632C108.29 24.828 107.8 24.4705 107.51 23.9788C106.909 22.9955 107.243 21.677 108.023 20.8502Z" fill="#FFDB00"/>
<path d="M223.889 114.844C223.309 112.184 222.641 109.547 221.838 106.977L221.214 105.055L220.546 103.134L219.832 101.234C219.565 100.608 219.342 99.9825 219.075 99.3568L218.272 97.5019L217.426 95.6695L216.556 93.8593C216.244 93.2559 215.955 92.6525 215.62 92.0715C214.35 89.7027 213.013 87.3785 211.587 85.0768C208.756 80.4955 205.636 76.026 202.004 72.0035C198.371 67.981 194.293 64.3607 189.947 61.1426L186.671 58.7962C185.556 58.0363 184.42 57.2765 183.306 56.5167C182.169 55.8016 181.032 55.0418 179.896 54.3043L176.441 52.1813L172.942 50.1477L169.399 48.1811L165.811 46.2816L162.201 44.4267L158.568 42.5942L154.913 40.8065L151.236 39.0634L147.559 37.3426C142.633 35.0632 137.686 32.8508 132.761 30.5266C132.716 30.5043 132.694 30.4372 132.716 30.3925C132.738 30.3478 132.783 30.3255 132.827 30.3478C137.998 32.0239 143.124 33.8787 148.183 35.89L151.971 37.432L155.715 39.041C156.963 39.5997 158.211 40.1584 159.437 40.7394C160.663 41.3204 161.889 41.9238 163.114 42.5049L166.747 44.382C167.95 45.0301 169.154 45.7005 170.335 46.3486L173.879 48.4269L177.355 50.5946L180.787 52.8517C181.902 53.6339 183.016 54.4161 184.13 55.2206C185.222 56.0474 186.314 56.8743 187.384 57.7235L190.549 60.3381C194.694 63.8914 198.638 67.6681 202.405 71.6236C206.149 75.5791 209.804 79.691 212.902 84.2276C214.439 86.4846 215.866 88.8535 217.114 91.3117C217.426 91.9151 217.715 92.5408 218.027 93.1665C218.317 93.7923 218.607 94.418 218.896 95.0437C219.164 95.6694 219.431 96.3175 219.699 96.9433L220.434 98.8651C220.679 99.5132 220.902 100.161 221.125 100.809L221.749 102.776L222.306 104.765L222.797 106.776C223.398 109.458 223.822 112.162 224 114.888C224 114.933 223.955 115 223.911 115C223.955 114.933 223.911 114.888 223.889 114.844Z" fill="#231F20"/>
<path d="M208.4 53.321C208.311 53.6562 208.244 53.9691 208.177 54.2373C208.132 54.3714 208.11 54.5054 208.065 54.6619L207.932 55.1312C207.843 55.444 207.753 55.7569 207.687 56.0698L207.486 57.0084C207.419 57.3212 207.352 57.6341 207.308 57.9469C207.263 58.2598 207.196 58.5727 207.152 58.9079C207.063 59.556 206.973 60.1817 206.907 60.8074C206.661 63.355 206.706 65.925 207.04 68.4502L207.174 69.3888C207.196 69.5453 207.219 69.7017 207.241 69.8581L207.33 70.3274C207.397 70.6403 207.441 70.9532 207.531 71.266L207.753 72.1823C207.82 72.4951 207.909 72.7857 207.999 73.0985C208.088 73.4114 208.155 73.7019 208.266 74.0148C208.467 74.6182 208.667 75.2215 208.89 75.8026C209.358 76.987 209.871 78.1937 210.316 79.4452C210.762 80.6967 211.141 82.0152 211.319 83.4007V83.4677C211.364 83.937 211.029 84.3616 210.561 84.4063C210.16 84.451 209.804 84.2052 209.67 83.8477C209.425 83.2219 208.712 82.7079 207.843 82.3504C207.419 82.1716 206.951 82.0152 206.461 81.8587L204.99 81.3894C203.029 80.786 201.09 80.2274 199.084 79.8698C198.594 79.7804 198.081 79.691 197.591 79.6463C197.078 79.5793 196.588 79.5346 196.075 79.5122C195.073 79.4452 194.047 79.4452 193.045 79.5346C191.039 79.7134 189.055 80.2497 187.25 81.1436C186.359 81.5906 185.512 82.1492 184.732 82.775L184.175 83.2666L183.662 83.803L183.172 84.3616C183.016 84.5628 182.882 84.7415 182.748 84.9427C182.503 85.3449 182.303 85.7695 182.191 86.1941C182.102 86.6187 182.102 87.0433 182.258 87.4009C182.325 87.5797 182.436 87.7585 182.548 87.9149C182.682 88.0713 182.815 88.2054 182.994 88.3395C183.328 88.5853 183.751 88.7864 184.197 88.9205C184.643 89.0546 185.111 89.144 185.579 89.211L185.935 89.2557L187.072 89.3898C188.075 89.5016 189.1 89.5686 190.103 89.6356C192.131 89.7697 194.159 89.8368 196.165 89.7474C198.17 89.6803 200.154 89.4345 202.07 88.9876C203.965 88.5183 205.815 87.8255 207.33 86.7528C208.845 85.6801 210.027 84.2052 210.651 82.4621C210.963 81.5235 211.275 80.5849 211.52 79.6016L211.72 78.8865L212.032 77.4116L212.121 77.054L212.188 76.6741C212.567 74.7075 212.679 72.6963 212.746 70.685V69.9252C212.746 69.6794 212.746 69.4112 212.746 69.1654L212.679 67.6458C212.59 66.6401 212.523 65.6345 212.344 64.6288C212.032 62.6399 211.587 60.651 210.896 58.7291C210.762 58.2375 210.539 57.7682 210.361 57.2989L210.071 56.5838C209.982 56.3603 209.848 56.1145 209.737 55.891L209.403 55.1982L209.247 54.863C209.18 54.7513 209.135 54.6619 209.068 54.5501C208.868 54.2373 208.667 53.7903 208.4 53.321ZM208.377 53.1199C208.667 53.5222 209.024 53.9244 209.38 54.3714C209.469 54.4831 209.559 54.5948 209.625 54.7066L209.826 55.0418L210.249 55.7122C210.383 55.9357 210.539 56.1592 210.651 56.3826L211.007 57.0754C211.252 57.5447 211.497 57.9916 211.698 58.4833C212.567 60.3828 213.214 62.3941 213.659 64.4501C213.904 65.478 214.06 66.506 214.216 67.5564L214.372 69.1207C214.395 69.3888 214.417 69.6347 214.417 69.9028L214.462 70.685L214.484 71.4672V72.2493L214.462 73.0315V73.4337L214.439 73.836L214.328 75.4227L214.15 76.987L214.105 77.3892L214.038 77.7691L213.771 79.3335L213.592 80.1156C213.37 81.166 213.058 82.1716 212.723 83.1996C212.367 84.2722 211.809 85.3002 211.119 86.1941C210.428 87.1104 209.581 87.8925 208.645 88.5183C207.731 89.1663 206.728 89.6803 205.703 90.0602C204.678 90.4625 203.63 90.753 202.583 90.9765C200.488 91.4234 198.371 91.6022 196.276 91.6246C194.181 91.6469 192.086 91.5128 190.014 91.3117C188.989 91.2 187.963 91.0435 186.938 90.8871C186.693 90.8424 186.426 90.7977 186.18 90.753L185.779 90.7307C185.646 90.7083 185.512 90.686 185.378 90.6636C184.843 90.5519 184.308 90.4178 183.796 90.1943C183.283 89.9932 182.748 89.725 182.28 89.3228C182.035 89.144 181.835 88.8982 181.656 88.6524C181.478 88.3842 181.322 88.0937 181.255 87.8031C181.055 87.1998 181.099 86.5294 181.277 85.9707C181.456 85.412 181.723 84.898 182.058 84.451C182.214 84.2276 182.392 84.0041 182.57 83.803L183.127 83.2219L183.707 82.6856L184.331 82.1939C185.178 81.5459 186.069 81.0095 187.027 80.5626C188.922 79.6687 190.972 79.1547 193.045 78.9312C194.092 78.8195 195.117 78.7748 196.165 78.7971C196.677 78.7971 197.212 78.8418 197.725 78.8642C198.237 78.9089 198.772 78.9536 199.285 78.9983C201.357 79.2441 203.408 79.624 205.413 80.0933C205.926 80.205 206.416 80.3167 206.929 80.4508C207.419 80.5626 207.954 80.6967 208.489 80.8978C209.024 81.0766 209.559 81.3224 210.071 81.6799C210.316 81.8587 210.561 82.0822 210.784 82.328C211.007 82.5738 211.185 82.8644 211.341 83.1772L209.692 83.6242C209.313 81.233 208.221 78.9089 207.33 76.4059C207.107 75.7802 206.907 75.1321 206.706 74.5064C206.595 74.1936 206.528 73.8583 206.439 73.5455C206.349 73.2326 206.26 72.8974 206.193 72.5622L205.993 71.5789C205.926 71.2437 205.881 70.9308 205.837 70.5956L205.748 70.104C205.725 69.9475 205.703 69.7688 205.681 69.6123L205.569 68.629C205.369 65.9697 205.436 63.288 205.926 60.6957C206.149 59.3995 206.483 58.1034 206.884 56.8519L207.196 55.9133C207.308 55.6005 207.441 55.31 207.553 54.9971L207.731 54.5501C207.798 54.3937 207.887 54.2149 207.954 54.0585C208.065 53.7009 208.244 53.3881 208.377 53.1199Z" fill="#231F20"/>
<path d="M184.62 29.074C184.732 29.074 184.843 29.0964 184.977 29.1411C185.044 29.1634 185.088 29.1634 185.133 29.1858L185.267 29.2305C185.356 29.2528 185.445 29.2975 185.534 29.3422C185.623 29.3869 185.712 29.4316 185.802 29.4763C186.158 29.6551 186.47 29.9009 186.76 30.1467C187.339 30.6607 187.852 31.2864 188.298 31.9122C189.189 33.1636 189.969 34.4598 190.749 35.7559C191.529 37.0744 192.242 38.4376 192.889 39.8232C193.513 41.2311 194.092 42.6613 194.515 44.1586C194.961 45.6558 195.273 47.1755 195.429 48.7621C195.585 50.3265 195.563 51.9131 195.362 53.4775C194.961 56.6061 193.713 59.6677 191.663 62.0589L191.641 62.1036C191.507 62.26 191.306 62.3271 191.128 62.2824C187.718 61.7684 184.197 61.679 180.765 62.1259C177.311 62.5729 173.923 63.4891 170.736 64.8747C170.335 65.0311 169.956 65.2099 169.644 65.4333C169.332 65.6568 169.109 65.9026 169.02 66.1932C168.82 66.7518 169.109 67.5117 169.6 67.9586L169.689 68.048L169.8 68.1374L170.045 68.3162C170.134 68.3832 170.201 68.4503 170.29 68.4949L170.558 68.6514C170.892 68.8749 171.271 69.0313 171.628 69.2101C172.363 69.5229 173.165 69.7464 173.968 69.8581C174.168 69.8805 174.369 69.9252 174.569 69.9252L175.171 69.9699C175.572 69.9699 175.996 69.9922 176.397 69.9699C177.221 69.9252 178.046 69.8135 178.848 69.6347C179.651 69.4559 180.453 69.2101 181.211 68.8972C181.968 68.5843 182.726 68.2268 183.417 67.8022C184.108 67.3776 184.776 66.9083 185.378 66.3496C185.98 65.8133 186.492 65.2099 186.938 64.5618C187.807 63.2656 188.298 61.7684 188.231 60.2711C188.231 60.1817 188.231 60.07 188.208 59.9582L188.186 59.6454L188.142 58.9973C188.119 58.5727 188.075 58.1481 188.03 57.7235L187.874 56.4497C187.807 56.0251 187.74 55.6005 187.674 55.1759C187.406 53.4775 187.05 51.7791 186.671 50.0806L186.091 47.5107L185.534 44.9407C185.178 43.22 184.821 41.4769 184.598 39.7114C184.531 39.2645 184.487 38.8399 184.442 38.3929C184.398 37.946 184.353 37.499 184.308 37.0744C184.264 36.1805 184.175 35.309 184.197 34.4151C184.197 33.9681 184.197 33.5212 184.219 33.0742L184.308 31.7557C184.331 31.5323 184.331 31.3311 184.353 31.0853C184.375 30.8395 184.42 30.616 184.464 30.3702C184.487 29.9232 184.554 29.4763 184.62 29.074ZM184.732 29.2305C184.732 29.6774 184.754 30.1244 184.754 30.5266C184.754 30.7278 184.754 30.9289 184.754 31.13C184.754 31.3311 184.776 31.5546 184.776 31.7781L184.843 33.0742C184.866 33.4988 184.932 33.9458 184.955 34.3704C185.022 35.2419 185.178 36.0911 185.289 36.9403C185.356 37.3649 185.445 37.7895 185.534 38.2141C185.623 38.6387 185.69 39.0634 185.802 39.488L186.091 40.7618C186.18 41.1864 186.314 41.611 186.403 42.0356C186.604 42.8848 186.849 43.7116 187.072 44.5608C187.54 46.2369 188.03 47.9353 188.476 49.6337C188.699 50.4829 188.922 51.3545 189.122 52.2037C189.323 53.0752 189.523 53.9468 189.679 54.8183C189.769 55.2653 189.858 55.6899 189.925 56.1368L190.103 57.4777C190.17 57.9246 190.214 58.3716 190.259 58.8185L190.326 59.4889L190.348 59.8241C190.348 59.9359 190.37 60.0476 190.37 60.1817C190.482 62.193 189.791 64.2042 188.654 65.7686C187.518 67.3552 186.024 68.5843 184.398 69.5006C183.595 69.9699 182.726 70.3498 181.879 70.6627C181.01 70.9979 180.119 71.2213 179.205 71.4001C178.291 71.5789 177.377 71.6683 176.441 71.6683C175.973 71.6906 175.505 71.6459 175.037 71.6236C174.569 71.5789 174.101 71.5119 173.656 71.4001C172.742 71.199 171.828 70.9085 171.004 70.4839C170.58 70.2604 170.179 70.0146 169.8 69.7464L169.51 69.5453C169.421 69.4782 169.332 69.3888 169.243 69.3218L168.976 69.076L168.842 68.9642L168.708 68.8078C168.352 68.4056 168.084 67.9363 167.95 67.3999C167.817 66.8859 167.817 66.2826 168.04 65.7462C168.151 65.478 168.329 65.2322 168.508 65.0311C168.708 64.83 168.909 64.6735 169.132 64.5394C169.555 64.2936 170.001 64.1372 170.424 63.9808C173.767 62.7963 177.199 61.9471 180.698 61.4555C184.197 60.9639 187.74 60.7851 191.284 61.0086L190.749 61.232C191.596 60.0476 192.242 58.7515 192.71 57.4106C193.178 56.0474 193.49 54.6395 193.646 53.2093C193.802 51.7791 193.825 50.3265 193.691 48.8739C193.557 47.4213 193.312 45.9911 192.933 44.5608C192.577 43.1306 192.086 41.745 191.551 40.3595C191.017 38.974 190.393 37.6108 189.746 36.2699C189.412 35.5995 189.078 34.9291 188.743 34.2586C188.387 33.5882 188.052 32.9178 187.696 32.2697C187.339 31.6216 186.938 30.9959 186.448 30.4596C186.203 30.1914 185.935 29.9456 185.646 29.7221C185.579 29.6551 185.49 29.6104 185.423 29.5657C185.356 29.521 185.267 29.4539 185.2 29.4316L184.977 29.2975C184.866 29.3422 184.799 29.2752 184.732 29.2305Z" fill="#231F20"/>
<path d="M160.106 27.4427C159.749 27.0851 159.37 26.7276 158.902 26.5264C158.457 26.3253 157.922 26.37 157.543 26.6829C157.164 26.9734 156.986 27.465 156.919 27.9567C156.852 28.4483 156.874 28.9623 156.986 29.4316C157.03 29.6774 157.142 29.9009 157.231 30.1244C157.32 30.3702 157.431 30.5937 157.543 30.8171C157.788 31.2641 158.033 31.6887 158.345 32.1133C158.925 32.9401 159.615 33.6776 160.351 34.3927C161.086 35.1078 161.844 35.7783 162.624 36.4487C163.404 37.1415 164.184 37.8342 164.942 38.5941C165.7 39.3539 166.413 40.1584 167.059 41.0523C167.705 41.9462 168.24 42.9518 168.619 44.0245V44.0468C168.775 44.4938 168.53 44.9854 168.084 45.1642C167.95 45.2089 167.817 45.2313 167.705 45.2089C166.056 45.0078 164.407 44.8513 162.735 44.8066C161.086 44.762 159.415 44.829 157.766 45.0748C156.116 45.2983 154.512 45.7452 152.952 46.371C151.414 47.019 149.965 47.8682 148.673 48.9186C148.027 49.4549 147.425 50.0136 146.89 50.6393C146.623 50.9522 146.355 51.2651 146.11 51.6003C145.865 51.9355 145.642 52.2707 145.441 52.6283C145.063 53.321 144.773 54.0808 144.751 54.8183C144.706 55.5558 144.973 56.2038 145.441 56.6731C145.932 57.1424 146.6 57.4553 147.313 57.567C147.492 57.5894 147.67 57.6117 147.848 57.6117C148.027 57.6117 148.227 57.6117 148.405 57.6117C148.784 57.5894 149.163 57.5224 149.542 57.433C150.3 57.2765 151.08 57.0084 151.882 56.7402L154.289 55.9804C155.894 55.4664 157.454 54.9077 158.991 54.282C160.507 53.6562 162 52.9411 163.359 52.0919C164.719 51.2427 165.945 50.2371 166.858 49.0303C167.304 48.4269 167.683 47.7789 167.95 47.0861C168.218 46.3933 168.374 45.6558 168.418 44.9184C168.53 43.3988 168.262 41.8121 167.794 40.2478C167.326 38.6834 166.68 37.1415 165.922 35.6442C165.165 34.1469 164.273 32.7167 163.293 31.3535C162.357 29.9679 161.287 28.6718 160.106 27.4427ZM160.239 27.3086C161.421 28.5154 162.557 29.7892 163.649 31.0853C164.741 32.3815 165.789 33.7447 166.769 35.1525C167.728 36.5828 168.619 38.0801 169.288 39.7114C169.956 41.3428 170.424 43.1082 170.402 44.9854C170.38 45.924 170.224 46.885 169.912 47.7789C169.6 48.6728 169.132 49.522 168.574 50.2818C168.017 51.0416 167.371 51.712 166.68 52.3154C165.989 52.9188 165.254 53.4328 164.496 53.9021C162.981 54.8407 161.376 55.5334 159.749 56.1591C158.122 56.7849 156.495 57.2765 154.846 57.7458C154.022 57.9693 153.219 58.2151 152.395 58.4386C151.592 58.6621 150.746 58.9079 149.854 59.042C149.408 59.109 148.94 59.1537 148.472 59.1537C148.227 59.1537 148.004 59.1314 147.759 59.1314C147.514 59.109 147.269 59.0643 147.046 58.9973C146.11 58.7738 145.196 58.2822 144.528 57.5223C144.193 57.1424 143.948 56.6731 143.815 56.1815C143.681 55.6899 143.659 55.1759 143.703 54.7066C143.815 53.7456 144.238 52.8964 144.706 52.159C144.951 51.7791 145.219 51.4215 145.486 51.1086C145.753 50.7734 146.065 50.4606 146.355 50.1477C146.957 49.522 147.603 48.9409 148.294 48.4269C151.013 46.3039 154.244 44.9407 157.587 44.1362C160.953 43.3541 164.451 43.1529 167.861 43.4435L166.948 44.6279C166.257 42.8624 165.031 41.2981 163.671 39.8008C162.29 38.3035 160.797 36.851 159.459 35.1972C158.122 33.5435 156.941 31.6887 156.518 29.5433C156.428 29.007 156.451 28.4483 156.562 27.912C156.696 27.398 156.919 26.8393 157.387 26.5041C157.855 26.1689 158.479 26.1465 158.991 26.37C159.504 26.5488 159.883 26.9287 160.239 27.3086Z" fill="#231F20"/>
<path d="M135.234 18.2802C135.212 18.3696 135.19 18.4367 135.168 18.5037C135.145 18.5931 135.101 18.6825 135.078 18.7719C135.034 18.9506 135.034 19.1518 135.034 19.3305C135.056 19.7105 135.168 20.068 135.324 20.4256C135.636 21.1407 136.081 21.7664 136.594 22.3921L138.065 24.3364L139.513 26.303C140.472 27.6215 141.43 28.94 142.366 30.2808C143.302 31.6216 144.238 32.9625 145.129 34.3033C145.397 34.7056 145.285 35.2643 144.884 35.5548C144.773 35.6218 144.639 35.6665 144.528 35.6889C141.764 36.1358 139.023 36.9403 136.46 38.2588C135.19 38.9293 133.986 39.7114 132.872 40.6277C131.758 41.5439 130.755 42.5942 129.863 43.734C129.418 44.2927 128.994 44.8737 128.771 45.5218C128.66 45.8346 128.593 46.1475 128.638 46.438C128.66 46.7285 128.794 46.9967 128.972 47.2202C129.373 47.6671 130.042 47.9576 130.666 48.1588C131.312 48.3599 131.981 48.4716 132.671 48.4716C134.031 48.494 135.39 48.1588 136.683 47.6671C137.329 47.4213 137.953 47.1308 138.555 46.7956L139.469 46.2592L140.36 45.7005C141.541 44.9407 142.633 44.0692 143.547 43.0635C144.461 42.0803 145.196 40.9405 145.62 39.7338C146.065 38.527 146.132 37.2309 145.932 35.9124L145.843 35.4207C145.82 35.2643 145.798 35.0855 145.753 34.9291C145.664 34.5939 145.597 34.2363 145.486 33.9011C145.308 33.2083 145.085 32.5379 144.862 31.8675C144.639 31.197 144.394 30.5266 144.127 29.8562C143.859 29.1858 143.569 28.5377 143.257 27.8896C142.656 26.5935 141.942 25.342 141.162 24.1576C140.382 22.9732 139.491 21.8335 138.488 20.8055C137.998 20.2915 137.441 19.8222 136.884 19.3752C136.594 19.1518 136.304 18.9506 136.014 18.7495C135.858 18.6601 135.702 18.5484 135.569 18.459C135.524 18.4813 135.39 18.392 135.234 18.2802ZM135.19 18.1014C135.368 18.1461 135.569 18.2132 135.769 18.2802C135.97 18.3473 136.126 18.4143 136.304 18.5037C136.638 18.6601 136.973 18.8166 137.307 18.9953C137.953 19.3529 138.577 19.7775 139.179 20.2468C140.36 21.1854 141.43 22.2581 142.366 23.4425C144.26 25.789 145.709 28.4483 146.823 31.2641C147.113 31.9569 147.358 32.672 147.581 33.4094C147.692 33.767 147.804 34.1469 147.893 34.5045C147.937 34.6832 147.982 34.8844 148.027 35.0855L148.138 35.6889C148.16 35.7783 148.183 35.89 148.183 35.9794L148.205 36.2923L148.249 36.8956C148.272 37.0968 148.272 37.2979 148.249 37.499L148.227 38.1248C148.227 38.3259 148.183 38.527 148.16 38.7281L148.071 39.3315L147.915 39.9349C147.848 40.136 147.826 40.3372 147.737 40.5159C147.18 42.0579 146.199 43.4211 145.107 44.5385C143.993 45.6558 142.745 46.5497 141.43 47.3319L140.427 47.8906L139.424 48.4046C138.733 48.7398 138.02 49.0303 137.262 49.2314C135.792 49.6784 134.209 49.9019 132.649 49.7231C131.869 49.6337 131.111 49.4549 130.376 49.1421C130.019 48.9856 129.663 48.8068 129.329 48.6057C128.994 48.3822 128.66 48.1364 128.393 47.7789C128.125 47.4213 127.969 46.9743 127.947 46.5497C127.925 46.1028 128.036 45.7005 128.17 45.3206C128.482 44.5832 128.95 43.9574 129.395 43.3988C131.245 41.097 133.451 39.041 135.925 37.3649C138.399 35.6889 141.229 34.4374 144.238 33.9458L143.636 35.3313C142.722 33.9905 141.809 32.6273 140.94 31.2641C140.048 29.9009 139.179 28.5154 138.31 27.1298L137.017 25.0515L135.769 22.9508C135.346 22.2581 134.945 21.4759 134.7 20.6267C134.521 19.7998 134.477 18.8166 135.19 18.1014Z" fill="#231F20"/>
<path d="M125.852 21.5206C124.96 20.8278 123.98 20.2691 122.955 19.8669C122.442 19.6658 121.907 19.5093 121.372 19.3529C121.105 19.2859 120.838 19.2412 120.57 19.1741C120.303 19.1294 120.035 19.0847 119.768 19.04C118.698 18.9059 117.628 18.8613 116.603 18.9059C116.336 18.9059 116.091 18.9506 115.823 18.9506L115.065 19.04C114.553 19.1294 114.085 19.2188 113.639 19.3976C113.193 19.554 112.792 19.7775 112.458 20.068C112.124 20.3362 111.879 20.7384 111.745 21.1854C111.611 21.61 111.633 22.1016 111.834 22.5039C112.035 22.9061 112.458 23.2637 112.904 23.5766C113.327 23.8671 113.84 24.1129 114.352 24.3364C114.865 24.5599 115.4 24.7386 115.912 24.9398C116.982 25.2973 118.052 25.5878 119.144 25.8784C120.236 26.1465 121.328 26.3923 122.42 26.6829C123.512 26.951 124.582 27.2639 125.674 27.5321C127.835 28.1131 130.019 28.6718 132.159 29.2752L132.961 29.4986L133.34 29.588L133.407 29.6104C133.429 29.6104 133.451 29.6104 133.429 29.6104H133.362C133.318 29.6104 133.385 29.6104 133.273 29.6104C133.05 29.6998 133.407 29.4763 132.738 29.8339C132.07 30.0573 132.493 31.4652 132.605 31.3311C132.649 31.3982 132.783 31.4876 132.783 31.4876C132.805 31.5099 132.872 31.5323 132.85 31.5323C132.805 31.5099 132.761 31.4876 132.694 31.4652L132.471 31.3535C132.359 31.3088 132.248 31.2417 132.159 31.197C132.07 31.13 131.981 31.0853 131.891 31.0183C131.579 30.7724 131.357 30.5266 131.156 30.2808C130.755 29.7892 130.443 29.2752 130.153 28.7612C129.863 28.2472 129.618 27.7332 129.373 27.2192C128.883 26.1912 128.437 25.1409 127.902 24.1576C127.635 23.666 127.345 23.1967 127.011 22.7274C126.654 22.2804 126.275 21.8558 125.852 21.5206ZM125.963 21.3418C126.186 21.5206 126.409 21.6994 126.61 21.9229C126.81 22.124 127.011 22.3251 127.189 22.5486C127.568 22.9732 127.925 23.4201 128.303 23.8447L130.465 26.4817C130.822 26.9287 131.178 27.3533 131.513 27.7779C131.869 28.2025 132.203 28.6047 132.56 28.94C132.738 29.1187 132.917 29.2528 133.05 29.3422C133.117 29.3869 133.184 29.4093 133.206 29.4093L133.251 29.4316L133.362 29.4763C133.429 29.4986 133.518 29.521 133.607 29.5657C133.652 29.588 133.697 29.588 133.786 29.6551C133.808 29.6551 133.875 29.6998 133.897 29.7221C133.919 29.7221 134.031 29.8339 134.098 29.9009C134.209 29.7892 134.655 31.197 133.986 31.4205C133.295 31.8004 133.652 31.5546 133.429 31.644C133.318 31.644 133.34 31.644 133.295 31.644H133.184C133.095 31.644 133.05 31.6216 132.983 31.6216L132.85 31.5993C132.694 31.577 132.538 31.5323 132.404 31.5099L131.557 31.3088C129.351 30.7501 127.211 30.035 125.072 29.3199C124.002 28.9623 122.932 28.5824 121.885 28.1801C120.838 27.7779 119.79 27.3309 118.743 26.884C117.695 26.437 116.67 25.9901 115.623 25.5431L114.063 24.8727C113.55 24.6269 113.015 24.4258 112.503 24.0906C112.257 23.9341 112.012 23.7777 111.767 23.5989C111.522 23.4201 111.299 23.1967 111.098 22.9285C110.697 22.3698 110.541 21.6547 110.608 20.9843C110.675 20.3138 110.942 19.6658 111.366 19.1071C111.789 18.5707 112.347 18.1461 112.926 17.8556C113.505 17.5651 114.129 17.3863 114.731 17.2746C115.043 17.2075 115.333 17.1852 115.645 17.1405C115.957 17.1181 116.247 17.0958 116.559 17.1182C117.784 17.1182 118.965 17.3863 120.08 17.8109C121.194 18.2355 122.219 18.7942 123.178 19.4199C124.136 20.0233 125.072 20.6714 125.963 21.3418Z" fill="#231F20"/>
<path d="M214.595 56.0027L216.779 52.8964C217.492 51.8461 218.183 50.8181 218.874 49.7454C219.543 48.6951 220.189 47.6001 220.835 46.5274L222.73 43.22C222.418 44.4714 221.994 45.6782 221.459 46.8403C220.947 48.0023 220.323 49.1421 219.632 50.2371C218.941 51.3098 218.183 52.3601 217.336 53.321C216.49 54.282 215.598 55.1982 214.595 56.0027Z" fill="#231F20"/>
<path d="M212.968 47.6671C213.191 46.1698 213.481 44.6726 213.815 43.1976C214.15 41.7227 214.506 40.2478 214.885 38.7952C215.264 37.3426 215.687 35.89 216.155 34.4374C216.601 32.9848 217.091 31.5546 217.671 30.1467C217.47 31.644 217.158 33.1413 216.824 34.6162C216.49 36.0911 216.133 37.5661 215.754 39.0187C215.375 40.4712 214.93 41.9238 214.484 43.3764C214.016 44.829 213.526 46.2592 212.968 47.6671Z" fill="#231F20"/>
<path d="M208.132 40.0466C207.976 39.0857 207.887 38.1248 207.843 37.1638C207.798 36.2029 207.776 35.2419 207.798 34.281C207.82 33.3201 207.865 32.3591 207.954 31.4205C208.043 30.4596 208.155 29.4986 208.355 28.56C208.533 29.521 208.6 30.4819 208.645 31.4429C208.689 32.4038 208.712 33.3647 208.689 34.3257C208.667 35.2866 208.623 36.2476 208.533 37.1862C208.444 38.1471 208.333 39.108 208.132 40.0466Z" fill="#231F20"/>
<path d="M192.71 36.7169L194.248 33.2307C194.738 32.0686 195.229 30.9065 195.674 29.7445C196.12 28.5824 196.566 27.398 196.967 26.1912L198.17 22.5709C198.126 23.8447 197.925 25.1185 197.636 26.37C197.346 27.6215 196.967 28.8506 196.499 30.0573C196.031 31.2641 195.496 32.4262 194.85 33.5435C194.248 34.6609 193.557 35.7336 192.71 36.7169Z" fill="#231F20"/>
<path d="M189.501 28.8506C189.412 27.3309 189.412 25.8113 189.457 24.314C189.501 22.7944 189.568 21.2971 189.657 19.7775C189.746 18.2802 189.902 16.7606 190.058 15.2633C190.214 13.766 190.415 12.2688 190.705 10.7715C190.794 12.2911 190.794 13.8107 190.749 15.308C190.705 16.8276 190.638 18.3249 190.549 19.8445C190.459 21.3418 190.303 22.8614 190.147 24.3587C189.991 25.856 189.791 27.3533 189.501 28.8506Z" fill="#231F20"/>
<path d="M183.283 22.3251C182.927 21.4089 182.682 20.4926 182.436 19.554C182.214 18.6154 182.013 17.6768 181.835 16.7382C181.656 15.7997 181.523 14.8387 181.434 13.9001C181.344 12.9392 181.255 11.9782 181.277 11.0173C181.634 11.9335 181.879 12.8498 182.124 13.7884C182.347 14.727 182.548 15.6656 182.726 16.6042C182.882 17.5428 183.038 18.5037 183.127 19.4423C183.239 20.3809 183.306 21.3418 183.283 22.3251Z" fill="#231F20"/>
<path d="M162.691 24.6716C162.111 23.3084 161.621 21.9229 161.153 20.5373C160.685 19.1518 160.262 17.7439 159.861 16.336C159.459 14.9281 159.103 13.5202 158.769 12.09C158.434 10.6597 158.122 9.2295 157.899 7.77691C158.479 9.14011 158.969 10.5257 159.437 11.9112C159.905 13.2967 160.329 14.7046 160.73 16.1125C161.131 17.5204 161.487 18.9283 161.822 20.3585C162.156 21.7888 162.468 23.219 162.691 24.6716Z" fill="#231F20"/>
<path d="M156.027 21.4312C155.515 20.6267 155.091 19.7775 154.69 18.9283C154.289 18.0791 153.932 17.2075 153.598 16.336C153.264 15.4644 152.952 14.5705 152.684 13.6543C152.417 12.7604 152.172 11.8442 152.016 10.8832C152.528 11.6877 152.952 12.5369 153.353 13.3861C153.754 14.2353 154.111 15.1069 154.445 15.9784C154.779 16.85 155.091 17.7439 155.359 18.6601C155.626 19.5764 155.871 20.4926 156.027 21.4312Z" fill="#231F20"/>
<path d="M141.564 17.1182C141.408 16.1125 141.341 15.1069 141.318 14.1012C141.296 13.0956 141.296 12.09 141.318 11.1067C141.341 10.101 141.408 9.11776 141.519 8.11213C141.63 7.10649 141.742 6.1232 141.965 5.11757C142.121 6.1232 142.188 7.12884 142.21 8.13447C142.232 9.14011 142.232 10.1457 142.21 11.129C142.188 12.1347 142.121 13.118 142.009 14.1236C141.92 15.1292 141.786 16.1349 141.564 17.1182Z" fill="#231F20"/>
<path d="M138.198 14.5705C137.686 13.4085 137.262 12.2241 136.884 11.0173C136.482 9.83288 136.148 8.60377 135.836 7.39701C135.524 6.19024 135.234 4.96113 135.012 3.73203C134.766 2.50292 134.566 1.25146 134.454 0C134.922 1.18442 135.324 2.36883 135.68 3.57559C136.059 4.78236 136.393 5.98912 136.705 7.19588C137.017 8.40264 137.307 9.63175 137.552 10.8609C137.797 12.09 138.042 13.3191 138.198 14.5705Z" fill="#231F20"/>
<path d="M132.694 16.5371C132.248 15.6209 131.869 14.6823 131.535 13.7437C131.201 12.8051 130.889 11.8442 130.621 10.8832C130.354 9.92227 130.109 8.96133 129.886 7.97804C129.685 6.99475 129.507 6.01147 129.395 5.00583C129.841 5.92208 130.22 6.86067 130.554 7.79926C130.889 8.73785 131.201 9.6988 131.468 10.6597C131.735 11.6207 131.981 12.5816 132.203 13.5649C132.404 14.5482 132.605 15.5315 132.694 16.5371Z" fill="#231F20"/>
<path d="M119.456 14.8611C118.119 14.3247 116.804 13.7437 115.511 13.1403C114.219 12.5369 112.904 11.9335 111.633 11.3302C110.341 10.7268 109.07 10.0787 107.778 9.45297C106.508 8.8049 105.215 8.15682 103.967 7.46405C105.371 7.82161 106.73 8.31325 108.068 8.82724C109.405 9.34124 110.72 9.92227 112.035 10.548C113.327 11.1737 114.597 11.8442 115.845 12.5593C117.071 13.2297 118.297 13.9895 119.456 14.8611Z" fill="#231F20"/>
<path d="M111.054 17.8556C110.051 17.5874 109.093 17.2299 108.134 16.85C107.176 16.4701 106.24 16.0455 105.326 15.5985C104.413 15.1516 103.499 14.6823 102.607 14.1906C101.716 13.6766 100.825 13.1627 100 12.5369C101.003 12.8051 101.961 13.1627 102.919 13.5426C103.878 13.9225 104.814 14.3471 105.728 14.794C106.641 15.241 107.555 15.7103 108.446 16.2019C109.316 16.7159 110.207 17.2299 111.054 17.8556Z" fill="#231F20"/>
<path d="M130.933 38.527L126.275 39.3762C124.738 39.6667 123.2 39.9796 121.662 40.3148C120.124 40.65 118.609 41.0076 117.093 41.4098L112.503 42.5942C113.907 41.8568 115.377 41.2534 116.893 40.7394C118.386 40.2254 119.924 39.8008 121.484 39.4433C123.044 39.108 124.604 38.8399 126.186 38.6834C127.769 38.527 129.351 38.46 130.933 38.527Z" fill="#231F20"/>
<path d="M124.024 50.2147C123.222 51.2427 122.353 52.2037 121.484 53.1646C120.615 54.1032 119.701 55.0194 118.765 55.9357C117.829 56.8296 116.893 57.7011 115.912 58.5503C114.932 59.3995 113.951 60.2264 112.881 60.9862C113.684 59.9582 114.553 58.9973 115.422 58.0363C116.313 57.0977 117.205 56.1815 118.141 55.2876C119.077 54.3937 120.013 53.5222 120.994 52.673C121.974 51.8237 122.977 50.9969 124.024 50.2147Z" fill="#231F20"/>
<path d="M131.914 52.673C131.602 53.6115 131.201 54.4831 130.777 55.3546C130.354 56.2262 129.908 57.0754 129.418 57.9246C128.95 58.7738 128.437 59.5783 127.902 60.4052C127.367 61.2097 126.81 61.9918 126.164 62.7517C126.476 61.8131 126.877 60.9415 127.301 60.0476C127.724 59.1761 128.17 58.3269 128.66 57.4777C129.15 56.6285 129.641 55.8239 130.175 54.9971C130.71 54.2149 131.267 53.4104 131.914 52.673Z" fill="#231F20"/>
<path d="M155.849 59.5336C155.136 60.8521 154.334 62.1036 153.531 63.355C152.729 64.6065 151.882 65.8356 151.013 67.02C150.144 68.2268 149.252 69.4112 148.339 70.5733C147.425 71.7353 146.467 72.8974 145.464 73.9924C146.177 72.6739 146.957 71.4225 147.781 70.171C148.606 68.9195 149.431 67.6904 150.3 66.506C151.169 65.2993 152.06 64.1149 152.974 62.9528C153.888 61.7684 154.824 60.6286 155.849 59.5336Z" fill="#231F20"/>
<path d="M147.915 62.2824C147.024 63.221 146.065 64.0702 145.107 64.9194C144.149 65.7686 143.146 66.5731 142.143 67.3552C141.14 68.1374 140.115 68.9195 139.045 69.6347C137.998 70.3721 136.928 71.0872 135.792 71.713C136.683 70.7744 137.641 69.9028 138.6 69.076C139.558 68.2268 140.561 67.4223 141.564 66.6401C142.567 65.8579 143.592 65.0758 144.661 64.3607C145.709 63.6455 146.779 62.9304 147.915 62.2824Z" fill="#231F20"/>
<path d="M179.896 73.3667C179.227 74.5958 178.492 75.8026 177.756 76.987C177.021 78.1714 176.285 79.3558 175.528 80.5179C174.77 81.6799 174.012 82.8644 173.232 84.0041C172.452 85.1661 171.672 86.3059 170.825 87.4456C171.338 86.1271 171.962 84.8756 172.63 83.6465C173.299 82.4174 174.012 81.2107 174.77 80.0262C175.528 78.8418 176.33 77.7021 177.177 76.5847C178.046 75.4674 178.937 74.3947 179.896 73.3667Z" fill="#231F20"/>
<path d="M169.934 73.2326C168.352 74.7075 166.725 76.1154 165.098 77.501C164.295 78.2161 163.449 78.8865 162.646 79.5793L160.173 81.6352L157.676 83.6689C156.83 84.3393 156.005 85.0097 155.158 85.6801C153.464 86.9986 151.771 88.3171 150.01 89.5686C151.526 88.0266 153.108 86.574 154.712 85.1438C155.515 84.4287 156.339 83.7359 157.142 83.0208L159.615 80.9425C160.462 80.2721 161.287 79.5793 162.134 78.9312C162.981 78.2831 163.827 77.6127 164.697 76.9646C166.39 75.6685 168.129 74.417 169.934 73.2326Z" fill="#231F20"/>
<path d="M165.945 68.7855C165.165 69.1654 164.34 69.4782 163.538 69.7464C162.713 70.0146 161.889 70.2604 161.064 70.4615C160.239 70.6627 159.393 70.8414 158.546 70.9979C157.699 71.132 156.852 71.2437 155.96 71.2884C156.74 70.9085 157.565 70.5956 158.367 70.3274C159.192 70.0593 160.017 69.8134 160.841 69.6123C161.666 69.4112 162.513 69.2324 163.359 69.076C164.206 68.9195 165.053 68.8078 165.945 68.7855Z" fill="#231F20"/>
<path d="M193.49 93.4124C193 94.3063 192.421 95.1555 191.841 95.9823C191.262 96.8092 190.638 97.6137 189.991 98.3958C189.345 99.178 188.699 99.9378 188.008 100.675C187.317 101.413 186.604 102.128 185.824 102.798C186.314 101.904 186.894 101.055 187.473 100.228C188.052 99.4015 188.676 98.597 189.323 97.8148C189.969 97.0327 190.615 96.2728 191.306 95.5354C191.997 94.7979 192.71 94.0828 193.49 93.4124Z" fill="#231F20"/>
<path d="M186.804 92.7419C185.623 93.6135 184.42 94.418 183.216 95.2225C182.013 96.027 180.809 96.8315 179.584 97.6137C178.38 98.3958 177.155 99.2003 175.929 99.9602C174.703 100.742 173.477 101.524 172.207 102.24C173.254 101.212 174.369 100.273 175.528 99.3791C176.687 98.4852 177.868 97.636 179.093 96.8539C180.319 96.0494 181.567 95.3119 182.86 94.6191C184.13 93.9487 185.445 93.3006 186.804 92.7419Z" fill="#231F20"/>
<defs>
<filter id="filter0_b_342_2" x="-42" y="15" width="375" height="375" filterUnits="userSpaceOnUse" color-interpolation-filters="sRGB">
<feFlood flood-opacity="0" result="BackgroundImageFix"/>
<feGaussianBlur in="BackgroundImageFix" stdDeviation="21"/>
<feComposite in2="SourceAlpha" operator="in" result="effect1_backgroundBlur_342_2"/>
<feBlend mode="normal" in="SourceGraphic" in2="effect1_backgroundBlur_342_2" result="shape"/>
</filter>
<linearGradient id="paint0_linear_342_2" x1="1" y1="58" x2="177.685" y2="404.303" gradientUnits="userSpaceOnUse">
<stop stop-color="white" stop-opacity="0.4"/>
<stop offset="1" stop-color="white" stop-opacity="0"/>
</linearGradient>
<radialGradient id="paint1_radial_342_2" cx="0" cy="0" r="1" gradientUnits="userSpaceOnUse" gradientTransform="translate(145.5 202.5) rotate(-132.581) scale(272.501 211.394)">
<stop stop-color="white"/>
<stop offset="1" stop-color="white" stop-opacity="0"/>
</radialGradient>
<radialGradient id="paint2_radial_342_2" cx="0" cy="0" r="1" gradientUnits="userSpaceOnUse" gradientTransform="translate(145.5 202.5) rotate(40.6798) scale(228.65 164.242)">
<stop stop-color="#FDD66D"/>
<stop offset="1" stop-color="#FCF6BD"/>
</radialGradient>
<radialGradient id="paint3_radial_342_2" cx="0" cy="0" r="1" gradientUnits="userSpaceOnUse" gradientTransform="translate(145.5 202.5) rotate(135.957) scale(220.324 164.566)">
<stop stop-color="#151515"/>
<stop offset="1" stop-color="#151515" stop-opacity="0"/>
</radialGradient>
</defs>
</svg>
