<svg width="71" height="63" viewBox="0 0 71 63" fill="none" xmlns="http://www.w3.org/2000/svg">
<path d="M69.8599 15.3605C70 14.3132 70.1401 12.847 69.9299 11.311V11.1713C69.8599 10.892 69.8599 10.543 69.7898 10.2637C69.7197 9.84475 69.5796 9.42583 69.4394 9.07673C69.0891 8.16908 68.6687 7.47088 68.1782 6.8425L68.1081 6.77268C68.038 6.70286 67.968 6.63304 67.968 6.56322L67.2673 5.86502C67.1271 5.72538 66.987 5.58574 66.8468 5.4461L66.5666 5.23664C66.2162 4.88755 65.7958 4.46863 65.3754 4.18935C64.3243 3.28169 63.2733 2.51367 62.2222 1.95511C60.8909 1.1871 59.6997 0.698357 58.3684 0.419077C56.967 0.0699782 55.4254 0.000158362 54.0941 0.209618C52.7628 0.419077 51.3614 0.837996 50.1001 1.53619C47.4374 3.00241 45.5455 5.097 44.3544 6.56322C43.6537 7.47088 42.9529 8.44836 42.2523 9.49565C41.6917 10.4033 41.0611 11.4506 40.5005 12.5677C39.4494 14.5925 38.4685 16.6871 37.6276 18.9213C36.8569 20.9461 36.0861 23.1105 35.4555 25.4844C35.1051 26.6713 34.8248 27.9281 34.5445 28.8357C34.4044 29.3943 34.2643 29.9529 34.1241 30.5114V30.5812L34.0541 30.5114C33.7738 30.2321 33.4234 29.883 33.1431 29.6038C32.3724 28.9056 31.6717 28.2074 30.9009 27.5092C29.4294 26.1826 27.8178 24.7862 26.1361 23.4596C24.6647 22.3425 22.9129 21.0159 21.021 19.7592C19.5495 18.7817 17.5876 17.5948 15.4154 16.6173C14.2943 16.1285 13.3133 15.7096 12.3323 15.4303C11.1411 15.0114 9.94995 14.802 8.82883 14.7321C8.05806 14.6623 7.42743 14.6623 6.86687 14.802C6.16617 14.8718 5.46547 15.0812 4.76476 15.3605C3.43343 15.9191 2.17217 16.9664 1.4014 18.2929L1.12112 18.7119C1.05105 18.8515 0.980981 18.9213 0.980981 19.061L0.910911 19.1308C0.840841 19.2704 0.700701 19.5497 0.630631 19.7592L0.560561 19.8988C0.49049 20.1083 0.42042 20.3177 0.35035 20.5272L0.28028 20.8065C0.21021 21.0159 0.21021 21.2952 0.14014 21.5047L0.0700701 21.7839C-0.0700701 23.0407 0 24.3673 0.28028 25.6938C0.49049 26.811 0.910911 27.9281 1.47147 29.115C1.96196 30.0227 2.52252 31.0002 3.22322 32.0475C3.85385 33.0249 4.62462 33.8628 5.25526 34.6308C5.95596 35.4686 6.72673 36.2366 7.4975 37.0047C8.8989 38.4011 10.4404 39.7276 12.2623 41.1939C15.6957 43.9168 19.3393 46.4303 22.3524 48.4551C29.2893 52.9934 35.6657 57.0429 41.9019 60.6038L41.8318 60.7434L42.042 60.6736C42.4625 60.9529 42.8829 61.1623 43.3033 61.4416L44.4244 62.07L45.2653 60.9529C45.6156 60.5339 45.8959 60.0452 46.2462 59.6263L46.4565 59.5565L46.3163 59.4866C50.8709 53.3425 55.986 46.0812 60.4705 38.1218C62.3624 34.8402 64.7447 30.4416 66.7067 25.7637C67.7578 23.2502 68.5285 21.0857 69.0891 19.061C69.4394 17.6646 69.7197 16.4776 69.8599 15.3605ZM7.07708 29.4641C5.95596 27.6488 5.25526 26.1128 4.9049 24.7164C4.76476 23.8785 4.69469 23.1803 4.76476 22.552C4.76476 22.4821 4.76476 22.3425 4.83484 22.2727C4.83484 22.2029 4.83483 22.0632 4.9049 21.9934C4.9049 21.9236 4.9049 21.7839 4.9049 21.7141C4.9049 21.6443 4.97498 21.5047 4.97498 21.4348L5.04504 21.2952C5.11512 21.1556 5.11512 21.0857 5.18519 20.9461L5.3954 20.4574C5.3954 20.3875 5.46547 20.3875 5.46547 20.3177L5.60561 20.1781V20.1083L5.74575 19.9686C5.81582 19.8988 5.81582 19.829 5.95596 19.7592C6.16617 19.5497 6.37638 19.4101 6.58659 19.3402C6.86687 19.2006 7.14715 19.1308 7.4975 19.061C7.56757 19.061 7.70771 19.061 7.77778 19.061C7.84785 19.061 7.91792 19.061 7.98799 19.061C8.05806 19.061 8.12813 19.061 8.1982 19.061C8.33834 19.061 8.40841 19.061 8.54855 19.061C9.94995 19.1308 11.6316 19.5497 13.7337 20.3875C17.4474 21.8538 20.8809 24.0182 24.1742 26.1128C25.8559 27.2299 27.5375 28.347 29.2192 29.5339C30.0601 30.0925 30.9009 30.7209 31.6717 31.2794L33.7037 32.8155L33.2833 35.4686L34.6847 33.3042C34.7548 33.3042 34.8248 33.3042 34.8949 33.3042L35.035 33.2344L35.1752 33.0948C35.2452 33.0249 35.4555 32.8853 35.5255 32.606L35.6657 32.2569L35.7357 32.1871L36.7167 29.5339C37.0671 28.6263 37.4174 27.7186 37.8378 26.811L37.978 26.4619C38.8188 24.3673 39.7297 22.3425 40.7107 20.3875C41.8318 18.1533 42.8829 16.2682 43.9339 14.5925C45.2653 12.4979 46.4565 10.8222 47.7177 9.42583C49.2593 7.75016 50.8008 6.56322 52.3423 5.7952C53.9539 5.02718 55.5656 4.88755 57.2472 5.30646C58.7888 5.72538 60.4705 6.70286 62.012 8.16908C62.2923 8.44836 62.5726 8.72763 62.9229 9.00691L63.1331 9.21637C63.2733 9.28619 63.3433 9.42583 63.4134 9.56547L64.044 10.3335C64.3243 10.6826 64.5345 11.311 64.6747 12.079C64.7447 12.7772 64.7447 13.615 64.6046 14.802C64.4645 15.7096 64.3243 16.6871 64.044 17.8042C63.5536 19.7592 62.8529 21.7839 62.012 23.9484C60.5405 27.6488 58.7187 31.6285 56.4064 36.0272C55.2853 38.1916 54.2342 40.0767 53.1832 41.9619C52.2022 43.7074 51.2212 45.5227 50.1702 47.2682L49.7497 47.6173C47.5075 51.5272 45.4755 54.9484 43.4434 58.0204C41.9019 57.2524 40.5706 56.5542 39.3093 55.856L36.6466 54.3898C35.8058 53.9011 34.965 53.4123 34.1241 52.9236L33.984 52.8538C30.4805 50.7592 27.047 48.5249 23.8939 46.1511C20.5305 43.6375 17.4474 40.9844 14.6446 38.4011C13.3133 37.0047 11.9119 35.6083 10.5806 34.0722C9.10911 32.3966 7.98799 30.9303 7.07708 29.4641Z" fill="black"/>
</svg>
