<svg width="96" height="94" viewBox="0 0 96 94" fill="none" xmlns="http://www.w3.org/2000/svg">
<path d="M91.2947 47.3657C92.6445 46.5038 98.2743 44.2496 94.982 42.5589C94.9162 40.6694 92.5787 40.9014 91.2288 40.9346C91.3605 39.9732 90.3399 39.476 89.5169 39.4428C88.8584 38.6472 87.8378 38.3157 86.8501 38.0837C77.7306 36.6914 68.4135 38.3157 59.2281 38.2826C57.1211 32.2824 54.6848 26.4149 52.3144 20.5142C51.1292 15.5086 49.7464 10.5692 48.1991 5.6962C47.804 4.7017 47.6723 3.34255 46.6188 2.77901C46.6517 1.85081 47.1126 -0.00558825 45.5982 0.193311C45.0385 -0.270788 44.2154 0.160161 44.1167 0.85631C41.8121 -0.469687 42.4376 4.13815 41.8779 5.3647C41.8779 5.33155 41.9109 5.26525 41.9109 5.2321C38.6515 16.3373 33.4168 26.9122 29.7954 37.9511C25.9105 38.0505 22.0256 38.1168 18.1408 38.3489C18.1079 38.3489 18.042 38.3489 18.0091 38.3489H17.9432C17.6799 38.382 17.4165 38.382 17.186 38.4152C16.8897 38.4483 16.6263 38.4483 16.33 38.4815H16.2642C16.2642 38.4815 16.2642 38.4815 16.2313 38.4815C16.1654 38.4815 16.0996 38.4815 16.0337 38.4815C16.0337 38.4815 16.0337 38.4815 16.0008 38.4815H15.8362C15.6716 38.4815 15.5399 38.5146 15.3753 38.5146C15.3424 38.5146 15.3094 38.5146 15.2436 38.5146C12.8402 38.5809 10.4369 39.1776 8.06647 38.8793C6.48619 38.9124 0.033372 36.6251 1.41612 40.0727C-0.855537 40.2716 -0.0983183 42.5589 1.61365 43.0562C1.51489 43.7855 2.43672 44.0507 2.93056 44.4485C2.53549 45.8739 4.017 46.6364 5.10344 47.1005C5.07052 47.0673 5.0376 47.0673 5.00468 47.0342C11.5892 49.6862 17.9103 52.7691 23.6718 57.0123C21.1697 64.2721 18.4371 71.4988 15.5728 78.6261C14.1242 82.7698 6.81542 94.7038 16.8239 87.7423C14.4864 91.3225 17.3177 90.991 19.5894 89.2009C20.2807 92.317 27.4249 85.3223 29.0711 84.593C32.4292 82.1731 35.7873 79.6868 39.1783 77.3332C39.1454 77.3663 39.1124 77.3664 39.0795 77.3995C39.1124 77.3664 39.1783 77.3332 39.2112 77.3001C40.2647 76.6039 41.2853 75.8746 42.3388 75.1785C42.4047 75.1453 42.4376 75.1122 42.5035 75.079C43.5241 74.3829 44.5776 73.6867 45.6311 73.0237C52.8411 78.7586 60.8413 83.3665 68.216 88.9025C69.467 90.0628 71.3107 90.56 72.3313 91.886C72.8251 93.0131 74.7676 94.4054 74.7017 92.2838C74.8334 92.2838 74.9322 92.2507 75.0309 92.1512C75.4589 92.7479 76.1503 93.7093 76.9734 93.212C77.4672 94.2397 79.3109 94.3723 79.2121 92.9468C77.1051 87.4771 73.8787 82.4383 71.2449 77.2006C69.4012 71.8635 67.36 66.5595 65.7139 61.156C74.2408 56.4487 82.7019 51.7746 91.2947 47.3657ZM20.182 86.2174C20.1161 86.4826 20.0503 86.7478 19.9844 86.9798C19.6552 87.1787 19.326 87.3776 18.9968 87.5765C19.2272 87.1456 19.4248 86.6815 19.6223 86.2174C19.8527 86.1179 20.0503 85.9853 20.2807 85.8859C20.2149 86.0185 20.182 86.1179 20.182 86.2174ZM20.9063 73.09C20.4783 77.0349 19.7869 80.9797 18.4042 84.7256C16.8897 85.5212 15.4082 86.4163 13.9267 87.3445C16.5605 81.3443 19.0955 75.3111 21.3672 69.1783C21.2355 70.5043 21.0709 71.7972 20.9063 73.09ZM67.9526 74.8801C69.2366 77.8305 71.179 80.5156 72.035 83.6317C69.0061 81.046 68.4464 77.3995 67.3929 73.7199C67.5575 74.1177 67.7551 74.5155 67.9526 74.8801ZM59.4586 45.2772C59.8866 46.6032 60.2816 47.9624 60.6438 49.2884C60.6109 49.3215 60.5779 49.3215 60.545 49.3547C60.15 47.9955 59.7549 46.6364 59.3598 45.2772H59.4586ZM60.973 68.9794C61.5656 70.5375 62.1253 72.0955 62.7838 73.6536C60.4463 71.3662 58.1088 69.0789 55.6725 66.891C56.9235 66.1285 58.2075 65.3992 59.4915 64.6699C59.9524 66.0954 60.4463 67.554 60.973 68.9794ZM59.294 56.2498C59.6561 57.1117 59.9853 58.0068 60.2487 58.9018C59.9853 59.0344 59.722 59.1339 59.4915 59.2665C59.1952 58.4046 58.9318 57.5427 58.6355 56.6808C58.866 56.515 59.0964 56.3824 59.294 56.2498ZM57.9112 59.9626C57.1869 60.2941 56.4297 60.6256 55.7054 60.9903C55.5079 60.3273 55.2774 59.6311 55.0799 58.9681C55.7712 58.5372 56.4626 58.0731 57.154 57.6421C57.4174 58.4046 57.6808 59.167 57.9112 59.9626ZM57.2198 51.1448C57.1211 51.2111 57.0223 51.2442 56.9235 51.3105C56.5285 50.084 56.1663 48.8243 55.8042 47.5977C56.2651 48.7911 56.7589 49.9845 57.2198 51.1448ZM55.442 52.2056C54.7507 52.6034 54.0593 53.0343 53.3679 53.4321C52.7424 51.4431 52.3802 49.3547 51.9193 47.3325C52.4461 46.769 52.9728 46.2386 53.4996 45.675C54.0922 47.8629 54.7507 50.0508 55.442 52.2056ZM52.8741 68.5485C53.2691 68.9131 53.6971 69.2446 54.0922 69.6424C53.6642 69.2778 53.2362 68.9463 52.8082 68.5816L52.8741 68.5485ZM52.0839 62.6809C51.8535 62.7804 51.5901 62.913 51.3596 63.0124C50.9975 62.6809 50.6353 62.3826 50.2732 62.0511C51.2279 61.4212 52.1827 60.7914 53.1704 60.1615C53.335 60.7251 53.4996 61.3218 53.6971 61.8853C53.1374 62.1837 52.6107 62.4489 52.0839 62.6809ZM50.767 35.5311L50.8329 35.4648C50.8987 35.6969 50.9646 35.9289 50.9975 36.1278C50.7012 36.5919 50.4049 37.0892 50.1086 37.5533C50.0427 37.1886 50.0098 36.8571 49.944 36.4925C50.2073 36.161 50.4707 35.8626 50.767 35.5311ZM49.516 33.8736C49.1867 31.52 48.8575 29.1663 48.5941 26.8127C49.1209 28.9012 49.6477 31.0227 50.2073 33.1112C49.9769 33.3764 49.7464 33.6084 49.516 33.8736ZM52.0839 40.4042C52.2485 41.034 52.4132 41.697 52.5778 42.3269C52.0181 42.3269 51.4584 42.2937 50.8987 42.2606C50.767 41.5976 50.6683 40.9677 50.5366 40.3047C51.0633 40.371 51.5901 40.4042 52.0839 40.4042ZM52.4132 33.741C52.4461 33.6747 52.5119 33.6416 52.5448 33.5753C52.5119 33.6416 52.4461 33.7079 52.4132 33.7742V33.741ZM54.9153 40.5699C54.9153 40.6031 54.9482 40.6362 54.9482 40.6694C54.9153 40.7025 54.8823 40.7357 54.8494 40.7688C54.8165 40.7025 54.8165 40.6362 54.7836 40.5699C54.8165 40.5699 54.8823 40.5699 54.9153 40.5699ZM53.4667 35.3985C53.5654 35.2659 53.6313 35.1333 53.7301 34.9676C53.7959 35.2659 53.8617 35.5311 53.8947 35.8295C53.8947 35.7963 53.8947 35.7632 53.8617 35.73C53.8947 35.8295 53.8947 35.9289 53.9276 35.9952C53.9276 35.9621 53.9276 35.9289 53.8947 35.8958C53.9276 36.0615 53.9605 36.1941 53.9934 36.3599V36.3267C54.1251 36.9897 54.2568 37.6196 54.4214 38.2826C54.2897 38.2826 54.1251 38.2826 53.9934 38.2826C53.8947 37.9842 53.763 37.6527 53.6642 37.3544L53.6971 37.4207C53.6971 37.3875 53.6642 37.3544 53.6642 37.3212V37.3544C53.4996 36.8903 53.335 36.393 53.1704 35.9289C53.2362 35.73 53.335 35.5643 53.4667 35.3985ZM51.0304 25.6525C51.6559 27.2768 52.2815 28.9012 52.8741 30.5586C52.479 30.8901 52.1168 31.2548 51.7218 31.5863C50.4378 27.7078 49.516 23.7298 48.6271 19.7186C49.4172 21.7076 50.2403 23.6966 51.0304 25.6525ZM49.0551 44.7468C49.1538 45.0783 49.2526 45.443 49.3514 45.7745C48.5283 46.6032 47.7381 47.4651 46.948 48.327L46.9151 48.3602C46.6188 48.6917 46.2896 49.0563 45.9933 49.3878C45.8945 48.8243 45.7957 48.2607 45.6969 47.6972C46.3225 46.7027 46.948 45.675 47.5735 44.6805C48.0674 44.6805 48.5612 44.7137 49.0551 44.7468ZM34.2728 61.0234C34.5362 61.1892 34.8325 61.3218 35.0959 61.4875C34.9971 61.6533 34.8984 61.7859 34.7996 61.9516C34.5691 61.7859 34.3387 61.6201 34.0753 61.4212C34.1741 61.2886 34.2399 61.156 34.2728 61.0234ZM34.0753 52.968C34.0094 52.9349 33.9436 52.9017 33.8778 52.8686C33.9107 52.7691 33.9765 52.6697 34.0094 52.6034C34.0753 52.6365 34.1411 52.6697 34.207 52.7028C34.1411 52.7691 34.1082 52.8686 34.0753 52.968ZM36.6432 46.8684C37.1042 45.9402 37.5322 44.9789 37.9931 44.0507C38.0589 44.0507 38.1248 44.0507 38.1906 44.0507C37.1371 46.2717 36.1165 48.4928 35.063 50.6807C34.9971 50.6475 34.9313 50.6144 34.8654 50.5812C35.458 49.3547 36.0506 48.095 36.6432 46.8684ZM36.1165 41.7633C36.3799 41.1666 36.6432 40.5368 36.9396 39.9401C37.2359 39.9401 37.5322 39.9401 37.8285 39.9401C37.5322 40.5699 37.2029 41.1666 36.9066 41.7965C36.6432 41.7965 36.3799 41.7965 36.1165 41.7633ZM44.0508 38.0505C43.9191 37.1886 43.7874 36.3267 43.6558 35.4648C44.2484 34.2051 44.808 32.9786 45.4006 31.7189C45.9274 33.4427 46.4212 35.1665 46.8822 36.8903C46.5529 37.2881 46.2237 37.6859 45.8945 38.0837C45.3019 38.1168 44.6763 38.0837 44.0508 38.0505ZM38.0589 49.7525C37.6638 50.4155 37.3017 51.1116 36.9066 51.8078C36.7091 51.6752 36.4786 51.5426 36.2811 51.41C37.4005 48.99 38.5198 46.5701 39.6721 44.1501C40.2977 44.1833 40.8903 44.2164 41.5158 44.2496C40.2977 46.0397 39.1783 47.8961 38.0589 49.7525ZM38.5857 55.5205C38.2235 55.2885 37.8614 55.0896 37.4663 54.8907C37.4992 54.8575 37.4992 54.8244 37.5322 54.7912C37.8614 55.0233 38.2235 55.2885 38.5857 55.5205ZM39.0466 41.9291C39.3758 41.2992 39.705 40.6362 40.0014 40.0064C40.0343 40.0064 40.0672 40.0064 40.1001 40.0064C39.8038 40.6362 39.5075 41.2992 39.1783 41.9291C39.1454 41.9291 39.1124 41.9291 39.0466 41.9291ZM39.5075 51.2442C40.7915 49.0563 42.1413 46.9347 43.557 44.8131C43.6887 45.6419 43.8533 46.5038 43.985 47.3325C42.6352 49.4873 41.2853 51.642 39.9355 53.8299C39.5075 53.5316 39.0466 53.2001 38.6186 52.9017C38.882 52.3382 39.2112 51.7746 39.5075 51.2442ZM44.0508 28.7686C43.7216 29.2658 43.4253 29.7631 43.129 30.2603C43.0961 28.8017 42.8327 27.2105 43.3595 25.8182C43.7216 26.647 44.0179 27.5089 44.3142 28.3708C44.2154 28.5034 44.1496 28.636 44.0508 28.7686ZM43.0631 41.9291C43.0302 41.9622 42.9973 42.0285 42.9644 42.0617C42.1742 42.0285 41.417 42.0285 40.6269 41.9954C40.9232 41.3324 41.2524 40.6694 41.5487 40.0064C41.9438 40.0064 42.3388 40.0395 42.7339 40.0395C42.8656 40.6694 42.9644 41.2992 43.0631 41.9291ZM41.2195 33.4427C40.3964 34.9013 39.6063 36.393 38.8491 37.8848C38.5198 37.8848 38.1906 37.8516 37.8614 37.8516C39.0795 35.1333 40.2977 32.415 41.5487 29.7299C41.5816 30.6581 41.6804 31.5863 41.7792 32.4813C41.5816 32.846 41.3841 33.1443 41.2195 33.4427ZM35.8531 53.6973C35.8202 53.7636 35.7873 53.8299 35.7543 53.8962C35.5897 53.7967 35.4251 53.6973 35.2605 53.631C35.2934 53.5647 35.3263 53.4984 35.3593 53.399C35.5239 53.4984 35.6885 53.5979 35.8531 53.6973ZM34.9313 59.6643C35.1288 59.2996 35.3263 58.935 35.5239 58.5703C35.8531 58.7692 36.1823 59.0013 36.5445 59.2002C36.3469 59.5317 36.1165 59.8632 35.919 60.1947C35.5897 60.0289 35.2605 59.8632 34.9313 59.6643ZM36.3469 57.0454L36.3799 56.9791C36.7749 57.2112 37.1371 57.4432 37.5322 57.6421C37.4992 57.6753 37.4992 57.7084 37.4663 57.7416C37.0712 57.5095 36.7091 57.2775 36.3469 57.0454ZM37.9602 63.1119C38.2565 63.2776 38.5528 63.4765 38.8491 63.6423C38.5857 63.8412 38.3223 64.0401 38.0589 64.2721C37.8614 64.1395 37.6638 63.9738 37.4663 63.8412C37.6309 63.6091 37.7955 63.3771 37.9602 63.1119ZM38.7832 61.8853C38.9808 61.587 39.1783 61.3218 39.3758 61.0234C39.9026 61.3549 40.3964 61.6864 40.9232 62.0179C40.6269 62.25 40.3635 62.4489 40.0672 62.6809C39.6392 62.4157 39.2112 62.1505 38.7832 61.8853ZM40.3964 59.6311C40.4623 59.5648 40.4952 59.4985 40.561 59.4322C41.2524 59.8632 41.9438 60.2941 42.6352 60.7582C42.5364 60.8245 42.4705 60.8908 42.3718 60.9571C41.7133 60.5262 41.0549 60.0952 40.3964 59.6311ZM41.9767 54.1614C41.7792 54.3935 41.5816 54.6586 41.3841 54.8907C41.3512 54.8575 41.2853 54.8244 41.2524 54.7912C42.3059 53.1338 43.3265 51.4431 44.38 49.7856C44.4459 50.1834 44.5117 50.5812 44.5776 50.979C43.6887 52.0398 42.8327 53.0675 41.9767 54.1614ZM45.1373 54.4929C45.3348 55.7526 45.4994 56.9791 45.664 58.2388C44.9068 57.609 44.1167 57.0123 43.3265 56.3824C43.9191 55.7526 44.5117 55.1227 45.1373 54.4929ZM45.3019 45.2441C45.269 44.9789 45.2031 44.7468 45.1702 44.4816C45.3677 44.4816 45.5653 44.5148 45.7628 44.5148C45.5982 44.7468 45.4336 45.012 45.3019 45.2441ZM48.0015 40.9014C47.7381 41.3324 47.4748 41.7633 47.2114 42.1611C46.6188 42.128 46.0262 42.128 45.4336 42.0948C45.9274 41.4318 46.4542 40.802 46.948 40.139C47.2443 40.139 47.5406 40.1721 47.8369 40.1721C47.8698 40.4373 47.9357 40.6694 48.0015 40.9014ZM47.0468 28.205C47.2772 30.0945 47.5406 31.9841 47.7711 33.8736C47.3431 32.415 46.9151 30.9896 46.4212 29.5641C46.6517 29.1001 46.8492 28.6691 47.0468 28.205ZM46.6517 24.8237C46.6188 24.8569 46.5859 24.89 46.5859 24.9232L46.6517 24.8237C46.2237 25.4536 45.7957 26.0834 45.4006 26.7133C45.0385 25.8182 44.7751 24.8569 44.1167 24.0944C44.7751 22.6027 45.4336 21.1109 46.0591 19.6192C46.2566 21.343 46.4542 23.0668 46.6517 24.8237ZM36.3799 36.3267C39.6392 27.6415 42.4376 18.7573 44.7751 9.77364C46.2237 16.1716 46.092 17.9617 43.129 23.7629C41.6804 24.0944 41.6475 26.0171 41.5158 27.2437C39.8697 30.7907 38.1906 34.3046 36.5774 37.8516C36.314 37.8516 36.0836 37.8516 35.8202 37.8516C35.9848 37.3544 36.1823 36.8571 36.3799 36.3267ZM35.063 39.9401C35.2605 39.9401 35.4251 39.9401 35.6227 39.9401C35.3593 40.5368 35.0959 41.1003 34.8325 41.697C34.7008 41.697 34.5691 41.6639 34.4374 41.6639C34.635 41.1003 34.8325 40.5036 35.063 39.9401ZM33.6802 43.9512C33.7131 43.9512 33.7461 43.9512 33.779 43.9512C33.6802 44.1833 33.5485 44.4485 33.4498 44.6805C33.5485 44.4153 33.6144 44.1833 33.6802 43.9512ZM35.1288 43.9512C35.3593 43.9512 35.6227 43.9512 35.8531 43.9512C34.9313 45.8408 34.0424 47.7303 33.1535 49.653C33.0218 49.5867 32.8572 49.4873 32.7255 49.421C33.5485 47.6309 34.3387 45.7745 35.1288 43.9512ZM33.5156 58.1725C33.4168 58.3383 33.3181 58.5372 33.2522 58.7361C33.1535 58.7029 33.0876 58.6366 32.9888 58.6035C33.1864 58.2057 33.351 57.7747 33.5485 57.3769C33.6473 57.4432 33.7461 57.5095 33.8448 57.5758C33.7461 57.7416 33.6144 57.9736 33.5156 58.1725ZM33.5815 63.9075C32.9888 64.8357 32.495 65.797 31.7049 66.5926C32.1658 65.565 32.5938 64.5705 33.0876 63.5428C33.2193 63.6423 33.3839 63.7749 33.5815 63.9075ZM32.5609 60.0621C32.5279 60.1284 32.495 60.1947 32.4621 60.261C32.3962 60.2278 32.3304 60.1615 32.2645 60.1284C32.2975 60.0621 32.3304 59.9958 32.3304 59.9626C32.4292 59.9958 32.495 60.0289 32.5609 60.0621ZM31.7378 51.7415C31.7707 51.642 31.8366 51.5426 31.8695 51.4431C32.0012 51.5094 32.1329 51.5757 32.2645 51.6752C32.2316 51.7746 32.1658 51.8741 32.1329 51.9735C32.0341 51.8741 31.9024 51.8078 31.7378 51.7415ZM32.2316 56.5482C32.2645 56.5813 32.3304 56.6145 32.3633 56.6476C32.1658 57.0786 31.9682 57.5095 31.7707 57.9405C31.7378 57.9073 31.7049 57.9073 31.639 57.8742C31.8366 57.4432 32.0341 56.9791 32.2316 56.5482ZM31.4744 62.3826C30.388 64.6699 29.4003 67.0236 28.3468 69.3772C29.3015 66.9904 30.2892 64.6368 31.3098 62.3163C31.3756 62.3163 31.4415 62.3494 31.4744 62.3826ZM28.676 64.8688C29.1698 63.7086 29.6307 62.5483 30.1246 61.3881L30.1904 61.4212C29.6637 62.5815 29.1698 63.7086 28.676 64.8688ZM30.1904 55.3216C30.3221 55.3879 30.4209 55.4542 30.5526 55.5537C30.355 56.0178 30.1246 56.515 29.927 57.0123C29.8612 56.9791 29.7954 56.946 29.7295 56.9128C29.8941 56.3493 30.0587 55.852 30.1904 55.3216ZM21.3013 40.2384C23.9022 40.139 26.4702 40.0395 29.0711 39.9732C28.9065 40.371 28.7748 40.802 28.6431 41.1998C25.6142 40.9677 22.5853 40.6362 19.5564 40.3047C20.1161 40.3047 20.7087 40.2716 21.3013 40.2384ZM15.7374 44.0175C19.7211 43.9512 23.7047 43.9181 27.6883 43.9181C27.5895 44.2164 27.4908 44.5148 27.392 44.8131L27.4249 44.7468C27.1945 45.443 26.964 46.1723 26.7336 46.8684C23.0792 45.5093 19.1614 44.9789 15.4082 44.0175C15.507 44.0175 15.6057 44.0175 15.7374 44.0175ZM27.4579 53.7304C27.2932 54.294 27.1286 54.8907 26.9969 55.4542C26.8653 55.3879 26.7336 55.3216 26.569 55.2222C26.7665 54.6586 26.964 54.0951 27.1945 53.5316C27.2932 53.5979 27.392 53.6642 27.4579 53.7304ZM24.6924 75.2448C24.6265 75.5431 24.6594 75.8746 24.8241 76.1398C24.6265 76.3056 24.429 76.4713 24.2644 76.6371C24.3302 76.3719 24.3631 76.1067 24.429 75.8415C24.5936 73.9851 25.4825 72.427 26.2068 70.7364C25.8447 72.2613 24.7253 73.753 24.6924 75.2448ZM22.3549 53.0675C16.9885 50.5149 11.9513 47.2994 6.61788 44.6805C8.95538 45.1778 11.3258 45.6087 13.6962 46.0065C17.5482 47.9955 21.2684 50.1834 25.0545 52.2719C24.857 52.9017 24.6924 53.4984 24.5278 54.1283C23.8035 53.7967 23.0792 53.4321 22.3549 53.0675ZM24.1985 63.7086C24.6265 61.8522 24.9557 59.9626 25.5154 58.1725C25.7459 58.3383 25.9763 58.4709 26.2068 58.6366C25.5813 61.6201 24.7911 64.5373 23.5401 67.3219C23.7376 66.1285 23.9681 64.9351 24.1985 63.7086ZM24.0998 84.4273C23.5072 84.7588 22.9475 85.256 22.3219 85.4881L22.289 85.4218C22.289 85.3555 22.3219 85.2892 22.3219 85.256C22.9475 84.9577 23.5401 84.6593 24.1327 84.3278C24.1327 84.361 24.0998 84.3941 24.0998 84.4273ZM42.1413 71.0679C42.1742 71.0347 42.2072 71.0016 42.273 71.0016C42.1084 71.101 41.9438 71.2336 41.7792 71.3331L41.845 71.2999C36.0177 75.7089 29.6637 79.2559 23.0792 82.372C23.2767 81.4769 23.4742 80.5819 23.6718 79.72C26.0751 78.6261 28.1822 76.8691 30.4538 75.4768H30.4867C30.6513 75.3774 30.816 75.2448 30.9806 75.1453L30.9476 75.1785C31.0464 75.1122 31.1452 75.0459 31.211 74.9796C31.1781 75.0127 31.1452 75.0127 31.1123 75.0459C31.211 74.9796 31.2769 74.9133 31.3756 74.8801C31.3756 74.8801 31.4415 74.847 31.4744 74.8138H31.4415C31.4744 74.7807 31.5403 74.7475 31.5732 74.7144C34.8654 74.1177 37.8285 72.1287 40.8903 70.7364C40.9232 70.7032 40.9561 70.7032 41.0219 70.6701L40.9561 70.7032C41.3183 70.5375 41.6475 70.3386 42.0096 70.1728C42.2401 70.3386 42.4705 70.5375 42.7339 70.7032C42.4705 70.8358 42.3059 70.9353 42.1413 71.0679ZM43.4253 67.0236C43.0961 67.1893 42.7998 67.3551 42.4705 67.5208C42.4047 67.4877 42.3389 67.4214 42.273 67.3882C42.6681 67.123 43.0302 66.8578 43.4253 66.6258C43.557 66.6921 43.6558 66.7915 43.7874 66.8578C43.6558 66.9241 43.557 66.9904 43.4253 67.0236ZM44.808 69.2115C44.6763 69.112 44.5117 69.0126 44.38 68.9131C44.841 68.6811 45.269 68.449 45.7299 68.217C45.8286 68.2833 45.8945 68.3496 45.9933 68.4159C45.5982 68.6811 45.2031 68.9463 44.808 69.2115ZM45.269 66.0954C45.1043 65.9628 44.9068 65.8302 44.7422 65.7307C45.0056 65.565 45.236 65.3992 45.4994 65.2335C45.697 65.3661 45.8945 65.5318 46.1249 65.6644C45.8616 65.797 45.5653 65.9296 45.269 66.0954ZM47.3102 57.3769C47.0797 55.8852 46.8492 54.3934 46.6188 52.9017C47.8369 51.6089 49.088 50.316 50.3061 49.0563C50.8329 50.8464 51.3596 52.6365 51.7547 54.4597C50.2403 55.4542 48.7588 56.4156 47.3102 57.3769ZM60.4463 80.2835L60.4133 80.2504C60.3475 80.2172 60.2816 80.1509 60.2158 80.1178C60.15 80.0846 60.0841 80.0183 60.0183 79.9852L60.0512 80.0183C59.9195 79.9189 59.7878 79.8195 59.6232 79.72L59.6561 79.7531H59.6232C55.7383 77.068 51.7876 74.416 47.9686 71.5983C48.3637 71.3331 48.7587 71.101 49.1538 70.8358C53.2691 74.0182 57.2198 77.4658 61.2035 80.8471C60.973 80.615 60.7096 80.4493 60.4463 80.2835ZM61.1705 78.7918C57.6478 75.8083 54.1251 72.8248 50.5036 69.9408C50.767 69.775 51.0304 69.6093 51.2938 69.4767C56.1334 73.5541 61.4339 77.3001 65.3517 82.372C63.969 81.1786 62.5533 79.9852 61.1705 78.7918ZM65.4176 75.2116C63.936 71.9298 62.685 68.5816 61.4998 65.2003V65.1672C61.4998 65.134 61.4669 65.1009 61.4669 65.1009C61.3352 64.6699 61.1706 64.239 61.0389 63.7749C61.2693 63.6423 61.4998 63.5097 61.7302 63.3771C63.113 67.4877 64.4957 71.6314 65.6809 75.8083C65.5822 75.6094 65.4834 75.4105 65.4176 75.2116ZM61.3681 52.073L61.401 52.0398C61.4339 52.1061 61.4339 52.1724 61.4669 52.2387L61.4339 52.2719C61.401 52.2056 61.3681 52.1393 61.3681 52.073ZM63.5739 50.9127C64.2653 50.5481 64.9566 50.2166 65.6809 49.8519C64.8579 50.3823 64.0677 50.979 63.2118 51.4763C63.1788 51.3768 63.1459 51.2442 63.1459 51.1448C63.3434 51.0453 63.5081 50.9459 63.7056 50.8464C63.6397 50.8796 63.6068 50.9127 63.5739 50.9127ZM65.4834 47.0342C64.4299 47.4651 63.4422 47.9624 62.4216 48.4596C62.1582 47.432 61.8619 46.4043 61.5327 45.3767C64.0348 45.4761 66.5369 45.5424 69.039 45.5756C67.8538 46.0065 66.6686 46.5038 65.4834 47.0342ZM75.4589 50.4818C72.3313 52.3713 69.3353 54.4929 66.076 56.1835H66.1089C66.076 56.2167 66.0431 56.2167 65.9772 56.2498L66.0431 56.2167C65.5492 56.4487 65.0883 56.7471 64.5945 56.946C64.2982 55.7857 63.969 54.5924 63.6727 53.4321C65.0883 52.4376 66.8332 52.0398 68.4135 51.3437C68.611 51.2774 68.8086 51.2111 69.0061 51.1448L68.9732 51.1779C69.8292 50.8796 70.6522 50.5812 71.5082 50.2829H71.4753C71.607 50.2497 71.7058 50.1834 71.8375 50.1503H71.8704C74.3396 49.3547 76.8417 48.6254 79.3438 47.9955C78.0269 48.7911 76.7429 49.653 75.4589 50.4818ZM72.2654 45.675L72.2325 45.6087C75.1297 45.6419 78.0269 45.675 80.8912 45.675C77.6977 46.3712 74.5371 47.3657 71.4095 48.3602C71.3765 48.3602 71.3436 48.3933 71.3107 48.3933L71.2449 48.4265C70.9156 48.5259 70.6193 48.6585 70.2901 48.758C70.323 48.758 70.3559 48.7248 70.3889 48.7248C70.323 48.758 70.2243 48.7911 70.1584 48.8243C71.0802 47.9955 72.5947 47.0673 72.2654 45.675ZM80.8912 49.3547C80.1998 49.8188 79.4755 50.2497 78.7512 50.6807C78.7183 50.6475 78.6853 50.6475 78.6195 50.6144C79.7389 49.9182 80.8582 49.2552 81.9447 48.5259C81.6155 48.8574 81.2533 49.1226 80.8912 49.3547ZM81.9447 41.6307C74.8663 42.2937 67.7551 42.5921 60.6438 42.4926C60.4792 41.9291 60.2816 41.3655 60.117 40.802C68.1501 41.2329 76.2162 41.4318 84.2493 41.3987C83.492 41.4981 82.7019 41.5644 81.9447 41.6307ZM85.5332 46.9347C85.5332 46.7027 85.5003 46.4706 85.4016 46.2386C85.6649 46.0397 85.9283 45.8408 86.1917 45.6419C86.6855 45.6419 87.2123 45.6419 87.7061 45.6419C86.9818 46.106 86.2575 46.5369 85.5332 46.9347Z" fill="black"/>
</svg>
