<svg width="88" height="77" viewBox="0 0 88 77" fill="none" xmlns="http://www.w3.org/2000/svg">
<g id="Frame" clip-path="url(#clip0_361_181)">
<g id="Group">
<path id="Vector" d="M44.2984 40.3C48.1092 40.3 51.1984 37.2108 51.1984 33.4C51.1984 29.5892 48.1092 26.5 44.2984 26.5C40.4877 26.5 37.3984 29.5892 37.3984 33.4C37.3984 37.2108 40.4877 40.3 44.2984 40.3Z" fill="#E5E01A"/>
<path id="Vector_2" d="M44.2996 39.5992C47.7238 39.5992 50.4996 36.8234 50.4996 33.3992C50.4996 29.9751 47.7238 27.1992 44.2996 27.1992C40.8754 27.1992 38.0996 29.9751 38.0996 33.3992C38.0996 36.8234 40.8754 39.5992 44.2996 39.5992Z" fill="#E2B90E"/>
<path id="Vector_3" d="M44.2992 39.0008C47.392 39.0008 49.8992 36.4936 49.8992 33.4008C49.8992 30.308 47.392 27.8008 44.2992 27.8008C41.2064 27.8008 38.6992 30.308 38.6992 33.4008C38.6992 36.4936 41.2064 39.0008 44.2992 39.0008Z" fill="#E5E01A"/>
<g id="Group_2">
<path id="Vector_4" d="M44.4992 28.8984V29.6984C44.9992 29.6984 46.6992 29.7984 46.6992 31.3984H45.5992C45.5992 30.6984 45.0992 30.5984 44.4992 30.5984V32.6984C45.4992 32.9984 46.7992 33.3984 46.7992 34.7984C46.7992 35.7984 46.0992 36.2984 45.8992 36.4984C45.3992 36.7984 44.7992 36.8984 44.4992 36.8984V37.8984H43.9992V36.8984C43.5992 36.8984 42.8992 36.8984 42.2992 36.2984C41.7992 35.7984 41.6992 35.2984 41.6992 34.8984H42.6992C42.6992 35.3984 42.8992 35.9984 43.8992 35.9984V33.5984C42.1992 33.0984 41.7992 32.6984 41.7992 31.5984C41.7992 30.7984 42.2992 30.2984 42.6992 30.0984C43.1992 29.7984 43.6992 29.7984 43.9992 29.7984V28.9984H44.4992V28.8984ZM43.9992 30.4984C42.8992 30.5984 42.8992 31.2984 42.8992 31.4984C42.8992 32.1984 43.4992 32.3984 43.9992 32.4984V30.4984ZM44.4992 35.9984C45.3992 35.9984 45.7992 35.3984 45.7992 34.8984C45.7992 34.0984 45.0992 33.8984 44.4992 33.6984V35.9984Z" fill="#BA9B17"/>
</g>
<g id="Group_3">
<g id="Group_4">
<path id="Vector_5" d="M4.19961 55.7989C4.19961 55.7989 17.1996 44.4989 20.6996 42.6989C20.6996 42.6989 29.3996 36.4989 34.9996 40.2989C34.9996 40.2989 39.1996 42.9989 41.6996 42.8989C41.6996 42.8989 46.4996 43.0989 52.9996 41.8989C52.9996 41.8989 56.3996 41.4989 57.0996 43.3989L23.6996 57.7989C23.6996 57.7989 5.69961 69.2989 4.09961 76.1989V55.7989H4.19961Z" fill="#EEAC6D"/>
<path id="Vector_6" d="M23.7 57.7979C23.7 57.7979 37.8 54.1979 53.4 55.2979C53.4 55.2979 56.1 55.1979 60.8 51.4979C60.8 51.4979 69.2 49.5979 73.7 45.8979C73.7 45.8979 86.7 38.6979 87.5 38.4979C87.5 38.4979 86.4 35.9979 82.4 36.8979C82.4 36.8979 85.2 34.2979 86.5 31.5979C86.5 31.5979 86.7 29.5979 84.3 29.7979C84.3 29.7979 80.8 29.8979 77.5 35.5979C77.5 35.5979 76.2 36.5979 75.8 36.6979C75.8 36.6979 78.9 32.3979 78.6 30.0979C78.6 30.0979 76.4 27.2979 73.2 32.2979C73.2 32.2979 69.4 37.5979 67.6 38.7979C67.6 38.7979 68.3 34.1979 68.5 33.8979C68.5 33.8979 65.9 31.1979 62.4 40.1979C62.4 40.1979 58.9 41.5979 57.3 43.4979L23.5 53.0979L23.7 57.7979Z" fill="#EEAC6D"/>
<path id="Vector_7" d="M57.2003 43.4984C57.2003 43.4984 57.3003 40.3984 46.8003 42.6984C46.8003 42.6984 41.5003 44.0984 36.7003 40.7984C36.7003 40.7984 30.2003 36.8984 24.6003 40.4984C24.5003 40.5984 35.0003 47.0984 57.2003 43.4984Z" fill="#DC8345"/>
<path id="Vector_8" d="M76.4996 29.1992L66.8996 42.1992L61.7996 47.0992L53.5996 50.4992L61.1996 46.4992L66.1996 41.5992C66.1996 41.5992 66.6996 40.8992 67.3996 38.6992C67.3996 38.6992 71.0996 34.3992 71.8996 33.4992C71.8996 33.4992 74.3996 29.1992 76.4996 29.1992Z" fill="#DC8345"/>
<path id="Vector_9" d="M59.1992 50.4977L67.6992 46.4977L77.2992 39.5977L84.9992 29.6977C84.9992 29.6977 81.3992 28.4977 77.0992 35.5977L75.5992 36.5977C75.5992 36.5977 73.0992 40.7977 71.8992 41.7977C71.8992 41.7977 68.7992 44.3977 67.1992 45.8977L59.1992 50.4977Z" fill="#DC8345"/>
<path id="Vector_10" d="M85.9992 36.9989L77.4992 42.6989L73.1992 45.4989L76.7992 42.3989C76.7992 42.3989 80.4992 39.9989 82.2992 36.6989C82.2992 36.6989 84.2992 35.8989 85.9992 36.9989Z" fill="#DC8345"/>
<path id="Vector_11" d="M4.19922 76.1976V65.5976L23.3992 53.0976C23.3992 53.0976 31.5992 49.8976 53.3992 55.2976C53.3992 55.2976 32.7992 55.3976 23.6992 57.7976C23.6992 57.7976 4.99922 70.1976 4.19922 76.1976Z" fill="#D89761"/>
<path id="Vector_12" d="M68.2992 33.7983C68.2992 33.7983 64.8992 36.3983 63.9992 40.0983C63.9992 40.0983 58.8992 43.6983 58.5992 44.5983L51.2992 49.2983C51.2992 49.2983 20.8992 43.6983 16.6992 45.5983C16.6992 45.5983 21.4992 41.3983 24.3992 40.6983C24.3992 40.6983 35.1992 47.1983 56.9992 43.6983C56.9992 43.6983 58.8992 41.1983 62.0992 40.2983C62.1992 40.0983 65.3992 31.2983 68.2992 33.7983Z" fill="#FFBD7D"/>
</g>
<g id="Group_5">
<path id="Vector_13" d="M0.299255 11.0002C0.299255 11.0002 8.99925 2.00021 15.9993 1.40021L38.3993 0.000207286C38.3993 0.000207286 43.6993 -0.599793 45.0993 3.80021L51.5993 17.1002C51.5993 17.1002 51.8993 19.4002 46.0993 26.7002C46.0993 26.7002 44.2993 24.5002 43.3993 23.8002C43.3993 23.8002 43.7993 20.1002 45.3993 17.9002C45.3993 17.9002 42.9993 14.3002 42.5993 13.3002C42.5993 13.3002 38.3993 10.7002 37.6993 11.0002C37.6993 11.0002 37.5993 15.2002 35.9993 16.9002C35.9993 16.9002 38.8993 20.0002 39.3993 21.0002C39.3993 21.0002 47.1993 25.6002 46.3993 28.5002C46.3993 28.5002 46.3993 32.7002 41.1993 30.3002C41.1993 30.3002 36.9993 27.8002 35.9993 27.2002C35.9993 27.2002 30.3993 21.8002 28.9993 21.3002C28.9993 21.3002 20.8993 19.2002 17.9993 17.5002C17.9993 17.5002 13.8993 20.5002 11.4993 25.1002C11.4993 25.1002 9.89926 27.6002 9.09926 27.9002C9.29926 28.0002 -2.00075 24.8002 0.299255 11.0002Z" fill="#EEAC6D"/>
<path id="Vector_14" d="M44.2988 2.19922C44.2988 2.19922 56.0988 8.09922 56.5988 9.19922C56.5988 9.19922 59.5988 14.2992 59.9988 19.8992C59.9988 19.8992 60.6988 26.9992 59.9988 29.4992C59.9988 29.4992 55.1988 31.2992 55.5988 21.6992C55.5988 21.6992 53.1988 16.3992 53.1988 14.2992C53.1988 14.2992 49.6988 13.3992 49.2988 12.3992L44.2988 2.19922Z" fill="#EEAC6D"/>
<path id="Vector_15" d="M46.5996 3.40095C46.5996 3.40095 50.4996 2.70095 53.8996 3.40095C53.8996 3.40095 58.9996 7.20095 60.3996 9.30095C60.3996 9.30095 65.3996 16.701 65.6996 17.801C65.9996 18.901 64.9996 21.001 62.3996 19.301L58.9996 14.501L46.5996 3.40095Z" fill="#EEAC6D"/>
<path id="Vector_16" d="M43.4002 23.7992C43.4002 23.7992 44.1002 19.4992 45.4002 17.8992C45.4002 17.8992 43.1002 14.2992 42.6002 13.2992C42.6002 13.2992 38.7002 10.7992 37.7002 10.9992C37.7002 10.9992 37.0002 7.89922 38.9002 7.19922C38.9002 7.19922 38.3002 8.69922 38.6002 9.49922C38.6002 9.49922 40.6002 11.7992 42.1002 11.8992C42.1002 11.8992 42.5002 10.4992 42.9002 10.0992C42.9002 10.0992 42.3002 11.8992 43.1002 12.8992L45.4002 16.5992C45.4002 16.5992 47.3002 16.2992 48.1002 16.7992C48.1002 16.7992 45.9002 17.4992 45.7002 18.1992C45.9002 18.0992 43.4002 23.1992 43.4002 23.7992Z" fill="#D89761"/>
<path id="Vector_17" d="M48.2988 10.3984L49.4988 12.7984C49.4988 12.7984 51.8988 14.4984 53.2988 14.4984C53.2988 14.4984 53.9988 18.4984 55.5988 21.6984C55.5988 21.6984 55.1988 29.1984 58.3988 29.6984C58.3988 29.6984 55.7988 24.4984 56.5988 21.3984C56.5988 21.3984 53.5988 15.1984 54.0988 13.2984C54.0988 13.1984 50.3988 12.8984 48.2988 10.3984Z" fill="#D89761"/>
<path id="Vector_18" d="M64.6996 19.8008C64.6996 19.8008 63.0996 20.4008 62.2996 19.3008L58.8996 14.5008C58.8996 14.5008 57.1996 10.2008 56.5996 9.30078C56.5996 9.30078 58.5996 12.3008 59.2996 13.9008C59.2996 13.9008 62.6996 20.0008 64.6996 19.8008Z" fill="#D89761"/>
<path id="Vector_19" d="M43.6984 30.9999L36.8984 26.4999L30.3984 20.6999C30.3984 20.6999 20.5984 17.2999 19.2984 15.9999C19.2984 15.9999 13.5984 9.39994 6.79844 12.1999C6.79844 12.1999 5.09844 13.2999 4.39844 13.8999C4.39844 13.8999 14.0984 11.3999 18.1984 17.4999C18.1984 17.4999 24.5984 20.4999 29.1984 21.2999C29.1984 21.2999 34.8984 25.6999 36.1984 27.1999C36.0984 27.2999 42.0984 31.2999 43.6984 30.9999Z" fill="#D89761"/>
<path id="Vector_20" d="M46.5996 3.39852C46.5996 3.39852 51.4996 2.59852 53.8996 3.39852C53.8996 3.39852 58.8996 7.29852 59.7996 8.49852C59.7996 8.49852 53.5996 4.39852 52.3996 4.19852C52.2996 4.19852 47.7996 3.39852 46.5996 3.39852Z" fill="#FFBD7D"/>
<path id="Vector_21" d="M46.5996 3.39844C46.5996 3.39844 55.4996 8.19844 56.3996 8.89844L53.6996 6.39844C53.5996 6.39844 50.0996 3.99844 46.5996 3.39844Z" fill="#FFBD7D"/>
</g>
</g>
</g>
</g>
<defs>
<clipPath id="clip0_361_181">
<rect width="87.4" height="76.2" fill="white"/>
</clipPath>
</defs>
</svg>
