<svg width="93" height="92" viewBox="0 0 93 92" fill="none" xmlns="http://www.w3.org/2000/svg">
<g id="Frame" clip-path="url(#clip0_361_216)">
<g id="Group">
<path id="Vector" d="M27.9996 91.5012C27.9996 91.5012 33.9996 68.5012 29.0996 63.1012C29.0996 63.1012 15.7996 53.7012 13.6996 51.6012C13.6996 51.6012 6.89958 40.9012 6.29958 38.3012C6.29958 38.3012 -0.20042 27.1012 -0.10042 26.3012C-0.10042 26.3012 1.59958 23.3012 5.39958 27.7012C5.39958 27.7012 9.19958 32.9012 9.89958 34.4012C9.89958 34.4012 8.19958 25.9012 6.59958 20.2012C6.59958 20.2012 8.69958 16.9012 11.6996 22.8012C11.6996 22.8012 15.9996 21.4012 16.9996 30.0012C16.9996 30.0012 19.8996 30.2012 21.0996 35.0012C21.0996 35.0012 23.9996 41.4012 24.3996 44.8012C24.3996 44.8012 37.4996 49.4012 41.5996 57.8012C41.5996 57.8012 42.9996 59.5012 43.6996 64.0012C43.6996 64.0012 44.2996 89.5012 44.3996 91.5012H27.9996Z" fill="#EEAC6D"/>
<path id="Vector_2" d="M21.5975 52.6984C21.5975 52.6984 20.1975 48.7984 16.2975 46.5984C16.2975 46.5984 10.0975 42.6984 8.49755 40.2984C8.49755 40.2984 6.99755 38.6984 7.89755 36.8984C7.89755 36.8984 6.29755 38.2984 8.09755 40.7984C8.09755 40.7984 11.4975 45.5984 16.1975 48.4984C16.2975 48.3984 19.1975 49.2984 21.5975 52.6984Z" fill="#D89761"/>
<path id="Vector_3" d="M7.19922 22.1016C7.19922 22.1016 9.79922 25.0016 12.4992 36.4016C12.4992 36.4016 10.8992 35.9016 10.4992 35.9016C10.4992 35.9016 10.1992 34.8016 9.79922 34.2016C9.79922 34.2016 8.09922 25.0016 7.19922 22.1016Z" fill="#D89761"/>
<path id="Vector_4" d="M12 23.6016C12 23.6016 16.7 29.4016 18 40.7016L16.4 39.5016C16.4 39.5016 13.4 26.2016 12 23.6016Z" fill="#D89761"/>
<path id="Vector_5" d="M17.2969 30.6016C17.2969 30.6016 20.3969 39.6016 20.8969 42.8016C20.8969 42.8016 22.1969 43.7016 22.4969 44.0016C22.4969 44.0016 19.4969 32.4016 17.2969 30.6016Z" fill="#D89761"/>
<path id="Vector_6" d="M24.2969 44.8008C24.2969 44.8008 36.1969 50.0008 41.2969 57.0008C41.2969 57.0008 35.8969 47.2008 24.2969 44.8008Z" fill="#D89761"/>
<path id="Vector_7" d="M11.3984 47.8008C11.3984 47.8008 13.2984 51.1008 13.6984 51.5008C13.6984 51.5008 16.9984 54.8008 27.2984 61.8008L14.4984 50.9008L11.3984 47.8008Z" fill="#D89761"/>
<path id="Vector_8" d="M43.6992 63.5016L44.4992 91.6016H41.6992L42.6992 59.6016L43.4992 62.4016L43.6992 63.5016Z" fill="#D89761"/>
<path id="Vector_9" d="M9.89844 35.8992C9.89844 35.8992 13.8984 35.6992 19.1984 41.6992C19.1984 41.6992 23.0984 44.1992 24.7984 44.9992C24.7984 44.9992 19.3984 43.0992 14.3984 39.3992C14.3984 39.3992 9.09844 35.9992 7.89844 36.7992C7.99844 36.8992 8.59844 36.0992 9.89844 35.8992Z" fill="#FFBD7D"/>
<path id="Vector_10" d="M64.5992 91.5012C64.5992 91.5012 58.5992 68.5012 63.4992 63.1012C63.4992 63.1012 76.7992 53.7012 78.8992 51.6012C78.8992 51.6012 85.6992 40.9012 86.2992 38.3012C86.2992 38.3012 92.7992 27.1012 92.6992 26.3012C92.6992 26.3012 90.9992 23.3012 87.1992 27.7012C87.1992 27.7012 83.3992 32.9012 82.6992 34.4012C82.6992 34.4012 84.3992 25.9012 85.9992 20.2012C85.9992 20.2012 83.8992 16.9012 80.8992 22.8012C80.8992 22.8012 76.5992 21.4012 75.5992 30.0012C75.5992 30.0012 72.6992 30.2012 71.4992 35.0012C71.4992 35.0012 68.5992 41.4012 68.1992 44.8012C68.1992 44.8012 55.0992 49.4012 50.9992 57.8012C50.9992 57.8012 49.5992 59.5012 48.8992 64.0012C48.8992 64.0012 48.2992 89.5012 48.1992 91.5012H64.5992Z" fill="#EEAC6D"/>
<path id="Vector_11" d="M71 52.6984C71 52.6984 72.4 48.7984 76.3 46.5984C76.3 46.5984 82.5 42.6984 84.1 40.2984C84.1 40.2984 85.6 38.6984 84.7 36.8984C84.7 36.8984 86.3 38.2984 84.5 40.7984C84.5 40.7984 81.1 45.5984 76.4 48.4984C76.4 48.3984 73.4 49.2984 71 52.6984Z" fill="#D89761"/>
<path id="Vector_12" d="M85.4016 22.1016C85.4016 22.1016 82.8016 25.0016 80.1016 36.4016C80.1016 36.4016 81.7016 35.9016 82.1016 35.9016C82.1016 35.9016 82.4016 34.8016 82.8016 34.2016C82.9016 34.2016 84.5016 25.0016 85.4016 22.1016Z" fill="#D89761"/>
<path id="Vector_13" d="M80.6016 23.6016C80.6016 23.6016 75.9016 29.4016 74.6016 40.7016L76.2016 39.5016C76.2016 39.5016 79.3016 26.2016 80.6016 23.6016Z" fill="#D89761"/>
<path id="Vector_14" d="M75.3992 30.6016C75.3992 30.6016 72.2992 39.6016 71.7992 42.8016C71.7992 42.8016 70.4992 43.7016 70.1992 44.0016C70.1992 44.0016 73.0992 32.4016 75.3992 30.6016Z" fill="#D89761"/>
<path id="Vector_15" d="M68.3984 44.8008C68.3984 44.8008 56.4984 50.0008 51.3984 57.0008C51.3984 57.0008 56.7984 47.2008 68.3984 44.8008Z" fill="#D89761"/>
<path id="Vector_16" d="M81.1969 47.8008C81.1969 47.8008 79.2969 51.1008 78.8969 51.5008C78.8969 51.5008 75.5969 54.8008 65.2969 61.8008L78.1969 50.9008L81.1969 47.8008Z" fill="#D89761"/>
<path id="Vector_17" d="M49.0016 63.5016L48.1016 91.6016H50.9016L50.0016 59.6016L49.2016 62.4016L49.0016 63.5016Z" fill="#D89761"/>
<path id="Vector_18" d="M82.6969 35.8992C82.6969 35.8992 78.6969 35.6992 73.3969 41.6992C73.3969 41.6992 69.4969 44.1992 67.7969 44.9992C67.7969 44.9992 73.1969 43.0992 78.1969 39.3992C78.1969 39.3992 83.4969 35.9992 84.6969 36.7992C84.6969 36.8992 83.9969 36.0992 82.6969 35.8992Z" fill="#FFBD7D"/>
<path id="Vector_19" d="M46.6984 47C59.5667 47 69.9984 36.4787 69.9984 23.5C69.9984 10.5213 59.5667 0 46.6984 0C33.8302 0 23.3984 10.5213 23.3984 23.5C23.3984 36.4787 33.8302 47 46.6984 47Z" fill="#16A5DE"/>
<path id="Vector_20" d="M32.1016 38.8992L30.3016 37.0992L30.8016 34.1992L30.0016 32.3992L30.5016 29.6992L29.2016 27.8992L26.2016 27.6992L24.2016 26.1992L23.6016 26.3992C24.7016 34.9992 30.5016 42.0992 38.3016 45.2992L39.0016 45.0992L33.3016 41.6992L32.1016 38.8992Z" fill="#77D311"/>
<g id="Group_2">
<path id="Vector_21" d="M54.5977 33.4992L54.7977 31.6992L55.0977 30.1992L56.2977 29.4992L57.5977 28.6992L57.3977 29.9992L55.7977 33.3992L54.5977 33.4992Z" fill="#4FC106"/>
<path id="Vector_22" d="M36.3984 6.69687L37.9984 6.49687L38.4984 4.29688L36.3984 6.69687Z" fill="#4FC106"/>
<path id="Vector_23" d="M36.7971 10.9984L39.7971 10.1984L42.1971 8.49844L44.8971 10.8984L46.7971 12.0984L44.9971 7.99844L48.6971 9.99844L49.3971 9.29844L50.6971 10.5984L53.1971 10.3984L53.0971 11.9984L50.5971 12.4984L47.9971 11.1984L47.4971 12.4984L44.2971 12.1984L43.4971 10.8984L38.2971 11.6984L36.5971 12.3984C36.5971 12.3984 33.1971 16.5984 32.6971 16.5984C32.1971 16.5984 33.9971 18.2984 33.9971 18.2984L33.6971 20.4984L36.0971 22.6984L38.7971 26.6984L42.2971 23.1984L42.8971 26.1984L45.3971 27.6984L44.4971 29.9984L45.6971 31.4984L45.3971 33.6984L46.6971 33.8984L47.1971 36.0984L50.3971 35.5984V34.2984L52.3971 32.4984V30.9984L54.3971 29.7984L56.0971 26.9984L58.7971 22.1984L59.0971 20.3984L56.8971 20.0984L55.5971 18.7984L52.3971 14.0984L54.5971 13.4984L55.5971 16.0984L56.7971 19.2984L59.4971 18.7984L61.1971 16.9984L58.9971 14.6984L57.7971 12.9984L59.9971 14.2984L62.8971 15.4984L65.2971 18.6984L66.4971 24.3984L66.7971 21.6984L68.5971 19.2984L70.0971 22.1984C69.5971 12.8984 64.2971 6.09844 57.1971 2.29844L55.6971 2.39844C55.6971 2.39844 51.2971 3.19844 50.6971 3.39844C49.9971 3.59844 51.9971 2.09844 51.9971 2.09844L48.5971 1.39844L45.3971 1.69844L41.9971 3.29844L42.9971 4.29844L42.7971 5.29844L41.0971 5.79844L40.3971 4.29844L39.0971 4.99844L38.5971 6.99844L39.9971 6.69844L38.2971 7.69844L39.5971 8.39844L36.7971 10.9984ZM46.6971 5.29844L44.4971 4.79844L46.6971 4.09844L46.1971 2.79844L47.8971 1.99844L48.3971 3.79844L46.6971 5.29844ZM50.1971 8.49844L50.4971 7.19844L52.1971 7.89844L54.3971 8.99844L50.1971 8.49844ZM58.0971 10.4984L55.4971 8.99844L58.2971 7.49844V8.69844L58.0971 10.4984Z" fill="#77D311"/>
</g>
<g id="Group_3">
<path id="Vector_24" d="M36.3984 6.70078L37.9984 6.50078L38.4984 4.30078L36.3984 6.70078Z" fill="#77D311"/>
<path id="Vector_25" d="M33.3 12.5992L39.8 10.1992L42.2 8.49922L44.7 9.49922L45.7 9.79922L45 7.99922L46.4 8.69922V5.19922L44.5 4.79922L46.4 4.19922V3.19922L46.2 2.79922L46.4 2.69922V1.69922L45.4 1.79922L42 3.29922L43 4.29922L42.8 5.29922L41.2 5.79922L40.5 4.29922L39.1 4.99922L38.6 6.99922L40 6.69922L38.3 7.69922L39.6 8.29922L30.5 10.3992L33.3 12.5992Z" fill="#77D311"/>
</g>
</g>
</g>
<defs>
<clipPath id="clip0_361_216">
<rect width="92.6" height="91.6" fill="white"/>
</clipPath>
</defs>
</svg>
