<svg width="100" height="57" viewBox="0 0 100 57" fill="none" xmlns="http://www.w3.org/2000/svg">
<g id="Frame" clip-path="url(#clip0_361_253)">
<g id="Group">
<g id="Group_2">
<path id="Vector" d="M82.2984 17.7C82.2984 7.9 74.5984 0 65.0984 0C58.8984 0 53.3984 3.4 50.3984 8.4C47.2984 3.4 41.8984 0 35.6984 0C26.1984 0 18.3984 7.9 18.3984 17.7C18.3984 23 20.6984 27.8 24.2984 31L48.7984 56C49.1984 56.4 49.7984 56.7 50.3984 56.7C50.9984 56.7 51.4984 56.5 51.9984 56L76.4984 31C79.9984 27.7 82.2984 23 82.2984 17.7Z" fill="#DC0000"/>
</g>
<g id="Group_3">
<g id="Group_4">
<path id="Vector_2" d="M0 48.5011C0 48.5011 12.1 48.5011 19.7 46.5011C19.7 46.5011 35.2 46.7011 38.5 44.3011C38.5 44.3011 48.2 42.9011 50 41.9011C50 41.9011 54.7 40.3011 55.5 39.4011C56.2 38.5011 60.7 38.0011 62.3 34.2011C62.3 34.2011 64 33.8011 64 31.5011C64 31.5011 63.3 29.9011 60.5 30.6011C60.5 30.6011 60.2 27.9011 50.7 29.4011C50.7 29.4011 45.4 28.8011 43.5 29.8011H37.4C37.4 29.8011 33.5 27.5011 33.4 26.3011L33.7 25.2011C33.7 25.2011 42.3 20.4011 40.3 14.4011C40.3 14.4011 39.7 11.8011 37.2 12.7011C37.2 12.7011 31.3 18.8011 29.5 19.8011C29.5 19.8011 19.4 24.5011 18.1 28.9011C18.1 28.9011 17.7 32.6011 13.2 32.0011L0 31.7011V48.5011Z" fill="#EEAC6D"/>
<path id="Vector_3" d="M62.6008 34.7002C62.6008 34.7002 62.4008 31.5002 56.8008 34.1002C56.8008 34.1002 52.6008 36.5002 50.3008 36.6002C50.3008 36.6002 54.5008 35.8002 54.9008 38.1002C54.9008 38.1002 54.7008 40.1002 53.8008 40.6002L56.0008 39.1002C56.0008 39.1002 62.5008 37.1002 62.6008 34.7002Z" fill="#E29E66"/>
<path id="Vector_4" d="M60.4016 30.6998C60.4016 30.6998 58.0016 29.2998 53.4016 30.5998C53.4016 30.5998 50.0016 31.2998 48.6016 31.2998C48.6016 31.2998 43.8016 31.2998 42.9016 32.7998L40.6016 31.8998C40.6016 31.8998 42.1016 33.3998 43.1016 33.9998C43.1016 33.9998 48.0016 33.0998 49.4016 33.2998C49.4016 33.2998 51.6016 33.5998 51.7016 33.6998C51.8016 33.7998 54.7016 32.1998 56.6016 32.4998C56.7016 32.5998 58.4016 31.1998 60.4016 30.6998Z" fill="#D89761"/>
<path id="Vector_5" d="M40.5977 16.1016C40.5977 16.1016 40.5977 19.3016 38.5977 21.3016C38.5977 21.3016 36.2977 24.1016 33.9977 25.5016C33.9977 25.5016 35.3977 29.2016 37.8977 30.0016C37.8977 30.0016 35.0977 30.5016 32.5977 26.0016C32.5977 26.0016 31.7977 24.8016 32.5977 24.0016C32.6977 24.0016 38.7977 20.4016 40.5977 16.1016Z" fill="#D89761"/>
<path id="Vector_6" d="M14.8996 36.8016C14.9996 36.6016 12.3996 42.8016 15.3996 45.6016C15.2996 45.6016 10.2996 43.2016 14.8996 36.8016Z" fill="#D89761"/>
<path id="Vector_7" d="M27.5 21.1C27.5 21.1 20.5 24.3 18.3 28.6C18.3 28.6 16.2 32.9 13.5 32.4C13.5 32.4 16.6 33.4 21 28.7C21 28.7 29.4 19.9 31.2 19L27.5 21.1Z" fill="#FFBD7D"/>
<path id="Vector_8" d="M61.6016 33.3023C61.6016 33.3023 59.1016 30.9023 54.3016 34.7023C54.3016 34.7023 49.9016 36.5023 48.6016 36.9023C48.6016 36.9023 51.8016 36.8023 54.8016 35.0023C54.8016 35.1023 58.9016 33.1023 61.6016 33.3023Z" fill="#FFBD7D"/>
<path id="Vector_9" d="M63.7992 31.4013C63.7992 31.4013 62.7992 28.4013 56.6992 32.6013C56.6992 32.6013 53.9992 32.2013 51.7992 33.8013C51.7992 33.8013 47.0992 32.4013 43.1992 34.0013L40.6992 31.9013L41.6992 34.7013H44.8992C44.8992 34.7013 50.5992 33.9013 51.6992 34.3013C51.6992 34.3013 55.0992 32.7013 56.4992 33.2013C56.4992 33.2013 58.4992 30.6013 63.7992 31.4013Z" fill="#FFBD7D"/>
<path id="Vector_10" d="M54.6984 39.4023C54.6984 39.4023 54.3984 41.3023 49.6984 42.0023C49.6984 42.0023 39.3984 44.9023 38.3984 44.3023C38.3984 44.3023 48.8984 41.9023 49.8984 40.7023C49.9984 40.7023 54.2984 41.1023 54.6984 39.4023Z" fill="#D89761"/>
<path id="Vector_11" d="M54.2016 36.9023C54.2016 36.9023 48.8016 36.6023 45.4016 39.2023C45.4016 39.2023 43.2016 39.7023 41.6016 40.7023C41.6016 40.7023 42.8016 39.2023 44.7016 38.8023C44.7016 38.8023 46.9016 36.7023 52.0016 36.4023C52.0016 36.4023 53.6016 36.4023 54.2016 36.9023Z" fill="#FFBD7D"/>
<path id="Vector_12" d="M38.5016 44.3008C38.5016 44.3008 36.1016 47.6008 19.7016 46.5008C19.7016 46.5008 10.8016 48.4008 7.60156 48.2008L18.9016 45.6008C18.9016 45.6008 34.1016 46.5008 38.5016 44.3008Z" fill="#D89761"/>
</g>
<g id="Group_5">
<path id="Vector_13" d="M64 32.0989C64 32.0989 63.3 27.3989 56 33.6989C56 33.6989 59.2 32.6989 60.2 32.7989C60.2 32.7989 62.1 32.8989 62.1 34.4989C62 34.3989 64 33.6989 64 32.0989Z" fill="#E29E66"/>
<path id="Vector_14" d="M99.8972 53.1992C99.8972 53.1992 87.6972 49.7992 82.7972 46.8992C82.7972 46.8992 76.6972 47.7992 73.6972 40.4992C73.6972 40.4992 70.6972 34.3992 65.9972 29.9992C65.9972 29.9992 62.5972 28.6992 61.4972 27.3992C61.4972 27.3992 58.9972 27.5992 56.3972 26.6992C56.3972 26.6992 51.6972 27.2992 49.3972 25.4992C49.3972 25.4992 45.5972 26.4992 44.0972 25.4992C44.0972 25.4992 41.7972 24.1992 42.7972 22.3992C42.7972 22.3992 40.0972 21.2992 41.0972 19.1992C41.0972 19.1992 43.1972 17.9992 44.9972 18.7992C44.9972 18.7992 47.1972 17.5992 49.1972 17.5992C49.1972 17.5992 44.5972 16.8992 45.4972 14.0992C45.4972 14.0992 57.8972 13.5992 59.0972 13.1992C59.0972 13.1992 69.5972 17.2992 72.9972 17.7992C72.9972 17.7992 75.1972 18.4992 77.6972 23.8992C77.6972 23.8992 84.2972 33.3992 88.4972 34.7992C88.4972 34.7992 99.2972 37.6992 100.097 36.7992V53.1992H99.8972Z" fill="#EEAC6D"/>
<path id="Vector_15" d="M68.4 25.7C68.4 25.7 63.6 23.1 62.6 22.7C62.6 22.7 54.5 23.9 49.5 23.1C49.5 23.1 62 22.3 62.6 22C62.6 22 66.9 24 68.4 25.7Z" fill="#D89761"/>
<path id="Vector_16" d="M42.7969 22.3977C42.7969 22.3977 49.4969 21.8977 50.3969 21.4977C50.3969 21.4977 59.5969 19.2977 58.2969 19.2977C58.0969 19.2977 59.8969 18.5977 66.4969 21.3977C66.4969 21.3977 67.4969 21.3977 67.8969 21.0977C67.8969 21.0977 66.3969 20.9977 65.7969 20.7977C65.7969 20.7977 60.9969 18.2977 58.3969 18.8977C58.3969 18.8977 50.9969 20.3977 49.4969 20.8977C49.4969 20.8977 43.5969 22.2977 42.7969 22.3977Z" fill="#D89761"/>
<path id="Vector_17" d="M62.5958 16.6992C62.5958 16.6992 58.7958 15.5992 57.9958 15.4992C57.9958 15.4992 56.3958 15.2992 49.0958 17.6992C49.0958 17.6992 44.6958 16.9992 45.3958 14.1992C45.3958 14.1992 47.3958 16.7992 49.4958 16.5992C49.4958 16.5992 56.7958 14.9992 57.8958 14.8992C57.8958 14.8992 60.2958 15.3992 62.5958 16.6992Z" fill="#D89761"/>
<path id="Vector_18" d="M41.0968 19.3008C41.0968 19.3008 41.6968 21.4008 44.5968 21.5008C44.5968 21.5008 54.1968 19.6008 56.3968 19.4008L42.8968 22.5008C42.7968 22.5008 40.0968 21.4008 41.0968 19.3008Z" fill="#D89761"/>
<path id="Vector_19" d="M42.7979 22.3984C42.7979 22.3984 40.3979 27.2984 49.4979 25.4984C49.4979 25.4984 51.9979 27.2984 56.4979 26.6984C56.4979 26.6984 49.8979 25.5984 49.4979 24.5984C49.4979 24.5984 42.6979 25.9984 42.7979 22.3984Z" fill="#D89761"/>
<path id="Vector_20" d="M72.7977 19.2977C72.7977 19.2977 70.6977 18.7977 68.3977 19.2977C68.3977 19.2977 60.2977 16.4977 58.5977 16.3977C58.5977 16.3977 55.4977 16.0977 49.2977 18.7977C49.2977 18.7977 46.0977 19.0977 45.3977 19.5977C45.3977 19.5977 41.5977 19.0977 41.0977 19.3977C41.0977 19.3977 42.4977 18.3977 44.9977 18.9977C44.9977 18.9977 47.2977 17.7977 49.1977 17.7977C49.1977 17.7977 55.8977 15.7977 57.7977 15.5977C57.7977 15.5977 61.0977 15.9977 62.5977 16.7977C62.5977 16.6977 72.3977 18.8977 72.7977 19.2977Z" fill="#FFBD7D"/>
<path id="Vector_21" d="M72.4953 23.5008C72.4953 23.5008 69.8953 22.9008 68.5953 23.3008C68.5953 23.3008 61.7953 20.3008 59.3953 20.3008C59.3953 20.3008 50.9953 21.5008 50.1953 21.6008C50.1953 21.6008 57.8953 19.4008 58.5953 19.3008C58.5953 19.3008 61.9953 19.4008 66.3953 21.5008L67.7953 21.2008C67.8953 21.1008 71.6953 22.6008 72.4953 23.5008Z" fill="#FFBD7D"/>
<path id="Vector_22" d="M70.8984 35.8008C70.8984 35.8008 73.2984 39.6008 73.7984 40.7008C73.7984 40.7008 76.3984 47.7008 82.7984 46.9008C82.7984 46.9008 77.9984 44.8008 75.1984 40.3008C75.1984 40.2008 72.4984 36.3008 70.8984 35.8008Z" fill="#E29E66"/>
<path id="Vector_23" d="M84.1953 31.8008C84.1953 31.8008 88.7953 40.6008 99.7953 41.9008L99.8953 36.8008C99.8953 36.8008 89.9953 36.5008 84.1953 31.8008Z" fill="#FFBD7D"/>
</g>
</g>
</g>
</g>
<defs>
<clipPath id="clip0_361_253">
<rect width="99.9" height="56.7" fill="white"/>
</clipPath>
</defs>
</svg>
