<svg width="27" height="26" viewBox="0 0 27 26" fill="none" xmlns="http://www.w3.org/2000/svg">
<g clip-path="url(#clip0_145_115)">
<path d="M25 12.0288C25 5.66491 19.848 0.5 13.5 0.5C7.152 0.5 2 5.66491 2 12.0288C2 17.6088 5.956 22.2549 11.2 23.3271L11.2 15.4875L8.9 15.4875L8.9 12.0288L11.2 12.0288L11.2 9.14662C11.2 6.92155 13.0055 5.11153 15.225 5.11153L18.1 5.11153L18.1 8.57018L15.8 8.57018C15.1675 8.57018 14.65 9.08897 14.65 9.72306L14.65 12.0288L18.1 12.0288L18.1 15.4875L14.65 15.4875L14.65 23.5C20.4575 22.9236 25 18.0123 25 12.0288Z" fill="black"/>
</g>
<defs>
<clipPath id="clip0_145_115">
<rect width="27" height="25" fill="white" transform="translate(0 0.5)"/>
</clipPath>
</defs>
</svg>
