<svg width="70" height="70" viewBox="0 0 70 70" fill="none" xmlns="http://www.w3.org/2000/svg">
<path id="icon" d="M69.9526 12.862C69.897 12.6937 69.7958 12.5442 69.6602 12.4302C69.5246 12.3161 69.36 12.2419 69.1847 12.2159L62.8652 11.278L64.3524 9.79083C64.4413 9.70209 64.5118 9.5967 64.5599 9.48069C64.608 9.36468 64.6328 9.24032 64.6328 9.11473C64.6328 8.98913 64.608 8.86477 64.5599 8.74876C64.5118 8.63275 64.4413 8.52736 64.3524 8.43862L61.5649 5.64785C61.3855 5.46862 61.1423 5.36794 60.8888 5.36794C60.6352 5.36794 60.392 5.46862 60.2127 5.64785L58.7254 7.13506L57.7848 0.816204C57.7589 0.640898 57.6848 0.476244 57.5707 0.340626C57.4566 0.205008 57.3071 0.103765 57.1388 0.0482033C56.9706 -0.00735874 56.7901 -0.0150532 56.6177 0.0259793C56.4454 0.0670117 56.2878 0.155156 56.1626 0.280569L49.1763 7.26952C42.1253 3.47265 33.9438 2.33889 26.1261 4.07533C18.3084 5.81177 11.3762 10.3025 6.59576 16.7273C1.8153 23.1521 -0.494395 31.0822 0.088544 39.0691C0.671483 47.056 4.10815 54.5667 9.77084 60.2293C15.4335 65.8919 22.9443 69.3285 30.9313 69.9115C38.9183 70.4944 46.8485 68.1847 53.2734 63.4043C59.6982 58.6239 64.189 51.6918 65.9255 43.8742C67.662 36.0566 66.5282 27.8752 62.7313 20.8244L69.7181 13.8371C69.8437 13.7122 69.9321 13.5549 69.9735 13.3827C70.0149 13.2106 70.0077 13.0303 69.9526 12.862ZM32.7042 37.2968C33.2541 37.8451 33.9991 38.153 34.7757 38.153C35.5523 38.153 36.2972 37.8451 36.8472 37.2968L39.7987 34.3453C40.0665 35.0741 40.2065 35.8437 40.2124 36.6201C40.2124 37.9714 39.8117 39.2923 39.061 40.4158C38.3103 41.5394 37.2433 42.4151 35.9948 42.9322C34.7464 43.4493 33.3727 43.5846 32.0474 43.3209C30.7221 43.0573 29.5047 42.4066 28.5492 41.4512C27.5937 40.4957 26.943 39.2783 26.6794 37.953C26.4158 36.6277 26.5511 35.254 27.0682 34.0056C27.5853 32.7572 28.461 31.6902 29.5845 30.9395C30.7081 30.1888 32.029 29.7881 33.3803 29.7881C34.1574 29.7933 34.9278 29.9329 35.6573 30.2007L32.7058 33.1522C32.4336 33.4241 32.2176 33.7471 32.0703 34.1026C31.9229 34.4581 31.8471 34.8391 31.8471 35.2239C31.8471 35.6088 31.9229 35.9898 32.0703 36.3453C32.2176 36.7008 32.4336 37.0237 32.7058 37.2957L32.7042 37.2968ZM37.1259 28.7315C35.257 27.8395 33.1329 27.6367 31.1289 28.1591C29.1249 28.6815 27.3701 29.8954 26.1745 31.5863C24.9789 33.2773 24.4195 35.3364 24.5952 37.3998C24.7708 39.4633 25.6702 41.3982 27.1344 42.8628C28.5985 44.3274 30.5333 45.2272 32.5967 45.4034C34.6602 45.5796 36.7195 45.0207 38.4107 43.8256C40.102 42.6305 41.3164 40.876 41.8393 38.8722C42.3623 36.8684 42.16 34.7442 41.2684 32.8751L45.8651 28.2784C47.5304 30.7411 48.4174 33.6473 48.411 36.6201C48.411 39.5929 47.5295 42.4989 45.8779 44.9707C44.2263 47.4425 41.8788 49.369 39.1323 50.5066C36.3858 51.6442 33.3636 51.9419 30.4479 51.3619C27.5322 50.782 24.854 49.3504 22.7519 47.2484C20.6498 45.1463 19.2183 42.4681 18.6383 39.5525C18.0584 36.6368 18.356 33.6147 19.4937 30.8682C20.6313 28.1217 22.5578 25.7743 25.0296 24.1227C27.5014 22.4711 30.4075 21.5896 33.3803 21.5896C36.3534 21.5831 39.26 22.4699 41.7232 24.1349L37.1259 28.7315ZM43.0923 22.7652C40.2549 20.751 36.86 19.6713 33.3803 19.6766C30.0291 19.6766 26.7532 20.6703 23.9668 22.5321C21.1804 24.3939 19.0087 27.0401 17.7263 30.1361C16.4438 33.2322 16.1083 36.6389 16.7621 39.9257C17.4158 43.2124 19.0296 46.2315 21.3992 48.6011C23.7688 50.9707 26.7879 52.5844 30.0747 53.2381C33.3615 53.8919 36.7683 53.5564 39.8644 52.274C42.9605 50.9915 45.6067 48.8198 47.4685 46.0335C49.3303 43.2471 50.3241 39.9713 50.3241 36.6201C50.3296 33.1409 49.2503 29.7465 47.2365 26.9093L51.7342 22.4094C55.3573 27.0867 57.0625 32.9685 56.5027 38.8583C55.9428 44.7481 53.1602 50.2035 48.7208 54.1144C44.2814 58.0254 38.5187 60.0981 32.6052 59.911C26.6918 59.7239 21.0717 57.291 16.8884 53.1072C12.7051 48.9234 10.2729 43.3031 10.0866 37.3897C9.90026 31.4762 11.9738 25.714 15.8854 21.2751C19.797 16.8363 25.2527 14.0544 31.1427 13.4953C37.0327 12.9363 42.9144 14.6422 47.5912 18.2659L43.0923 22.7652ZM60.886 7.67725L62.3235 9.11473L35.4944 35.9435C35.4 36.0379 35.288 36.1128 35.1646 36.1639C35.0413 36.215 34.9091 36.2414 34.7756 36.2414C34.6421 36.2414 34.5099 36.2152 34.3865 36.1641C34.2632 36.113 34.1511 36.0382 34.0567 35.9438C33.9622 35.8494 33.8873 35.7373 33.8362 35.614C33.7851 35.4907 33.7588 35.3585 33.7588 35.225C33.7587 35.0914 33.785 34.9592 33.8361 34.8359C33.8871 34.7125 33.962 34.6004 34.0564 34.506L60.886 7.67725ZM56.1713 2.97678L57.0387 8.81958L50.6569 15.2007L49.7895 9.35795L56.1713 2.97678ZM33.3803 68.0477C28.618 68.0491 23.9177 66.9681 19.6345 64.8866C15.3512 62.8051 11.597 59.7774 8.65549 56.0323C5.71395 52.2871 3.662 47.9225 2.65463 43.268C1.64727 38.6136 1.71085 33.7911 2.84056 29.1648C3.97027 24.5386 6.13658 20.2295 9.17582 16.5632C12.2151 12.8969 16.0478 9.96926 20.3844 8.00137C24.7211 6.03348 29.4482 5.07684 34.2088 5.20372C38.9693 5.3306 43.6388 6.53768 47.8645 8.73377C47.8201 8.87221 47.808 9.01897 47.8289 9.16282L48.9768 16.8847L48.9554 16.906C43.914 12.9216 37.5402 11.0148 31.1388 11.5759C24.7375 12.1371 18.7926 15.1237 14.5213 19.9244C10.2499 24.7251 7.97497 30.9769 8.16222 37.4C8.34948 43.8231 10.9847 49.9317 15.5285 54.4755C20.0723 59.0192 26.181 61.6545 32.6042 61.8417C39.0274 62.029 45.2793 59.7541 50.0801 55.4828C54.8809 51.2114 57.8675 45.2667 58.4286 38.8654C58.9897 32.4641 57.0829 26.0904 53.0985 21.049L53.1198 21.0277L60.8418 22.1755C60.8883 22.1824 60.9352 22.1859 60.9822 22.1859C61.0798 22.1843 61.1766 22.1679 61.2692 22.1372C63.759 26.9271 64.9727 32.2777 64.7932 37.6731C64.6137 43.0685 63.047 48.3266 60.2443 52.9404C57.4416 57.5543 53.4974 61.3681 48.792 64.0143C44.0866 66.6604 38.7787 68.0495 33.3803 68.0477ZM60.6439 20.2122L54.801 19.3454L61.1828 12.9636L67.0257 13.831L60.6439 20.2122Z" fill="#DADADA"/>
</svg>
