<svg width="66" height="67" viewBox="0 0 66 67" fill="none" xmlns="http://www.w3.org/2000/svg">
<path d="M44.3059 27.3651C41.0281 27.3651 38.3616 24.7077 38.3616 21.4415C38.3616 18.1752 41.0281 15.5179 44.3059 15.5179C47.5837 15.5179 50.2502 18.1752 50.2502 21.4415C50.2502 24.7077 47.5837 27.3651 44.3059 27.3651ZM44.3059 17.6506C42.2085 17.6506 40.5022 19.351 40.5022 21.4409C40.5022 23.5309 42.2085 25.2313 44.3059 25.2313C46.4033 25.2313 48.1096 23.5309 48.1096 21.4409C48.1096 19.351 46.4033 17.6506 44.3059 17.6506Z" fill="#FFBB00"/>
<path d="M65.7608 1.17932C65.7235 0.646556 65.2993 0.221321 64.7648 0.180796C56.7972 -0.427068 42.057 -0.00669714 32.8787 9.62675C32.8776 9.62783 32.876 9.62891 32.8749 9.63053C31.6306 10.9495 30.4848 12.4451 29.4224 14.0266C16.0871 18.8258 10.1693 27.5725 8.77407 32.0183C8.57066 32.6678 9.0424 33.3621 9.72404 33.4134L19.4293 34.1477C18.6297 36.2556 17.9016 38.3747 17.2562 40.4955C17.1399 40.8769 17.2453 41.2908 17.5288 41.5718L24.0179 47.9968C24.2954 48.2713 24.7147 48.3766 25.0891 48.2643C27.253 47.6191 29.4148 46.8891 31.5646 46.0884L32.3117 55.7726C32.3642 56.4496 33.0567 56.9192 33.708 56.7192C37.7989 55.4614 46.8085 49.5616 51.8553 36.2307C53.4529 35.1749 54.9552 34.0348 56.266 32.7948C65.8241 23.7811 66.3175 9.11776 65.7608 1.17932C66.3175 9.11776 65.7229 0.646016 65.7608 1.17932ZM63.6629 2.26429C63.8863 6.34428 63.7813 11.9404 62.3753 17.5025L48.2426 3.50973C53.8797 2.09138 59.5427 2.01466 63.6629 2.26429ZM11.3378 31.3753C13.0744 27.5644 17.973 21.254 27.5089 17.101C25.9157 19.8481 24.5324 22.6831 23.3017 25.207C22.1981 27.4612 21.1826 29.7473 20.2516 32.0502L11.3378 31.3753ZM34.3561 54.1678L33.6707 45.2784C35.9775 44.3626 38.2669 43.3651 40.5239 42.2823C43.0838 41.0698 45.9581 39.7088 48.7301 38.1386C44.4244 47.6283 38.1333 52.4642 34.3561 54.1678ZM54.7794 31.2322C50.7279 35.0652 44.8133 37.8657 39.5907 40.3388C34.8506 42.6146 29.9731 44.5231 25.0837 46.016L19.5153 40.502C21.022 35.6661 22.9484 30.8415 25.2454 26.1499C27.6225 21.2751 30.5806 15.2078 34.4476 11.1078C37.6891 7.70643 41.7108 5.54297 45.8677 4.19487L61.6926 19.8632C60.3418 24.0167 58.1778 28.0264 54.7794 31.2322Z" fill="#FFBB00"/>
<path d="M1.72289 66.3559C0.788068 66.3559 0.299559 65.1969 0.945494 64.5307L15.7452 49.2612C16.7125 48.2664 18.2694 49.7572 17.3 50.7579L2.50028 66.0269C2.28822 66.2457 2.00582 66.3559 1.72289 66.3559Z" fill="#FFBB00"/>
<path d="M12.1368 67C11.2236 67 10.7254 65.8853 11.3291 65.2072L20.9208 54.4494C21.8459 53.4157 23.4634 54.84 22.5367 55.8801L12.9451 66.638C12.7319 66.8779 12.4349 67 12.1368 67Z" fill="#FFBB00"/>
<path d="M1.07208 56.689C0.158903 56.689 -0.339343 55.5743 0.264395 54.8962L9.85658 44.1383C10.7811 43.1042 12.3992 44.5295 11.4725 45.5691L1.88031 56.327C1.66663 56.5669 1.37017 56.689 1.07208 56.689Z" fill="#FFBB00"/>
</svg>
