<svg width="28" height="28" viewBox="0 0 28 28" fill="none" xmlns="http://www.w3.org/2000/svg">
<path d="M19.0769 3.5H8.92308C7.35269 3.50168 5.84711 4.12626 4.73668 5.23668C3.62626 6.34711 3.00168 7.85269 3 9.42308V19.5769C3.00168 21.1473 3.62626 22.6529 4.73668 23.7633C5.84711 24.8737 7.35269 25.4983 8.92308 25.5H19.0769C20.6473 25.4983 22.1529 24.8737 23.2633 23.7633C24.3737 22.6529 24.9983 21.1473 25 19.5769V9.42308C24.9983 7.85269 24.3737 6.34711 23.2633 5.23668C22.1529 4.12626 20.6473 3.50168 19.0769 3.5ZM14 19.5769C12.9959 19.5769 12.0143 19.2792 11.1794 18.7213C10.3445 18.1634 9.6938 17.3705 9.30954 16.4429C8.92527 15.5152 8.82473 14.4944 9.02063 13.5095C9.21652 12.5247 9.70005 11.6201 10.4101 10.9101C11.1201 10.2001 12.0247 9.71652 13.0095 9.52063C13.9944 9.32473 15.0152 9.42527 15.9429 9.80954C16.8705 10.1938 17.6634 10.8445 18.2213 11.6794C18.7792 12.5143 19.0769 13.4959 19.0769 14.5C19.0755 15.8461 18.5402 17.1366 17.5884 18.0884C16.6366 19.0402 15.3461 19.5755 14 19.5769ZM20.3462 9.42308C20.0951 9.42308 19.8497 9.34864 19.641 9.20917C19.4323 9.06971 19.2696 8.87148 19.1735 8.63956C19.0775 8.40764 19.0523 8.15244 19.1013 7.90623C19.1503 7.66002 19.2712 7.43387 19.4487 7.25636C19.6262 7.07886 19.8523 6.95798 20.0985 6.909C20.3447 6.86003 20.5999 6.88516 20.8319 6.98123C21.0638 7.07729 21.262 7.23998 21.4015 7.4487C21.5409 7.65742 21.6154 7.90282 21.6154 8.15385C21.6154 8.49047 21.4817 8.8133 21.2436 9.05133C21.0056 9.28935 20.6828 9.42308 20.3462 9.42308ZM17.3846 14.5C17.3846 15.1694 17.1861 15.8238 16.8142 16.3804C16.4423 16.937 15.9137 17.3708 15.2952 17.627C14.6768 17.8832 13.9962 17.9502 13.3397 17.8196C12.6831 17.689 12.0801 17.3666 11.6067 16.8933C11.1334 16.4199 10.811 15.8169 10.6804 15.1603C10.5498 14.5038 10.6168 13.8232 10.873 13.2048C11.1292 12.5863 11.563 12.0577 12.1196 11.6858C12.6762 11.3139 13.3306 11.1154 14 11.1154C14.8977 11.1154 15.7585 11.472 16.3933 12.1067C17.028 12.7415 17.3846 13.6023 17.3846 14.5Z" fill="black"/>
</svg>
