<svg width="18" height="28" viewBox="0 0 18 28" fill="none" xmlns="http://www.w3.org/2000/svg">
<path d="M9.05191 2.18778C8.75915 2.18559 8.52039 2.42895 8.51827 2.73083C8.51615 3.0327 8.7512 3.27934 9.04396 3.28153C9.33619 3.28372 9.57495 3.0409 9.57707 2.73903C9.57919 2.43715 9.34414 2.19051 9.05191 2.18778Z" fill="#465CA3"/>
<path d="M9.02782 5.46898C6.98375 5.454 5.30973 7.15746 5.29427 9.26835C5.27886 11.3791 6.92879 13.1092 8.97223 13.1251C8.98171 13.1252 8.99113 13.1252 9.00061 13.1252C11.031 13.1252 12.6904 11.4269 12.7058 9.32577C12.7212 7.2151 11.0713 5.48489 9.02782 5.46898ZM9.0005 12.0315C8.99383 12.0315 8.98684 12.0315 8.98017 12.0314C7.52056 12.0201 6.34201 10.7842 6.35302 9.27655C6.36398 7.77565 7.5492 6.56257 8.99955 6.56257C9.00622 6.56257 9.01321 6.56262 9.01988 6.56268C10.4795 6.57405 11.658 7.80988 11.647 9.31757C11.636 10.8185 10.4509 12.0315 9.0005 12.0315Z" fill="#465CA3"/>
<path d="M11.3099 2.60253C11.0345 2.50158 10.7317 2.6506 10.634 2.9353C10.5363 3.22001 10.6806 3.53255 10.9561 3.6335C13.288 4.48723 14.842 6.78143 14.8234 9.34228C14.8212 9.64427 15.0564 9.89096 15.3488 9.89326C15.3501 9.89326 15.3515 9.89326 15.3529 9.89326C15.6433 9.89326 15.88 9.6511 15.8822 9.35049C15.9042 6.32369 14.0667 3.6119 11.3099 2.60253Z" fill="#465CA3"/>
<path d="M12.2483 20.5867C15.7695 15.9046 17.97 13.4631 17.9997 9.36678C18.037 4.21286 13.988 0 8.99918 0C4.06854 0 0.0377847 4.12498 0.000303027 9.22733C-0.0299787 13.4347 2.21145 15.8729 5.75696 20.5859C2.22982 21.1304 0.000303027 22.4985 0.000303027 24.1719C0.000303027 25.2929 1.00331 26.2987 2.82461 27.0042C4.48232 27.6463 6.67547 28 9.00002 28C11.3246 28 13.5177 27.6463 15.1754 27.0042C16.9967 26.2987 17.9997 25.2928 17.9997 24.1719C17.9997 22.4994 15.7723 21.1316 12.2483 20.5867ZM1.05905 9.23559C1.09209 4.73321 4.64834 1.09375 8.99928 1.09375C13.4017 1.09375 16.9738 4.81185 16.941 9.35864C16.9128 13.2488 14.5791 15.6461 10.8534 20.6633C10.1888 21.5578 9.5785 22.4035 9.00082 23.2307C8.42483 22.403 7.82671 21.5725 7.1522 20.663C3.27243 15.4357 1.03036 13.2196 1.05905 9.23559ZM9.00002 26.9063C4.45506 26.9063 1.05905 25.4627 1.05905 24.1719C1.05905 23.2147 3.0892 22.0054 6.50268 21.5867C7.25723 22.6094 7.91877 23.5385 8.56761 24.4875C8.66671 24.6324 8.82776 24.7187 8.99955 24.7188C8.99971 24.7188 8.99987 24.7188 9.00002 24.7188C9.17166 24.7188 9.33265 24.6328 9.43191 24.4882C10.0746 23.5516 10.7542 22.5995 11.5023 21.5873C14.9126 22.0065 16.941 23.2153 16.941 24.172C16.9409 25.4627 13.545 26.9063 9.00002 26.9063Z" fill="#465CA3"/>
</svg>
