<svg width="910" height="342" viewBox="0 0 910 342" fill="none" xmlns="http://www.w3.org/2000/svg">
<g opacity="0.15">
<path d="M122.085 148.277H58.7204V72.3143H0V283.286H58.7204V202.347H122.085V283.286H180.806V72.3143H122.085V148.277Z" fill="white"/>
<path d="M665.498 115.106C614.408 115.106 576.919 151.926 576.919 201.684C576.919 251.441 614.408 288.594 665.498 288.594C706.303 288.594 739.147 265.373 750.758 228.221H695.024C689.716 237.841 678.768 243.48 665.498 243.48C647.915 243.48 635.972 233.86 632.322 215.284H753.081C753.744 210.308 754.408 205.333 754.408 200.357C754.408 152.59 717.915 115.106 665.498 115.106ZM633.318 184.103C637.962 167.849 649.242 158.892 665.498 158.892C682.417 158.892 694.028 167.517 699.005 184.103H633.318Z" fill="white"/>
<path d="M471.09 112.12C457.156 112.12 444.55 115.106 433.602 120.413H387.156V158.892C379.194 168.18 371.896 178.132 364.929 187.752C340.711 220.923 319.479 249.451 286.635 249.451C259.1 249.451 239.194 229.548 239.194 202.016C239.194 175.81 260.427 154.58 286.635 154.58C305.877 154.58 321.801 163.868 340.379 185.43C343.033 182.113 345.355 178.795 348.009 175.146C353.981 167.185 359.953 158.892 366.256 150.931C349.337 132.687 323.792 112.12 286.635 112.12C237.204 112.12 197.062 152.258 197.062 201.684C197.062 252.768 235.545 291.247 286.635 291.247C320.806 291.247 346.019 274.33 366.588 252.768C378.531 240.163 388.815 226.231 398.768 212.63C401.422 209.313 403.744 205.996 406.066 202.679C426.303 175.81 444.882 154.248 470.758 154.248C485.024 154.248 496.967 158.561 505.261 166.854C513.555 175.146 518.199 187.752 518.199 201.684C518.199 227.889 496.967 249.119 470.758 249.119H470.095C447.867 250.114 431.943 235.519 412.701 210.64C410.711 213.294 409.052 215.616 407.062 218.27C400.758 226.894 393.792 236.182 386.493 245.139C386.825 245.802 387.488 246.134 387.82 246.797H387.156V341.337H442.559V287.598C450.521 289.92 458.815 291.579 468.104 291.579C469.1 291.579 470.095 291.579 471.422 291.579C520.853 291.247 560.664 251.11 560.664 202.016C560.664 176.805 551.706 153.585 535.119 137.331C518.863 120.745 496.635 112.12 471.09 112.12Z" fill="white"/>
<path d="M770 61.3676C770 71.3191 763.697 77.6217 754.408 77.6217C745.118 77.6217 738.815 71.3191 738.815 61.3676V0H710.284V62.031C710.284 86.9098 728.531 103.496 754.408 103.496C780.284 103.496 798.531 86.5781 798.531 62.031V0H770V61.3676Z" fill="white"/>
<path d="M869.526 0H842.322L802.512 100.842H832.37L838.01 84.5878H873.839L879.479 100.842H910L869.526 0ZM844.976 62.6945L855.924 31.5131L867.204 62.6945H844.976Z" fill="white"/>
</g>
</svg>
