<svg width="313" height="118" viewBox="0 0 313 118" fill="none" xmlns="http://www.w3.org/2000/svg">
<g opacity="0.1">
<path d="M41.992 51.2595H20.1972V24.999H0V97.932H20.1972V69.9514H41.992V97.932H62.1892V24.999H41.992V51.2595Z" fill="#48588A"/>
<path d="M228.902 39.792C211.329 39.792 198.435 52.5209 198.435 69.722C198.435 86.9232 211.329 99.7667 228.902 99.7667C242.937 99.7667 254.234 91.7395 258.228 78.896H239.058C237.232 82.2216 233.466 84.171 228.902 84.171C222.854 84.171 218.746 80.8455 217.491 74.4237H259.027C259.255 72.7036 259.369 70.9835 259.369 69.2634C259.483 52.7502 246.931 39.792 228.902 39.792ZM217.833 63.6443C219.431 58.0253 223.311 54.9291 228.902 54.9291C234.721 54.9291 238.715 57.9106 240.427 63.6443H217.833Z" fill="#48588A"/>
<path d="M162.034 38.76C157.242 38.76 152.906 39.792 149.14 41.6268H133.165V54.9291C130.426 58.1399 127.916 61.5802 125.52 64.9057C117.19 76.3732 109.887 86.2352 98.5899 86.2352C89.1189 86.2352 82.2723 79.3547 82.2723 69.8367C82.2723 60.7774 89.5753 53.4383 98.5899 53.4383C105.208 53.4383 110.685 56.6492 117.075 64.103C117.988 62.9563 118.787 61.8095 119.7 60.5481C121.754 57.7959 123.808 54.9291 125.976 52.1769C120.156 45.8698 111.37 38.76 98.5899 38.76C81.5877 38.76 67.7805 52.6356 67.7805 69.722C67.7805 87.3819 81.0171 100.684 98.5899 100.684C110.343 100.684 119.015 94.8357 126.09 87.3819C130.198 83.0243 133.735 78.208 137.159 73.5063C138.071 72.3596 138.87 71.2128 139.669 70.0661C146.63 60.7774 153.02 53.3236 161.92 53.3236C166.827 53.3236 170.935 54.8144 173.787 57.6812C176.64 60.5481 178.238 64.9057 178.238 69.722C178.238 78.7813 170.935 86.1205 161.92 86.1205H161.692C154.047 86.4645 148.569 81.4188 141.951 72.8183C141.267 73.7357 140.696 74.5384 140.011 75.4558C137.843 78.4373 135.447 81.6482 132.937 84.7444C133.051 84.9737 133.279 85.0884 133.393 85.3178H133.165V118H152.221V99.4227C154.96 100.225 157.812 100.799 161.007 100.799C161.35 100.799 161.692 100.799 162.148 100.799C179.151 100.684 192.844 86.8085 192.844 69.8367C192.844 61.1215 189.763 53.0943 184.057 47.4752C178.466 41.7415 170.821 38.76 162.034 38.76Z" fill="#48588A"/>
<path d="M264.846 21.2148C264.846 24.655 262.678 26.8338 259.483 26.8338C256.288 26.8338 254.12 24.655 254.12 21.2148V0H244.307V21.4441C244.307 30.0447 250.583 35.7784 259.483 35.7784C268.384 35.7784 274.66 29.93 274.66 21.4441V0H264.846V21.2148Z" fill="#48588A"/>
<path d="M299.079 0H289.722L276.029 34.861H286.299L288.238 29.242H300.562L302.502 34.861H313L299.079 0ZM290.635 21.6735L294.4 10.8941L298.28 21.6735H290.635Z" fill="#48588A"/>
</g>
</svg>
