<svg width="31" height="35" viewBox="0 0 31 35" fill="none" xmlns="http://www.w3.org/2000/svg">
<g id="Vector">
<path d="M1.21042 26.6678C1.16905 26.9166 1.14831 27.1684 1.14842 27.4207C1.14979 28.6577 1.63408 29.8436 2.49504 30.7182C3.35601 31.5929 4.52334 32.0849 5.74092 32.0863C5.91628 32.0862 6.09148 32.0757 6.26562 32.0548C6.68611 32.9294 7.33771 33.668 8.1476 34.188C8.95749 34.7081 9.89377 34.9891 10.8518 34.9997C11.8099 35.0103 12.7519 34.75 13.5728 34.248C14.3936 33.746 15.0609 33.022 15.5 32.1569C15.9391 33.022 16.6064 33.746 17.4272 34.248C18.2481 34.75 19.1901 35.0103 20.1482 34.9997C21.1062 34.9891 22.0425 34.7081 22.8524 34.188C23.6623 33.668 24.3139 32.9294 24.7344 32.0548C24.9085 32.0757 25.0837 32.0862 25.2591 32.0863C26.4767 32.0849 27.644 31.5929 28.505 30.7182C29.3659 29.8436 29.8502 28.6577 29.8516 27.4207C29.8517 27.1684 29.8309 26.9166 29.7896 26.6678C30.4348 25.9899 30.8472 25.1183 30.9651 24.183C31.083 23.2476 30.9003 22.2986 30.444 21.4774C30.9632 20.5057 31.1255 19.3781 30.9018 18.2961C30.6781 17.2141 30.0831 16.2481 29.223 15.5707C29.2593 15.343 29.2776 15.1127 29.2775 14.882C29.2798 14.0855 29.0669 13.3036 28.662 12.6215C28.2571 11.9395 27.6758 11.3833 26.9813 11.0137C26.9665 10.0567 26.6602 9.12783 26.1044 8.35498C25.5487 7.58214 24.7708 7.00326 23.8779 6.698C23.4259 4.78983 22.3551 3.09164 20.8378 1.8767C19.3205 0.661765 17.445 0.000741221 15.5131 6.22989e-07C13.5812 -0.000739975 11.7052 0.658846 10.187 1.87262C8.66887 3.08639 7.5968 4.78376 7.14336 6.69158C6.24492 6.99265 5.46118 7.57071 4.90116 8.34533C4.34115 9.11996 4.0327 10.0527 4.01873 11.0137C3.32424 11.3833 2.7429 11.9395 2.33802 12.6215C1.93313 13.3036 1.72023 14.0855 1.72248 14.882C1.72329 15.1134 1.74249 15.3443 1.77989 15.5725C0.919293 16.2495 0.323678 17.2153 0.0994708 18.2973C-0.124737 19.3793 0.0370723 20.5071 0.555985 21.4791C0.0997419 22.3003 -0.0830368 23.2494 0.0348966 24.1847C0.15283 25.1201 0.565159 25.9917 1.21042 26.6696V26.6678ZM10.5292 3.10668C11.8893 1.85972 13.6576 1.17178 15.4897 1.17688C15.7824 1.17684 16.0748 1.19358 16.3657 1.22703C17.9816 1.42721 19.4899 2.15466 20.6641 3.30008C21.8383 4.44551 22.6149 5.94708 22.8773 7.57921C23.047 8.6609 22.9824 9.76719 22.6879 10.8209C22.3935 11.8746 21.8762 12.8503 21.1723 13.68C20.3596 14.6374 19.8178 15.8008 19.6046 17.0462C19.5789 17.177 19.5089 17.2946 19.4067 17.3783C19.3045 17.4621 19.1767 17.5068 19.0454 17.5046H17.2222V14.0072H17.7963C18.1369 14.0072 18.4698 13.9046 18.753 13.7123C19.0363 13.5201 19.257 13.2468 19.3873 12.9271C19.5177 12.6075 19.5518 12.2557 19.4854 11.9163C19.4189 11.5769 19.2549 11.2651 19.014 11.0205C18.7732 10.7758 18.4663 10.6091 18.1322 10.5416C17.7982 10.4741 17.4519 10.5088 17.1372 10.6412C16.8225 10.7736 16.5535 10.9979 16.3643 11.2856C16.1751 11.5733 16.0741 11.9116 16.0741 12.2576V12.8408H14.9259V12.2576C14.9259 11.9116 14.8249 11.5733 14.6357 11.2856C14.4465 10.9979 14.1775 10.7736 13.8628 10.6412C13.5481 10.5088 13.2018 10.4741 12.8678 10.5416C12.5337 10.6091 12.2268 10.7758 11.986 11.0205C11.7451 11.2651 11.5811 11.5769 11.5146 11.9163C11.4482 12.2557 11.4823 12.6075 11.6127 12.9271C11.743 13.2468 11.9637 13.5201 12.2469 13.7123C12.5302 13.9046 12.8631 14.0072 13.2037 14.0072H13.7778V17.5064H11.9575C11.8257 17.5083 11.6975 17.4632 11.5952 17.3789C11.4929 17.2946 11.423 17.1764 11.3977 17.0451C11.3257 16.5988 11.2082 16.1614 11.047 15.7399C10.7605 14.9918 10.35 14.2991 9.83342 13.6917C8.56295 12.1853 7.92424 10.2331 8.05431 8.25376C8.18438 6.27446 9.07288 4.42579 10.5292 3.10434V3.10668ZM20.0925 21.5888C20.0925 21.7434 20.032 21.8918 19.9244 22.0011C19.8167 22.1105 19.6707 22.172 19.5184 22.172H11.4816C11.3293 22.172 11.1833 22.1105 11.0756 22.0011C10.968 21.8918 10.9075 21.7434 10.9075 21.5888C10.9075 21.4341 10.968 21.2857 11.0756 21.1764C11.1833 21.067 11.3293 21.0056 11.4816 21.0056H19.5184C19.6707 21.0056 19.8167 21.067 19.9244 21.1764C20.032 21.2857 20.0925 21.4341 20.0925 21.5888ZM18.2681 23.3383C18.0413 23.8849 17.6533 24.3465 17.1576 24.6598C16.6619 24.9732 16.0828 25.1227 15.5 25.0879C14.9172 25.1227 14.3381 24.9732 13.8424 24.6598C13.3467 24.3465 12.9587 23.8849 12.7319 23.3383H18.2681ZM11.4816 19.8392C11.3293 19.8392 11.1833 19.7777 11.0756 19.6684C10.968 19.559 10.9075 19.4106 10.9075 19.256C10.9075 19.1013 10.968 18.953 11.0756 18.8436C11.1833 18.7342 11.3293 18.6728 11.4816 18.6728H19.5184C19.6707 18.6728 19.8167 18.7342 19.9244 18.8436C20.032 18.953 20.0925 19.1013 20.0925 19.256C20.0925 19.4106 20.032 19.559 19.9244 19.6684C19.8167 19.7777 19.6707 19.8392 19.5184 19.8392H11.4816ZM13.7778 12.8408H13.2037C13.0902 12.8408 12.9792 12.8066 12.8848 12.7425C12.7904 12.6784 12.7168 12.5874 12.6734 12.4808C12.6299 12.3742 12.6186 12.257 12.6407 12.1438C12.6629 12.0307 12.7175 11.9268 12.7978 11.8452C12.8781 11.7637 12.9804 11.7081 13.0918 11.6856C13.2031 11.6631 13.3185 11.6747 13.4234 11.7188C13.5283 11.7629 13.618 11.8377 13.6811 11.9336C13.7441 12.0295 13.7778 12.1423 13.7778 12.2576V12.8408ZM16.0741 17.5064H14.9259V14.0072H16.0741V17.5064ZM17.2222 12.8408V12.2576C17.2222 12.1423 17.2559 12.0295 17.3189 11.9336C17.382 11.8377 17.4717 11.7629 17.5766 11.7188C17.6815 11.6747 17.7969 11.6631 17.9082 11.6856C18.0196 11.7081 18.1219 11.7637 18.2022 11.8452C18.2825 11.9268 18.3371 12.0307 18.3593 12.1438C18.3814 12.257 18.3701 12.3742 18.3266 12.4808C18.2832 12.5874 18.2096 12.6784 18.1152 12.7425C18.0208 12.8066 17.9098 12.8408 17.7963 12.8408H17.2222ZM1.70698 21.1613C1.33972 20.5961 1.14537 19.9332 1.14842 19.256C1.14696 18.6708 1.29087 18.0946 1.56682 17.5809C1.84277 17.0673 2.24185 16.6326 2.72709 16.3172C2.82943 16.2504 2.90821 16.1522 2.95207 16.0369C2.99592 15.9216 3.00257 15.7951 2.97107 15.6757C2.90354 15.4168 2.86976 15.1499 2.87061 14.882C2.86873 14.2459 3.05403 13.6238 3.40274 13.0954C3.75145 12.5671 4.24763 12.1568 4.82759 11.917C4.94433 11.8684 5.04206 11.7821 5.10567 11.6714C5.16928 11.5607 5.19522 11.4318 5.17949 11.3047C5.17085 11.2339 5.16663 11.1626 5.16686 11.0912C5.16615 10.4714 5.32892 9.86269 5.63826 9.32843C5.94759 8.79418 6.39219 8.35388 6.92579 8.05335C6.90742 8.28663 6.88905 8.51991 6.88905 8.75843C6.88954 10.8463 7.62454 12.8653 8.96142 14.451C9.39336 14.9574 9.73647 15.5354 9.97579 16.1598C10.1076 16.5069 10.2038 16.8669 10.2628 17.234C10.2974 17.4469 10.3718 17.651 10.4821 17.8353C10.2838 17.977 10.1176 18.16 9.9945 18.3722C9.87139 18.5844 9.79425 18.8207 9.76823 19.0656C9.7422 19.3105 9.76789 19.5581 9.84358 19.7921C9.91927 20.0261 10.0432 20.2409 10.2071 20.4224C9.98266 20.6724 9.83471 20.9834 9.78137 21.3174C9.72803 21.6514 9.7716 21.994 9.90677 22.3033C10.0419 22.6125 10.2628 22.8751 10.5425 23.0589C10.8222 23.2428 11.1485 23.3398 11.4816 23.3383H11.5418C11.8622 24.9905 13.5126 26.2543 15.5029 26.2543C17.4931 26.2543 19.1407 24.9905 19.4639 23.3383H19.5184C19.8515 23.3398 20.1778 23.2428 20.4575 23.0589C20.7372 22.8751 20.9581 22.6125 21.0932 22.3033C21.2284 21.994 21.272 21.6514 21.2186 21.3174C21.1653 20.9834 21.0173 20.6724 20.7929 20.4224C20.9565 20.2408 21.0802 20.0259 21.1556 19.792C21.2311 19.5581 21.2567 19.3106 21.2306 19.0658C21.2045 18.8211 21.1274 18.5849 21.0044 18.3728C20.8814 18.1607 20.7154 17.9777 20.5173 17.8359C20.6266 17.6527 20.7006 17.45 20.7355 17.2387C20.9146 16.2024 21.3672 15.2349 22.0449 14.4393C23.5277 12.6679 24.2572 10.3706 24.0731 8.05276C24.6066 8.35367 25.0511 8.7941 25.3606 9.32837C25.6701 9.86264 25.8332 10.4713 25.8331 11.0912C25.8334 11.1626 25.8291 11.2339 25.8205 11.3047C25.8048 11.4318 25.8307 11.5607 25.8943 11.6714C25.9579 11.7821 26.0557 11.8684 26.1724 11.917C26.7524 12.1568 27.2486 12.5671 27.5973 13.0954C27.946 13.6238 28.1313 14.2459 28.1294 14.882C28.1302 15.1497 28.0964 15.4164 28.0289 15.6751C27.9974 15.7945 28.0041 15.921 28.0479 16.0363C28.0918 16.1516 28.1706 16.2498 28.2729 16.3167C28.7582 16.6321 29.1574 17.0668 29.4333 17.5806C29.7093 18.0944 29.8531 18.6707 29.8516 19.256C29.8546 19.9332 29.6603 20.5961 29.293 21.1613C29.2298 21.2581 29.1964 21.3718 29.1972 21.488C29.1981 21.6042 29.233 21.7174 29.2976 21.8133C29.7335 22.4594 29.9215 23.2452 29.8263 24.0225C29.7312 24.7997 29.3593 25.5148 28.781 26.0327C28.7019 26.1034 28.6436 26.1949 28.6123 26.297C28.581 26.3991 28.578 26.5081 28.6036 26.6118C28.6694 26.8763 28.703 27.1479 28.7035 27.4207C28.7025 28.3485 28.3394 29.238 27.6936 29.894C27.0479 30.55 26.1723 30.919 25.2591 30.9199C25.008 30.9195 24.7577 30.891 24.5128 30.8348C24.3777 30.8039 24.2362 30.8237 24.1144 30.8905C23.9926 30.9572 23.8986 31.0665 23.8497 31.1981C23.5164 32.0908 22.8857 32.8366 22.0672 33.3058C21.2486 33.7749 20.2941 33.9378 19.3696 33.7661C18.4451 33.5943 17.6091 33.0988 17.007 32.3657C16.4049 31.6326 16.0748 30.7083 16.0741 29.7535V28.0039C16.0741 27.8492 16.0136 27.7009 15.9059 27.5915C15.7983 27.4822 15.6523 27.4207 15.5 27.4207C15.3477 27.4207 15.2017 27.4822 15.0941 27.5915C14.9864 27.7009 14.9259 27.8492 14.9259 28.0039V29.7535C14.9248 30.708 14.5946 31.6319 13.9925 32.3647C13.3904 33.0975 12.5546 33.5928 11.6304 33.7645C10.7062 33.9362 9.75196 33.7735 8.93357 33.3046C8.11518 32.8358 7.48439 32.0904 7.15082 31.1981C7.102 31.0665 7.00801 30.9572 6.88617 30.8905C6.76433 30.8237 6.62285 30.8039 6.48778 30.8348C6.24268 30.891 5.9922 30.9196 5.74092 30.9199C4.8277 30.919 3.95214 30.55 3.30639 29.894C2.66064 29.238 2.29746 28.3485 2.29654 27.4207C2.2963 27.148 2.32907 26.8764 2.39414 26.6118C2.41969 26.5081 2.41666 26.3991 2.38537 26.297C2.35409 26.1949 2.29575 26.1034 2.21675 26.0327C1.63837 25.5148 1.26654 24.7997 1.17136 24.0225C1.07618 23.2452 1.26425 22.4594 1.70009 21.8133C1.76503 21.7177 1.80039 21.6045 1.80161 21.4883C1.80284 21.3722 1.76989 21.2583 1.70698 21.1613Z" fill="white"/>
<path d="M5.16686 24.5047C5.01461 24.5047 4.8686 24.5662 4.76094 24.6755C4.65328 24.7849 4.5928 24.9333 4.5928 25.0879C4.5928 25.2426 4.65328 25.3909 4.76094 25.5003C4.8686 25.6097 5.01461 25.6711 5.16686 25.6711C5.47136 25.6711 5.76339 25.794 5.97871 26.0128C6.19403 26.2315 6.31499 26.5282 6.31499 26.8375C6.31499 26.9922 6.37547 27.1405 6.48313 27.2499C6.59079 27.3593 6.7368 27.4207 6.88905 27.4207C7.0413 27.4207 7.18732 27.3593 7.29498 27.2499C7.40263 27.1405 7.46311 26.9922 7.46311 26.8375C7.46311 26.2188 7.22119 25.6255 6.79056 25.188C6.35993 24.7505 5.77587 24.5047 5.16686 24.5047Z" fill="white"/>
<path d="M9.75937 30.3367C9.91162 30.3367 10.0576 30.2753 10.1653 30.1659C10.2729 30.0565 10.3334 29.9082 10.3334 29.7535C10.3334 29.4442 10.4544 29.1475 10.6697 28.9287C10.885 28.71 11.1771 28.5871 11.4816 28.5871C11.6338 28.5871 11.7798 28.5257 11.8875 28.4163C11.9951 28.3069 12.0556 28.1586 12.0556 28.0039C12.0556 27.8492 11.9951 27.7009 11.8875 27.5915C11.7798 27.4822 11.6338 27.4207 11.4816 27.4207C10.8726 27.4207 10.2885 27.6665 9.85786 28.104C9.42723 28.5415 9.1853 29.1348 9.1853 29.7535C9.1853 29.9082 9.24578 30.0565 9.35344 30.1659C9.4611 30.2753 9.60712 30.3367 9.75937 30.3367Z" fill="white"/>
<path d="M4.01873 18.0896C4.20325 18.0907 4.38474 18.1373 4.54763 18.2253C4.71051 18.3134 4.84992 18.4403 4.95388 18.5952C4.71918 18.9664 4.59389 19.398 4.5928 19.8392C4.5928 19.9938 4.65328 20.1422 4.76094 20.2515C4.86859 20.3609 5.01461 20.4224 5.16686 20.4224C5.31911 20.4224 5.46513 20.3609 5.57278 20.2515C5.68044 20.1422 5.74092 19.9938 5.74092 19.8392C5.74092 19.5298 5.86189 19.2331 6.0772 19.0144C6.29252 18.7957 6.58455 18.6728 6.88905 18.6728C7.0413 18.6728 7.18732 18.6113 7.29497 18.502C7.40263 18.3926 7.46311 18.2442 7.46311 18.0896C7.46311 17.9349 7.40263 17.7866 7.29497 17.6772C7.18732 17.5678 7.0413 17.5064 6.88905 17.5064C6.50924 17.5098 6.13636 17.61 5.80465 17.798C5.59004 17.5261 5.31827 17.3064 5.00925 17.155C4.70023 17.0036 4.3618 16.9244 4.01873 16.9232C3.86648 16.9232 3.72047 16.9846 3.61281 17.094C3.50515 17.2034 3.44467 17.3517 3.44467 17.5064C3.44467 17.661 3.50515 17.8094 3.61281 17.9188C3.72047 18.0281 3.86648 18.0896 4.01873 18.0896Z" fill="white"/>
<path d="M24.1109 27.4207C24.2632 27.4207 24.4092 27.3593 24.5169 27.2499C24.6245 27.1405 24.685 26.9922 24.685 26.8375C24.685 26.5282 24.806 26.2315 25.0213 26.0128C25.2366 25.794 25.5286 25.6711 25.8331 25.6711C25.9854 25.6711 26.1314 25.6097 26.2391 25.5003C26.3467 25.3909 26.4072 25.2426 26.4072 25.0879C26.4072 24.9333 26.3467 24.7849 26.2391 24.6755C26.1314 24.5662 25.9854 24.5047 25.8331 24.5047C25.2241 24.5047 24.6401 24.7505 24.2094 25.188C23.7788 25.6255 23.5369 26.2188 23.5369 26.8375C23.5369 26.9922 23.5974 27.1405 23.705 27.2499C23.8127 27.3593 23.9587 27.4207 24.1109 27.4207Z" fill="white"/>
<path d="M19.5184 28.5871C19.8229 28.5871 20.115 28.71 20.3303 28.9287C20.5456 29.1475 20.6666 29.4442 20.6666 29.7535C20.6666 29.9082 20.7271 30.0565 20.8347 30.1659C20.9424 30.2753 21.0884 30.3367 21.2406 30.3367C21.3929 30.3367 21.5389 30.2753 21.6466 30.1659C21.7542 30.0565 21.8147 29.9082 21.8147 29.7535C21.8147 29.1348 21.5728 28.5415 21.1421 28.104C20.7115 27.6665 20.1274 27.4207 19.5184 27.4207C19.3662 27.4207 19.2202 27.4822 19.1125 27.5915C19.0049 27.7009 18.9444 27.8492 18.9444 28.0039C18.9444 28.1586 19.0049 28.3069 19.1125 28.4163C19.2202 28.5257 19.3662 28.5871 19.5184 28.5871Z" fill="white"/>
<path d="M24.1109 18.6728C24.4155 18.6728 24.7075 18.7957 24.9228 19.0144C25.1381 19.2331 25.2591 19.5298 25.2591 19.8392C25.2591 19.9938 25.3196 20.1422 25.4272 20.2515C25.5349 20.3609 25.6809 20.4224 25.8331 20.4224C25.9854 20.4224 26.1314 20.3609 26.2391 20.2515C26.3467 20.1422 26.4072 19.9938 26.4072 19.8392C26.4061 19.398 26.2808 18.9664 26.0461 18.5952C26.1501 18.4403 26.2895 18.3134 26.4524 18.2253C26.6153 18.1373 26.7968 18.0907 26.9813 18.0896C27.1335 18.0896 27.2795 18.0281 27.3872 17.9188C27.4948 17.8094 27.5553 17.661 27.5553 17.5064C27.5553 17.3517 27.4948 17.2034 27.3872 17.094C27.2795 16.9846 27.1335 16.9232 26.9813 16.9232C26.6382 16.9244 26.2998 17.0036 25.9907 17.155C25.6817 17.3064 25.41 17.5261 25.1954 17.798C24.8636 17.61 24.4908 17.5098 24.1109 17.5064C23.9587 17.5064 23.8127 17.5678 23.705 17.6772C23.5974 17.7866 23.5369 17.9349 23.5369 18.0896C23.5369 18.2442 23.5974 18.3926 23.705 18.502C23.8127 18.6113 23.9587 18.6728 24.1109 18.6728Z" fill="white"/>
</g>
</svg>
