<svg width="32" height="28" viewBox="0 0 32 28" fill="none" xmlns="http://www.w3.org/2000/svg">
<g id="Vector">
<path d="M31.5312 27.0648H29.7253C30.1431 26.4957 30.3152 25.774 30.1821 25.0577C30.1101 24.6713 29.9536 24.316 29.7327 24.0102C30.1287 23.9192 30.5081 23.7402 30.8406 23.4748C31.0288 23.3246 31.1389 23.1003 31.1428 22.86C31.1467 22.6194 31.0439 22.3918 30.8606 22.2355L26.522 18.5362C26.2026 18.2637 25.9631 17.9099 25.8296 17.5125L24.8159 14.4938C24.8157 14.4928 24.8152 14.4918 24.8149 14.4909L23.9021 11.7733C23.4883 10.541 22.499 9.57293 21.2559 9.18359L18.1123 8.19893C18.9658 7.59873 19.5249 6.60847 19.5249 5.4899V3.31385C19.5249 1.48649 18.0342 0 16.2021 0C14.3701 0 12.8794 1.48649 12.8794 3.31385V5.49014C12.8794 6.5571 13.3882 7.50743 14.176 8.11371C14.0945 8.13611 14.0132 8.15973 13.9321 8.18505L10.7441 9.18359C9.50098 9.57293 8.51172 10.541 8.0979 11.7733L6.17017 17.5125C6.03662 17.9099 5.79736 18.2639 5.47803 18.5362L1.1394 22.2357C0.956055 22.392 0.853271 22.6194 0.857178 22.86C0.861084 23.1006 0.971191 23.3246 1.15942 23.4748C1.50708 23.7524 1.90576 23.9355 2.32129 24.0222C1.92896 24.7422 1.85449 25.6202 2.15698 26.4161C2.24878 26.6569 2.36963 26.8739 2.51514 27.065H0.46875C0.209717 27.065 0 27.2742 0 27.5325C0 27.7906 0.209717 28 0.46875 28H31.5312C31.7903 28 32 27.7906 32 27.5325C32 27.2742 31.79 27.0648 31.5312 27.0648ZM20.8635 16.159L22.519 20.2673C22.5283 20.2902 22.5393 20.3124 22.552 20.3336C22.845 20.8201 23.2622 21.223 23.759 21.4994L24.3079 21.8045L20.8635 20.7555V16.159ZM25.9126 19.2469L30.1257 22.8391C29.5608 23.2155 28.8335 23.2488 28.2317 22.9153L24.2156 20.6827C23.8721 20.4918 23.5818 20.2155 23.3743 19.8826L21.8987 16.2206L24.0872 15.2678L24.9407 17.8094C25.1282 18.3674 25.4644 18.8644 25.9126 19.2469ZM13.8169 5.49014V3.31385C13.8169 2.00219 14.887 0.934989 16.2021 0.934989C17.5173 0.934989 18.5874 2.00219 18.5874 3.31385V5.49014C18.5874 6.8018 17.5173 7.869 16.2021 7.869C14.887 7.869 13.8169 6.8018 13.8169 5.49014ZM11.0249 10.0755L14.2131 9.07719C15.3821 8.71098 16.6179 8.71098 17.7869 9.07719L20.9751 10.0755C21.9326 10.3755 22.6946 11.121 23.0132 12.0704L23.7883 14.3779L21.5488 15.3526L20.8296 13.5678C20.7458 13.3601 20.5264 13.2406 20.3057 13.2832C20.0852 13.3258 19.926 13.5184 19.926 13.7421V20.634H12.074V13.7421C12.074 13.5184 11.9148 13.3258 11.6943 13.2832C11.4744 13.2406 11.2542 13.3601 11.1704 13.5678L10.5479 15.1125L8.33569 14.0093L8.98682 12.0704C9.30542 11.121 10.0674 10.3755 11.0249 10.0755ZM6.08716 19.2469C6.53564 18.8644 6.87183 18.3674 7.05908 17.8094L8.03467 14.9046L10.197 15.983L9.8562 16.8286C9.75977 17.0682 9.87622 17.3404 10.1165 17.4368C10.3564 17.533 10.6296 17.4169 10.7261 17.1773L11.1365 16.1592V20.7541L7.75977 21.767L8.24072 21.4994C8.73755 21.2233 9.15503 20.8203 9.448 20.3338C9.46069 20.3126 9.47168 20.2905 9.48096 20.2673L9.8313 19.3976C9.92798 19.158 9.81152 18.8858 9.57129 18.7896C9.33105 18.6932 9.05811 18.8094 8.96143 19.0489L8.62549 19.8826C8.41797 20.2157 8.12793 20.4918 7.78442 20.6827L3.7688 22.915C3.1665 23.2488 2.43945 23.2155 1.87427 22.8391L6.08716 19.2469ZM4.47827 27.0648C3.79712 27.0648 3.27075 26.7076 3.03369 26.0845C2.76562 25.3794 2.94922 24.5481 3.47827 24.0273L11.6741 21.569H20.325L28.1057 23.9386C28.7129 24.1234 29.1445 24.6056 29.2603 25.2281C29.376 25.8507 29.1465 26.4551 28.646 26.8447L28.3635 27.065H18.4646C18.4041 26.7373 18.2581 26.3014 17.9126 25.9136L18.8464 25.8622C19.105 25.8481 19.303 25.6275 19.2886 25.3696C19.2744 25.112 19.0532 24.9148 18.7949 24.9287L16.2544 25.0687C16.147 25.0494 16.0349 25.0334 15.9172 25.0214L8.6875 24.2683C8.42822 24.2413 8.19946 24.4281 8.17261 24.6847C8.14575 24.9416 8.33276 25.1714 8.59009 25.1982L15.8203 25.9513C15.9297 25.9625 16.0325 25.9778 16.1287 25.9963C16.1306 25.9968 16.1328 25.9971 16.1348 25.9976C17.0706 26.1807 17.3997 26.6886 17.5132 27.0648H4.47827Z" fill="white"/>
<path d="M21.251 25.729C21.2595 25.729 21.2683 25.729 21.2771 25.7285L24.4385 25.5544C24.6968 25.5401 24.8948 25.3197 24.8806 25.0618C24.8665 24.804 24.645 24.6063 24.3867 24.6209L21.2256 24.795C20.967 24.8091 20.769 25.0297 20.7832 25.2873C20.7971 25.5364 21.0037 25.729 21.251 25.729Z" fill="white"/>
</g>
</svg>
