<svg width="34" height="33" viewBox="0 0 34 33" fill="none" xmlns="http://www.w3.org/2000/svg">
<path id="Vector" d="M16.1391 19.4861C16.7426 18.8724 17.5141 18.4062 18.3967 18.1579L18.9639 17.9985M21.2451 17.9983L21.811 18.1579C23.9777 18.7667 25.4689 20.6885 25.4689 22.8735C25.4689 23.0276 25.4045 23.1673 25.3002 23.2677C25.1959 23.3688 25.0523 23.4311 24.8933 23.4311H20.9315M18.6779 23.4311H15.6807M21.2447 16.8966V17.9956C21.2447 18.6057 20.7341 19.1004 20.1043 19.1004C19.4741 19.1004 18.9639 18.6057 18.9639 17.9956V16.8966M23.3988 12.5512V10.5446C23.3988 9.56195 22.6969 8.71015 21.7078 8.49234L21.5402 8.45547C21.1232 8.03943 20.5501 7.80465 19.9515 7.80465C18.2162 7.80465 16.8095 9.16743 16.8095 10.8485V12.5513M23.3988 12.5512V13.8606C23.3988 15.6233 21.9237 17.0523 20.1041 17.0523C18.2845 17.0523 16.8095 15.6233 16.8095 13.8606V12.5512L20.956 11.4403C21.3259 11.3411 21.7221 11.4078 22.0359 11.6218L23.3988 12.5512ZM11.1838 17.76V15.2396C11.1838 14.5437 11.7662 13.9795 12.4846 13.9795C13.2031 13.9795 13.7855 14.5437 13.7855 15.2396V17.76M8.68945 21.4146H16.3363M14.0337 2.53856H18.5929V2.53919C26.3812 2.55852 32.7221 8.54467 32.9996 16.0284C33.0106 16.3135 32.7769 16.5518 32.482 16.553L30.8613 16.5599C30.5812 16.5611 30.3514 16.3472 30.3398 16.0765C30.0809 10.0036 24.7851 5.11528 18.4545 5.11528H9.24904V6.14884C9.24904 6.56488 8.75777 6.80191 8.41523 6.55116L5.23899 4.22893C4.96342 4.02746 4.96342 3.62639 5.23899 3.42429L8.41523 1.10269C8.75777 0.85194 9.24904 1.08897 9.24904 1.50501V2.53856H11.7801M23.6145 30.4614H24.751V31.495C24.751 31.911 25.2422 32.1481 25.5848 31.8973L28.761 29.5757C29.0366 29.3736 29.0366 28.9725 28.761 28.7711L25.5848 26.4488C25.2422 26.1981 24.751 26.4351 24.751 26.8512V27.8847H15.5455C9.21492 27.8847 3.91905 22.9964 3.66021 16.9235C3.64862 16.6528 3.41876 16.4389 3.13868 16.4401L1.51804 16.447C1.22315 16.4482 0.989423 16.6865 1.00037 16.9716C1.27788 24.4553 7.61875 30.4415 15.4071 30.4608V30.4614H21.361M15.6808 23.4309H9.31201C8.84218 23.4309 8.47884 23.0317 8.53763 22.5801L9.2435 17.1613C9.29276 16.7833 9.62461 16.4999 10.0179 16.4999H15.1268C15.5281 16.4999 15.864 16.7947 15.9035 17.1814L16.4575 22.6002C16.503 23.0452 16.1423 23.4309 15.6808 23.4309Z" stroke="white" stroke-miterlimit="10" stroke-linecap="round" stroke-linejoin="round"/>
</svg>
