<svg width="28" height="32" viewBox="0 0 28 32" fill="none" xmlns="http://www.w3.org/2000/svg">
<path d="M13.1938 27.5161H2.76357C1.8062 27.5161 1 26.7419 1 25.8226V5.30645M1 5.30645H3.72093C4.6783 5.30645 5.4845 4.53226 5.4845 3.6129V1M1 5.30645L5.4845 1M5.4845 1H18.7868C19.7442 1 20.5504 1.77419 20.5504 2.69355V17.2581M27 24.8548C27 28.2487 24.135 31 20.6008 31M27 24.8548C27 21.461 24.135 18.7097 20.6008 18.7097C17.0666 18.7097 14.2016 21.461 14.2016 24.8548C14.2016 28.2487 17.0666 31 20.6008 31M27 24.8548H25.2364M20.6008 31L20.6008 29.3065M20.6008 18.6613V20.3548M15.9147 24.8548H14.1512M25.1357 20.5L24.3295 21.2258M16.8217 28.4355L16.0659 29.2097M25.1357 29.2097L24.3295 28.4355M16.8217 21.2258L16.0659 20.5M20.6008 22.6774V24.8548L22.8682 27.0323M5.13178 7.72581L6.03876 8.59677L8.60853 6.08065M10.2209 6.66129H16.469M10.2209 7.96774H13.345M5.13178 13.0484L6.03876 13.9194L8.60853 11.4032M10.2209 11.9839H16.469M10.2209 13.3387H13.345M5.13178 18.4194L6.03876 19.2903L8.60853 16.7742M10.2209 17.3548H16.469M10.2209 18.6613H13.345" stroke="white" stroke-miterlimit="10" stroke-linecap="round" stroke-linejoin="round"/>
</svg>
