<svg width="26" height="26" viewBox="0 0 26 26" fill="none" xmlns="http://www.w3.org/2000/svg">
<g id="Vector">
<path d="M0.638519 16.2028C0.780988 16.3017 0.931435 16.3887 1.08831 16.4628C1.2755 16.5585 1.58966 16.7189 1.61176 16.8311C1.639 16.9792 1.62118 17.1322 1.56063 17.2701C1.49606 17.4087 1.42847 17.5279 1.36997 17.6306C1.21137 17.911 0.945745 18.3807 1.34613 18.7079C1.43973 18.7945 1.60136 18.9198 1.74869 19.0329C1.64023 19.2225 1.59117 19.4403 1.60786 19.6582C1.63085 19.8297 1.72388 19.9841 1.86482 20.0846C1.96102 20.1522 2.06372 20.2111 2.16468 20.2687C2.42121 20.4143 2.5213 20.4824 2.55467 20.6184C2.57875 20.7928 2.56395 20.9704 2.51134 21.1384C2.48577 21.2541 2.46107 21.3703 2.44634 21.4851C2.40331 21.88 2.4521 22.2795 2.5889 22.6525C2.78382 23.341 3.40656 23.8207 4.122 23.8333C4.24142 23.833 4.36048 23.8203 4.47732 23.7956C5.71523 23.5022 6.93506 23.1371 8.13066 22.7023C9.10694 23.2752 9.72355 25.0172 9.88432 25.6711C9.93232 25.8644 10.1059 26.0001 10.3051 26L21.1815 25.9697C21.3193 25.9694 21.4488 25.9036 21.5302 25.7924C21.6117 25.6812 21.6353 25.5378 21.594 25.4063C21.4868 25.1127 21.3391 24.8356 21.155 24.583C21.0511 24.4332 20.9575 24.2766 20.8747 24.1141C20.6784 23.717 20.5148 23.3046 20.3854 22.8809C20.138 22.0437 19.9664 21.186 19.8728 20.3181C19.7597 19.3144 19.8556 18.2982 20.1545 17.3333H21.2335C21.9514 17.3333 22.5334 16.7513 22.5334 16.0333V10.4C22.5334 10.1607 22.3394 9.96667 22.1001 9.96667H20.3512C20.3614 9.89489 20.3666 9.8225 20.3668 9.75C20.3668 8.91237 19.6878 8.23333 18.8502 8.23333C18.0126 8.23333 17.3336 8.91237 17.3336 9.75C17.3338 9.8225 17.339 9.89489 17.3492 9.96667H16.0336V8.6515C16.273 8.6856 16.5171 8.66259 16.746 8.58433C17.2407 8.41585 17.6125 8.0028 17.7283 7.4932C17.8417 7.00517 17.7068 6.49262 17.3678 6.1237C17.0288 5.75478 16.5294 5.5771 16.0336 5.64893V3.9C16.0336 3.66068 15.8396 3.46667 15.6003 3.46667H9.96708C9.24913 3.46667 8.66711 4.0487 8.66711 4.76667V16.0333C8.66711 16.7513 9.24913 17.3333 9.96708 17.3333H19.2445C18.9718 18.3392 18.8934 19.3878 19.0135 20.423C19.1135 21.3432 19.2959 22.2525 19.5587 23.14C19.7013 23.6058 19.8811 24.0594 20.0964 24.4963C20.1953 24.6926 20.3075 24.8818 20.4322 25.0627L20.4613 25.106L10.6327 25.1333C10.345 24.1054 9.8229 23.1582 9.10737 22.3661L9.49736 22.2296C9.78768 22.1282 10.0065 22.0519 10.1187 22.0159C11.9751 21.4288 12.9033 20.5833 12.8781 19.5026C12.8725 19.2633 12.674 19.0738 12.4346 19.0795C12.1953 19.0851 12.0059 19.2836 12.0115 19.523C12.0219 19.9689 11.6566 20.6193 9.85528 21.1891C9.73785 21.2268 9.51166 21.3057 9.21137 21.4106C8.88941 21.5232 8.47992 21.6662 8.0284 21.8196H8.02536C6.80591 22.2666 5.56164 22.6428 4.29879 22.9463C3.89556 23.0229 3.50357 22.7682 3.40961 22.3687C3.31704 22.1221 3.28221 21.8577 3.30778 21.5956C3.31905 21.5046 3.33985 21.4145 3.35978 21.3239C3.44808 21.0243 3.46103 20.7076 3.39748 20.4018C3.27145 20.0037 2.97855 19.6801 2.59497 19.5152L2.50527 19.464C2.55206 19.3696 2.60793 19.2799 2.6721 19.1962C2.74479 19.1041 2.77703 18.9865 2.76143 18.8702C2.74583 18.7539 2.68373 18.6489 2.58934 18.5792C2.48534 18.5029 2.24008 18.3192 2.06068 18.1744C2.08148 18.1367 2.10402 18.0951 2.12568 18.0574C2.19371 17.9383 2.27128 17.7996 2.34711 17.6393C2.48423 17.3355 2.52462 16.997 2.46281 16.6695C2.35881 16.1408 1.85225 15.8817 1.48306 15.6927C1.3584 15.6335 1.23883 15.5641 1.12557 15.4852C1.03344 15.4229 0.94701 15.3526 0.867314 15.275C0.867314 15.2091 0.937945 15.0497 1.26814 14.648C2.04425 13.6488 2.70968 12.5684 3.25275 11.4257C3.3543 11.2467 3.4115 11.0459 3.41958 10.8403C3.37482 10.4047 3.14401 10.0097 2.7865 9.75693C2.61317 9.59617 2.44634 9.4445 2.42684 9.30323C2.42972 9.20096 2.45268 9.10024 2.49444 9.00683C2.56507 8.82093 2.64653 8.63893 2.72843 8.4565C2.90612 8.09012 3.04804 7.70744 3.15222 7.3138L3.19555 7.1292C3.28702 6.69598 3.40496 6.26878 3.54871 5.85C3.8903 4.90718 4.41917 4.04325 5.10347 3.31023C5.93242 2.43317 7.23715 1.81263 8.98777 1.46467C10.3264 1.17073 11.6847 0.975064 13.0519 0.879233C15.0263 0.780602 16.981 1.31219 18.6335 2.3972V2.81667C18.6335 2.9808 18.7263 3.13085 18.8731 3.20425C19.0199 3.27766 19.1955 3.26181 19.3268 3.16333C19.61 2.96355 19.9989 3.01341 20.2225 3.27817C20.3485 3.43561 20.3947 3.64238 20.3477 3.83847C20.2969 4.05184 20.1407 4.22453 19.9335 4.2965C19.7276 4.36903 19.4991 4.33408 19.3242 4.20333C19.193 4.10639 19.0183 4.09143 18.8725 4.16464C18.7266 4.23785 18.6343 4.3868 18.6335 4.55V6.5C18.6335 6.97865 19.0215 7.36667 19.5002 7.36667H21.4501C21.6142 7.36667 21.7643 7.27393 21.8377 7.12713C21.9111 6.98032 21.8953 6.80464 21.7968 6.67333C21.5957 6.40517 21.6314 6.02805 21.8794 5.8025C22.1274 5.57695 22.5062 5.57695 22.7541 5.8025C23.0021 6.02805 23.0379 6.40517 22.8368 6.67333C22.7383 6.80464 22.7224 6.98032 22.7958 7.12713C22.8692 7.27393 23.0193 7.36667 23.1834 7.36667H25.5667C25.806 7.36667 26 7.17266 26 6.93333V1.3C26 0.58203 25.418 0 24.7 0H19.0668C18.8275 0 18.6335 0.19401 18.6335 0.433333V1.35937C16.9262 0.380735 14.9735 -0.0864613 13.0081 0.0134333C11.5981 0.111232 10.1972 0.312259 8.81661 0.6149C6.86276 1.0049 5.44276 1.69 4.47342 2.7144C3.70879 3.53261 3.11758 4.49705 2.73537 5.5497C2.57931 6.00266 2.4511 6.46473 2.35144 6.93333L2.30811 7.1162C2.21563 7.45607 2.09159 7.78655 1.93762 8.10333C1.85096 8.30093 1.76082 8.49853 1.68326 8.70307C1.58353 8.93074 1.54413 9.18027 1.56886 9.4276C1.65605 9.81595 1.88018 10.1599 2.20021 10.3965C2.41211 10.5907 2.5512 10.7276 2.55294 10.8468C2.53743 10.9126 2.51263 10.976 2.47927 11.0348C1.96036 12.1274 1.32473 13.1605 0.583488 14.1163C0.269329 14.4985 -0.0599959 14.9444 0.00933562 15.3907C0.101252 15.735 0.328068 16.0278 0.638519 16.2028ZM9.53376 4.76667C9.53376 4.52734 9.72776 4.33333 9.96708 4.33333H15.1669V6.28333C15.1669 6.44747 15.2597 6.59752 15.4065 6.67092C15.5533 6.74432 15.729 6.72848 15.8603 6.63C16.1434 6.43021 16.5323 6.48007 16.7559 6.74483C16.8819 6.90228 16.9281 7.10905 16.8812 7.30513C16.8303 7.51851 16.6741 7.6912 16.4669 7.76317C16.2603 7.83567 16.0312 7.80005 15.8564 7.66827C15.7248 7.5719 15.5504 7.55753 15.4048 7.63107C15.2593 7.70461 15.1674 7.85361 15.1669 8.01667V9.96667H13.8522C13.8858 9.72747 13.8627 9.48373 13.7846 9.25513C13.6166 8.7601 13.2037 8.38772 12.694 8.27147C12.2431 8.16659 11.7691 8.27334 11.4067 8.56136C11.0443 8.84937 10.8333 9.28711 10.8337 9.75C10.8339 9.8225 10.8391 9.89489 10.8493 9.96667H9.53376V4.76667ZM9.53376 16.0333V10.8333H11.4837C11.6478 10.8333 11.7979 10.7406 11.8713 10.5938C11.9447 10.447 11.9288 10.2713 11.8304 10.14C11.6209 9.85916 11.6717 9.46281 11.9452 9.24387C12.1028 9.118 12.3098 9.07194 12.5059 9.11907C12.7194 9.16962 12.892 9.32595 12.9635 9.53333C13.0365 9.73979 13.0007 9.96913 12.8682 10.1435C12.7715 10.2751 12.757 10.4498 12.8307 10.5955C12.9044 10.7413 13.0537 10.8332 13.217 10.8333H15.1669V12.1489C14.579 12.0639 13.9956 12.33 13.6743 12.8297C13.353 13.3294 13.353 13.9706 13.6743 14.4703C13.9956 14.97 14.579 15.2361 15.1669 15.1511V16.4667H9.96708C9.72776 16.4667 9.53376 16.2727 9.53376 16.0333ZM15.7931 14.1267C15.6455 14.0543 15.4698 14.071 15.3385 14.17C15.0704 14.3711 14.6933 14.3353 14.4677 14.0874C14.2422 13.8394 14.2422 13.4606 14.4677 13.2126C14.6933 12.9647 15.0704 12.9289 15.3385 13.13C15.4698 13.2285 15.6455 13.2443 15.7923 13.1709C15.9391 13.0975 16.0319 12.9475 16.0319 12.7833V10.8333H17.9818C18.1459 10.8333 18.296 10.7406 18.3694 10.5938C18.4428 10.447 18.4269 10.2713 18.3285 10.14C18.1273 9.87184 18.1631 9.49471 18.4111 9.26916C18.659 9.04361 19.0379 9.04361 19.2858 9.26916C19.5338 9.49471 19.5696 9.87184 19.3684 10.14C19.27 10.2713 19.2541 10.447 19.3275 10.5938C19.4009 10.7406 19.551 10.8333 19.7151 10.8333H21.6668V16.0333C21.6668 16.2727 21.4728 16.4667 21.2335 16.4667H16.0336V14.5167C16.0343 14.3514 15.9411 14.2002 15.7931 14.1267ZM19.5002 0.866667H24.7C24.9394 0.866667 25.1334 1.06068 25.1334 1.3V6.5H23.8178C23.828 6.42822 23.8332 6.35583 23.8334 6.28333C23.8334 5.4457 23.1544 4.76667 22.3168 4.76667C21.4792 4.76667 20.8001 5.4457 20.8001 6.28333C20.8003 6.35583 20.8056 6.42822 20.8157 6.5H19.5002V5.18483C19.7396 5.21895 19.9837 5.19593 20.2126 5.11767C20.7072 4.94919 21.0791 4.53614 21.1949 4.02653C21.3083 3.5385 21.1733 3.02596 20.8343 2.65704C20.4953 2.28812 19.996 2.11043 19.5002 2.18227V0.866667Z" fill="white"/>
<path d="M4.83915 7.70943L4.88248 7.52137C4.95938 7.15918 5.05689 6.80167 5.17454 6.4506C5.43521 5.72632 5.84083 5.06281 6.36661 4.5006C6.70382 4.16148 7.10425 3.89177 7.54524 3.70673C7.69139 3.6466 7.79321 3.51166 7.81095 3.35461C7.82868 3.19757 7.75951 3.04333 7.63044 2.95211C7.50138 2.8609 7.3329 2.84719 7.19078 2.91633C6.64548 3.14728 6.15114 3.48363 5.73612 3.90607C5.12936 4.55371 4.6612 5.31841 4.36032 6.15333C4.22957 6.53826 4.12148 6.93052 4.03663 7.3281L3.9933 7.51877C3.96743 7.63113 3.9874 7.74917 4.0488 7.84677C4.11021 7.94436 4.20797 8.01346 4.32046 8.03877C4.35187 8.04598 4.38399 8.04961 4.41622 8.0496C4.61954 8.04948 4.79543 7.908 4.83915 7.70943Z" fill="white"/>
<path d="M3.90057 9.53333C4.13989 9.53333 4.33389 9.33932 4.33389 9.1C4.33389 8.86068 4.13989 8.66667 3.90057 8.66667C3.66125 8.66667 3.46725 8.86068 3.46725 9.1C3.46725 9.33932 3.66125 9.53333 3.90057 9.53333Z" fill="white"/>
</g>
</svg>
