<svg width="32" height="29" viewBox="0 0 32 29" fill="none" xmlns="http://www.w3.org/2000/svg">
<path id="Vector" d="M28.154 4.9846C29.8462 5.87298 31 7.64323 31 9.68213C31 11.392 30.1885 12.913 28.9285 13.8833M26.0457 16.7782C26.1212 17.1342 26.161 17.5034 26.161 17.8819C26.161 20.8122 23.7779 23.1877 20.8381 23.1877C20.5929 23.1877 20.3514 23.1711 20.115 23.1391M16.0865 4.28718C16.7676 3.18317 17.9908 2.44702 19.3864 2.44702C20.6078 2.44702 21.6971 3.01091 22.4066 3.89164M21.2989 2.81502C22.0087 1.99866 23.0566 1.48236 24.2254 1.48236C26.3634 1.48236 28.0966 3.20996 28.0966 5.34103C28.0966 5.80896 28.0131 6.25732 27.8601 6.6723M28.5265 13.0244C28.8682 13.5996 29.0644 14.2709 29.0644 14.9879C29.0644 16.7833 27.8342 18.2924 26.1681 18.7232M21.3049 23.2822C21.3162 23.41 21.322 23.5393 21.322 23.67C21.322 25.7244 19.8901 27.4456 17.9669 27.8961M15.9992 6.30597L16.0004 4.1297H15.9979C14.2895 2.023 11.5849 0.752258 8.59531 1.04058C4.11342 1.47289 0.778171 5.4854 1.01153 9.96765C1.45314 18.449 11.8224 25.8086 15.0495 27.8999C15.4596 28.1656 15.9991 27.8713 15.9991 27.3838V8.23512M18.9025 18.8466C17.299 18.8466 15.9991 17.5509 15.9991 15.9525M23.8927 11.4005C22.2892 11.4005 20.9893 10.1048 20.9893 8.50641M21.5758 13.3298C21.33 12.4294 21.539 11.5125 22.0634 10.8217" stroke="white" stroke-miterlimit="10" stroke-linecap="round" stroke-linejoin="round"/>
</svg>
