<svg width="31" height="30" viewBox="0 0 31 30" fill="none" xmlns="http://www.w3.org/2000/svg">
<g id="Vector">
<path d="M0.0137106 19.331L0.215479 21.4236C0.252955 21.8123 0.36503 22.1845 0.548517 22.5298C2.59835 26.387 3.18192 27.4654 3.36393 27.7855L3.37582 29.9638L4.13404 29.9599L4.13566 27.6825C4.13524 27.6055 4.1115 27.5308 4.06786 27.4678C4.04392 27.4284 2.5196 24.5964 1.23179 22.1731C1.0954 21.9164 1.01211 21.6397 0.984279 21.3508L0.782454 19.2582C0.760438 19.0299 0.774156 18.8006 0.823257 18.5763L2.01063 13.1572C2.06739 12.8983 2.1692 12.6541 2.31331 12.4313L5.01779 8.25838C5.30927 7.80874 5.91697 7.67553 6.37252 7.96161C6.59578 8.10185 7.03792 8.5479 6.67332 9.31385L3.94034 13.5207C3.90025 13.5823 3.87891 13.6542 3.87884 13.7276L3.8813 21.2288H4.67321L4.67631 15.3657C4.67371 14.6842 5.16598 14.1697 5.92335 14.1251C6.33364 14.1329 7.1306 14.3717 7.17 15.3564L7.18833 20.1993C7.18904 20.3894 7.33041 20.5502 7.52031 20.5768C9.33047 20.831 10.2843 22.7499 10.291 24.514C10.2955 25.7111 10.0589 26.2961 9.31739 26.9218C9.23123 26.9946 9.18157 27.1011 9.18157 27.2133V30H9.95382V27.3856C10.8792 26.5415 11.0676 25.6529 11.0633 24.5112C11.0558 22.5234 9.98893 20.3635 7.95939 19.8812L7.94227 15.3536C7.94028 14.819 7.68921 14.1139 7.02607 13.6889C6.52589 13.3695 5.67752 13.1177 4.69535 13.7724L7.32257 9.7283C7.57794 9.33531 7.9925 8.16814 6.78584 7.315C5.97305 6.80434 4.88836 7.04191 4.3681 7.84471L1.66339 12.0179C1.4693 12.3179 1.33231 12.6465 1.25599 12.9947L0.0685686 18.4139C0.00254793 18.7155 -0.0159299 19.0241 0.0137106 19.331Z" fill="white"/>
<path d="M30.9314 18.4139L29.744 12.9947C29.6677 12.6465 29.5307 12.318 29.3366 12.0179L26.6319 7.8447C26.1116 7.04191 25.027 6.80433 24.2142 7.31498C23.8157 7.56519 23.5404 7.95443 23.4389 8.41088C23.3374 8.86741 23.4221 9.3353 23.6774 9.72829L26.3047 13.7723C25.9561 13.5065 25.5318 13.3613 25.0844 13.3597C25.0818 13.3597 25.0792 13.3597 25.0766 13.3597C24.5402 13.3597 24.0354 13.5658 23.6545 13.9406C23.2717 14.3171 23.0598 14.8189 23.0577 15.3536L23.0406 19.8812C21.0111 20.3635 19.9443 22.5234 19.9368 24.5112C19.9325 25.6529 20.1209 26.5415 21.0462 27.3856V30H21.8184V27.2133C21.8184 27.1011 21.7688 26.9945 21.6826 26.9218C20.9411 26.2961 20.7045 25.7111 20.709 24.514C20.7157 22.7499 21.6695 20.831 23.4797 20.5768C23.6696 20.5502 23.811 20.3894 23.8117 20.1993L23.83 15.3564C23.8694 14.3717 24.6664 14.1329 25.0767 14.1251C25.834 14.1696 26.3263 14.6842 26.3237 15.3657L26.3244 21.2288L27.1247 21.2204L27.1212 13.7276C27.1211 13.6542 27.0998 13.5823 27.0597 13.5207L24.3267 9.31384C23.9621 8.54789 24.4042 8.10184 24.6275 7.9616C25.083 7.67551 25.6907 7.80872 25.9822 8.25837L28.6867 12.4313C28.8308 12.6541 28.9326 12.8983 28.9894 13.1572L30.1767 18.5763C30.2258 18.8006 30.2396 19.0299 30.2176 19.2582L30.0157 21.3508C29.9879 21.6397 29.9046 21.9164 29.7682 22.1731C28.4804 24.5964 26.9561 27.4283 26.9322 27.4678C26.8885 27.5308 26.8648 27.6055 26.8644 27.6825L26.8938 29.9482L27.666 29.9521L27.6361 27.7855C27.8181 27.4653 28.4017 26.387 30.4515 22.5298C30.635 22.1844 30.747 21.8123 30.7845 21.4236L30.9863 19.331C31.0159 19.0241 30.9974 18.7155 30.9314 18.4139Z" fill="white"/>
<path d="M20.2334 14.0641C20.5395 14.2637 21.27 14.5922 22.059 14.1987C22.9966 13.7653 23.4036 12.6567 22.9665 11.7273L20.0461 5.51947L20.0552 0.00239396L19.2829 0L19.2736 5.60251C19.2734 5.6588 19.2857 5.71443 19.3097 5.76548L22.2665 12.0509C22.5238 12.5976 22.3073 13.3061 21.7327 13.505C20.8477 13.8113 20.436 13.297 20.2618 12.9676C20.2618 12.9676 19.1412 10.7242 19.1381 10.7187C19.1381 10.7187 19.0181 10.3621 18.6921 10.4232C18.2858 10.4771 17.8829 10.4331 17.4945 10.2931C16.1835 9.82004 15.5051 8.37801 15.9823 7.07856L15.2566 6.81676C14.6338 8.51279 15.5192 10.395 17.2304 11.0124C17.6433 11.1613 18.0842 11.2274 18.5205 11.2064L19.4621 13.0917L19.4568 18.6456C19.4568 19.1604 19.001 19.5793 18.4409 19.5793C17.9273 19.5793 17.5025 19.2269 17.4352 18.7716L17.4249 12.9522H16.6526L16.6666 19.7578C16.6666 20.2052 16.2693 20.5692 15.7809 20.5692C15.2926 20.5692 14.8953 20.2052 14.8953 19.7569L14.8825 12.9291L14.1102 12.9306L14.1211 18.3551C14.1211 18.8025 13.7238 19.1665 13.2354 19.1665C12.7471 19.1665 12.3498 18.8025 12.3498 18.3539L12.3564 12.9448L11.5477 12.9698L11.5509 15.966C11.5509 16.4134 11.1535 16.7774 10.6652 16.7774C10.1768 16.7774 9.77955 16.4134 9.77955 15.9657L9.77427 6.12442C9.77427 3.38571 12.1946 3.33734 12.2963 3.3366H16.6437V2.57111H12.2963C12.2879 2.57111 12.0715 2.57385 11.7534 2.63515V0.00943646H10.9812V2.86584C10.0633 3.24692 9.00201 4.12067 9.00201 6.12466L9.00729 15.966C9.00729 16.8354 9.751 17.5429 10.6652 17.5429C11.0008 17.5429 11.3129 17.4468 11.5743 17.2831L11.5776 18.3551C11.5776 19.2245 12.3213 19.9319 13.2354 19.9319C13.562 19.9319 13.8659 19.8404 14.1229 19.6847C14.1229 19.6847 14.0278 21.206 15.7809 21.3346C16.5956 21.3346 17.2734 20.7724 17.4116 20.0338C17.7029 20.2293 18.0579 20.3447 18.4409 20.3447C19.4269 20.3447 20.229 19.5825 20.229 18.6459L20.2334 14.0641Z" fill="white"/>
</g>
</svg>
