<svg width="29" height="29" viewBox="0 0 29 29" fill="none" xmlns="http://www.w3.org/2000/svg">
<g id="Vector">
<path d="M0.712066 18.0726C0.871101 18.1828 1.03889 18.2798 1.21375 18.3626C1.42302 18.4694 1.77294 18.6482 1.79759 18.7739C1.82835 18.9389 1.80864 19.1094 1.74104 19.263C1.66903 19.4177 1.59315 19.5506 1.52838 19.6656C1.35101 19.9778 1.05522 20.5013 1.5018 20.8667C1.6062 20.9633 1.78647 21.103 1.95128 21.2292C1.83017 21.4406 1.77529 21.6836 1.79372 21.9266C1.81911 22.1168 1.92173 22.2881 2.07743 22.4002C2.18618 22.4776 2.30265 22.5452 2.41575 22.6105C2.69994 22.7724 2.8111 22.8478 2.85073 22.9971C2.87673 23.1938 2.85857 23.3937 2.79757 23.5825C2.76905 23.7081 2.7415 23.8333 2.72362 23.9619C2.67572 24.4027 2.73166 24.8486 2.88698 25.2639C3.10389 26.0336 3.79988 26.5698 4.59937 26.5834C4.73205 26.5829 4.86435 26.569 4.99423 26.5418C6.37498 26.2146 7.73554 25.8074 9.06906 25.3224C10.1575 25.9614 10.8457 27.9043 11.025 28.6336C11.0788 28.8491 11.2723 29.0002 11.4943 29L23.6255 28.9662C23.7793 28.9659 23.9237 28.8924 24.0145 28.7684C24.1054 28.6444 24.1318 28.4845 24.0857 28.3379C23.9661 28.0104 23.8013 27.7013 23.5961 27.4195C23.48 27.2528 23.3753 27.0784 23.2829 26.8976C23.0643 26.4543 22.8818 25.9941 22.7372 25.5215C22.4615 24.5874 22.2702 23.6305 22.1654 22.6622C21.9958 21.2162 22.215 19.7511 22.8005 18.4182C23.1578 17.6789 23.5982 16.9828 24.1132 16.3433C24.4032 15.9518 24.7043 15.5463 24.9745 15.1205C25.439 14.3988 25.7758 13.6026 25.9701 12.7667C26.0257 12.5086 25.864 12.2537 25.6069 12.1941C25.3497 12.1344 25.0923 12.2921 25.0286 12.5482C24.8587 13.2778 24.5644 13.9726 24.1586 14.6023C23.9078 14.9991 23.6178 15.3897 23.337 15.7676C22.7777 16.4655 22.3005 17.2252 21.9146 18.032C21.2601 19.5228 21.0155 21.1613 21.2061 22.7782C21.3175 23.8051 21.5215 24.8199 21.8155 25.8101C21.9743 26.33 22.1749 26.8363 22.4153 27.3238C22.5255 27.5417 22.6507 27.7516 22.7899 27.9522L22.8223 28.0005L11.8597 28.0334C11.5385 26.8869 10.956 25.8304 10.158 24.9469L10.593 24.7956C10.9177 24.682 11.1628 24.5965 11.2894 24.5539C13.359 23.8942 14.3942 22.9517 14.3657 21.7507C14.3644 21.6224 14.3112 21.5001 14.2182 21.4117C14.1252 21.3233 14.0004 21.2763 13.8722 21.2814C13.6055 21.2877 13.3943 21.509 13.4005 21.7758C13.4121 22.2702 13.0047 22.9942 10.9956 23.6342C10.8641 23.6762 10.6089 23.7647 10.2749 23.8821C9.91583 24.0073 9.46055 24.1668 8.9579 24.3374H8.95452C7.5953 24.8358 6.20846 25.2554 4.80091 25.594C4.35073 25.6787 3.91313 25.3959 3.80528 24.9507C3.70133 24.6779 3.66052 24.3851 3.6859 24.0943C3.69992 23.9976 3.72263 23.8961 3.74487 23.7975C3.84772 23.4602 3.86434 23.1024 3.7932 22.7569C3.65283 22.3143 3.32732 21.9544 2.901 21.7705L2.79709 21.711C2.84918 21.6052 2.91168 21.5048 2.98364 21.4114C3.06462 21.3085 3.10041 21.1772 3.08283 21.0475C3.06525 20.9178 2.9958 20.8007 2.89037 20.7231C2.77485 20.6381 2.50371 20.4331 2.30072 20.2717C2.32392 20.2297 2.34905 20.1833 2.3737 20.1417C2.44958 20.0083 2.53658 19.8517 2.62068 19.6743C2.77384 19.3358 2.81874 18.9582 2.74924 18.5931C2.63373 18.0035 2.06873 17.7144 1.65646 17.5037C1.51757 17.4376 1.38436 17.3602 1.25821 17.2722C1.15464 17.2028 1.05758 17.1242 0.968222 17.0373C0.968222 16.9638 1.047 16.7865 1.41481 16.3384C2.27966 15.2241 3.02105 14.0192 3.62597 12.7449C3.73953 12.5452 3.8035 12.3211 3.81253 12.0915C3.76191 11.6052 3.50336 11.1646 3.10351 10.8832C2.90776 10.7034 2.72266 10.5342 2.70187 10.3916C2.7063 10.2732 2.73286 10.1567 2.78017 10.048C2.85895 9.84114 2.9503 9.63814 3.04116 9.43466C3.24497 9.01486 3.40686 8.57597 3.52447 8.12438C3.63523 7.58271 3.78052 7.04867 3.95946 6.52555C4.3404 5.47394 4.9303 4.51034 5.69359 3.6928C6.61769 2.71408 8.07247 2.02196 10.0251 1.63434C11.5186 1.30642 13.0341 1.08803 14.5595 0.980888C15.0728 0.954439 15.5872 0.965423 16.0989 1.01375C16.2712 1.02981 16.439 0.952715 16.5391 0.811503C16.6391 0.670291 16.6563 0.486418 16.584 0.329148C16.5118 0.171877 16.3611 0.0651023 16.1888 0.0490436C15.6303 -0.00212975 15.0688 -0.0132746 14.5088 0.0156945C12.9363 0.124807 11.3739 0.349024 9.83415 0.686545C7.65488 1.12153 6.07106 1.88567 4.99037 3.02824C4.13699 3.94052 3.47736 5.0163 3.05131 6.19061C2.85544 6.76208 2.69643 7.34551 2.57524 7.93733C2.47195 8.31687 2.3331 8.68583 2.16056 9.03931C2.0639 9.25922 1.96433 9.47913 1.87734 9.70774C1.76734 9.96328 1.72218 10.242 1.74588 10.5192C1.84585 10.9507 2.09661 11.3322 2.45297 11.5951C2.68979 11.8121 2.8459 11.9649 2.84783 12.0982C2.83024 12.1716 2.80259 12.2422 2.76567 12.308C2.18702 13.5267 1.47788 14.6791 0.650685 15.7449C0.300765 16.1717 -0.0665544 16.669 0.0102927 17.1668C0.113212 17.5507 0.366088 17.8771 0.712066 18.0726Z" fill="white"/>
<path d="M5.77092 7.19689C6.06198 6.38997 6.51307 5.65018 7.09714 5.02194C7.7414 4.33997 8.85544 3.8378 10.4088 3.52896C10.6707 3.47704 10.8409 3.22267 10.7889 2.96081C10.737 2.69895 10.4827 2.52876 10.2208 2.58068C8.46685 2.92964 7.17978 3.52703 6.39488 4.35641C5.72045 5.08028 5.1996 5.93325 4.86374 6.86388C4.70104 7.34672 4.56852 7.8392 4.46694 8.33849L5.41085 8.54777C5.50349 8.09062 5.62373 7.6395 5.77092 7.19689Z" fill="white"/>
<path d="M15.8823 2.70731L15.5924 4.15341C15.3128 4.24521 15.0407 4.35832 14.7785 4.49173L13.5513 3.67009C13.1679 3.41899 12.6608 3.47167 12.3372 3.79624L11.5349 4.59807C11.204 4.92298 11.1504 5.43715 11.4073 5.82329L12.2251 7.04464C12.0917 7.30689 11.9786 7.579 11.8868 7.85855L10.4426 8.14855C9.99139 8.2397 9.66704 8.63645 9.66741 9.09682V10.2375C9.66708 10.6971 9.9904 11.0933 10.4407 11.1853L11.8868 11.4752C11.9786 11.7548 12.0917 12.0269 12.2251 12.2892L11.4035 13.5163C11.1524 13.8997 11.2051 14.4068 11.5296 14.7304L12.3319 15.5327C12.6574 15.8622 13.1704 15.9154 13.5566 15.6598L14.778 14.8421C15.0402 14.9755 15.3123 15.0886 15.5919 15.1804L15.8819 16.6246C15.9728 17.076 16.3696 17.4006 16.8301 17.4003H17.9708C18.4303 17.4006 18.8266 17.0773 18.9185 16.627L19.2085 15.1809C19.4881 15.0891 19.7602 14.976 20.0224 14.8425L21.2496 15.6642C21.633 15.9153 22.14 15.8626 22.4636 15.538L23.2655 14.7362C23.5964 14.4113 23.65 13.8971 23.3931 13.511L22.5753 12.2896C22.7087 12.0274 22.8218 11.7553 22.9136 11.4757L24.3578 11.1857C24.6446 11.1277 24.8895 10.9424 25.0233 10.6821L25.7516 11.1703C25.8922 11.2588 26.0548 11.3059 26.2209 11.3061C26.4526 11.3061 26.6748 11.2138 26.8381 11.0494L27.4809 10.4066C27.7733 10.1128 27.8202 9.65454 27.5935 9.30755L26.9701 8.37474C27.0605 8.19297 27.1387 8.00534 27.204 7.81312L28.2977 7.59514C28.707 7.51475 29.0016 7.15526 29 6.73821V5.82957C29.0015 5.41408 28.7089 5.05555 28.3016 4.97361L27.203 4.75466C27.1382 4.56239 27.0604 4.37475 26.9701 4.19304L27.6032 3.24912C27.8226 2.9034 27.7724 2.45168 27.4824 2.16261L26.8396 1.51979C26.5458 1.22728 26.0875 1.18032 25.7405 1.40718L24.8077 2.03066C24.626 1.94022 24.4383 1.86207 24.2461 1.79673L24.0277 0.702978C23.9473 0.293931 23.5881 -0.000622862 23.1712 0.000711523H22.2626C21.8471 -0.000754669 21.4886 0.291781 21.4066 0.699111L21.1877 1.7977C20.9954 1.863 20.8078 1.94132 20.6261 2.03211L19.6822 1.39896C19.3364 1.17994 18.8849 1.23015 18.5957 1.51979L18.1607 1.95478C18.0982 1.94175 18.0346 1.93479 17.9708 1.934H16.8301C16.3705 1.93367 15.9743 2.257 15.8823 2.70731ZM23.2713 4.60193L23.0456 4.37622C23.8833 4.48836 24.5496 5.13434 24.6877 5.9682C24.8257 6.80206 24.4032 7.62834 23.6463 8.00452L22.9126 7.85952C22.8208 7.57996 22.7077 7.30786 22.5743 7.04561L23.396 5.81845C23.648 5.43515 23.5959 4.92751 23.2713 4.60338V4.60193ZM19.2259 2.25492L20.3308 2.9973C20.4857 3.1012 20.6866 3.10666 20.847 3.01132C21.1236 2.84849 21.4212 2.7241 21.7314 2.64158C21.9087 2.59371 22.0435 2.44951 22.0794 2.26942L22.339 0.967355H23.0949L23.3544 2.27232C23.3903 2.45241 23.5251 2.5966 23.7024 2.64448C24.0126 2.727 24.3102 2.85139 24.5868 3.01422C24.7477 3.10869 24.9487 3.10211 25.103 2.9973L26.2079 2.25589L26.7444 2.79238L26.0034 3.89773C25.8995 4.05267 25.8941 4.25357 25.9894 4.41392C26.1523 4.69059 26.2766 4.98815 26.3592 5.2984C26.407 5.47567 26.5512 5.61051 26.7313 5.64639L28.0363 5.90593V6.66185L26.7337 6.92139C26.5536 6.95728 26.4095 7.09211 26.3616 7.26938C26.2791 7.57963 26.1547 7.87719 25.9918 8.15386C25.8965 8.31421 25.902 8.51511 26.0059 8.67005L26.7473 9.77492L26.2108 10.3114L25.1335 9.59078V9.09682C25.1335 8.81384 25.0099 8.54496 24.7952 8.36072C25.6461 7.54101 25.913 6.28625 25.4695 5.19113C25.026 4.09602 23.9612 3.3806 22.7797 3.38396C22.4875 3.3858 22.1974 3.43342 21.9199 3.52509C21.6838 3.49069 21.4432 3.54362 21.2433 3.67396L20.0229 4.49173C19.7607 4.35832 19.4886 4.24521 19.209 4.15341L18.919 2.70925C18.9105 2.67052 18.8993 2.63241 18.8857 2.59518L19.2259 2.25492ZM16.4821 4.62948L16.8301 2.90064H17.9708L18.3183 4.63093C18.3544 4.81052 18.4889 4.95425 18.6658 5.00212C19.0651 5.10977 19.4487 5.269 19.8069 5.47578C19.9665 5.56836 20.1649 5.56198 20.3182 5.45934L21.7807 4.4811L22.5908 5.2868L21.6096 6.75078C21.507 6.90412 21.5006 7.10252 21.5932 7.26213C21.8 7.62032 21.9592 8.00392 22.0668 8.40326C22.1147 8.58008 22.2584 8.71463 22.438 8.75076L24.1668 9.09634V10.2375L22.4366 10.585C22.257 10.6211 22.1133 10.7557 22.0654 10.9325C21.9577 11.3318 21.7985 11.7154 21.5917 12.0736C21.4992 12.2332 21.5055 12.4316 21.6082 12.585L22.5864 14.0475L21.7807 14.8575L20.3168 13.8764C20.1634 13.7737 19.965 13.7674 19.8054 13.86C19.4472 14.0667 19.0636 14.226 18.6643 14.3336C18.4875 14.3815 18.3529 14.5252 18.3168 14.7048L17.9708 16.4336H16.8301L16.4826 14.7034C16.4465 14.5238 16.3119 14.38 16.1351 14.3322C15.7358 14.2245 15.3522 14.0653 14.994 13.8585C14.8344 13.7659 14.636 13.7723 14.4827 13.8749L13.0202 14.8532L12.2101 14.0475L13.1913 12.5835C13.2939 12.4302 13.3003 12.2318 13.2077 12.0721C13.0009 11.714 12.8417 11.3304 12.734 10.931C12.6862 10.7542 12.5424 10.6197 12.3629 10.5835L10.634 10.2375V9.09682L12.3643 8.74931C12.5439 8.71318 12.6876 8.57863 12.7355 8.40181C12.8431 8.00247 13.0024 7.61887 13.2091 7.26068C13.3017 7.10107 13.2953 6.90267 13.1927 6.74933L12.2145 5.2868L13.0202 4.47675L14.4841 5.45789C14.6375 5.56053 14.8359 5.56691 14.9955 5.47433C15.3536 5.26755 15.7372 5.10833 16.1366 5.00067C16.3126 4.95217 16.4463 4.80856 16.4821 4.62948Z" fill="white"/>
<path d="M17.4004 13.0504C19.2689 13.0504 20.7836 11.5357 20.7836 9.66714C20.7836 7.79862 19.2689 6.28389 17.4004 6.28389C15.5319 6.28389 14.0172 7.79862 14.0172 9.66714C14.0194 11.5348 15.5328 13.0483 17.4004 13.0504ZM17.4004 7.25053C18.7351 7.25053 19.817 8.33249 19.817 9.66714C19.817 11.0018 18.7351 12.0837 17.4004 12.0837C16.0658 12.0837 14.9839 11.0018 14.9839 9.66714C14.9855 8.33315 16.0665 7.25213 17.4004 7.25053Z" fill="white"/>
<path d="M17.4004 10.1505C17.6674 10.1505 17.8838 9.93407 17.8838 9.66714C17.8838 9.40021 17.6674 9.18382 17.4004 9.18382C17.1335 9.18382 16.9171 9.40021 16.9171 9.66714C16.9171 9.93407 17.1335 10.1505 17.4004 10.1505Z" fill="white"/>
<path d="M4.35094 10.6338C4.61787 10.6338 4.83426 10.4174 4.83426 10.1505C4.83426 9.88353 4.61787 9.66714 4.35094 9.66714C4.08401 9.66714 3.86763 9.88353 3.86763 10.1505C3.86763 10.4174 4.08401 10.6338 4.35094 10.6338Z" fill="white"/>
</g>
</svg>
