<svg width="38" height="35" viewBox="0 0 38 35" fill="none" xmlns="http://www.w3.org/2000/svg">
<path id="Vector" d="M25.4947 3.49626C23.525 2.57334 21.3246 2.05647 19.0024 2.05647C16.6787 2.05647 14.4771 2.57398 12.5064 3.49791M25.32 30.9746C30.5831 28.5895 34.2413 23.3168 34.2413 17.1949C34.2413 15.7306 34.0313 14.3151 33.6409 12.9759M4.36335 12.9781C3.97329 14.3167 3.76352 15.7314 3.76352 17.1949C3.76352 22.6872 6.70791 27.4963 11.1141 30.1497M13.7677 8.24224C13.8068 7.95758 13.8282 7.66724 13.8282 7.37185C13.8282 3.8528 10.9565 1 7.41407 1C6.03948 1 4.76601 1.4298 3.72201 2.1611M1.97758 3.98988C1.35841 4.97008 1 6.1293 1 7.37185C1 10.8909 3.87174 13.7437 7.41414 13.7437C8.22606 13.7437 9.00191 13.5922 9.71684 13.3188M9.40812 8.67686C9.40812 9.7709 8.51537 10.6578 7.41407 10.6578C6.31278 10.6578 5.42002 9.7709 5.42002 8.67686M5.3536 5.83759V4.51696M9.47461 4.51696V5.83759M27.8754 13.1475C28.6988 13.5296 29.617 13.7437 30.5859 13.7437C34.1283 13.7437 37 10.8909 37 7.37185C37 3.8528 34.1283 1 30.5859 1C30.0831 1 29.5939 1.05764 29.1243 1.16629M26.8185 2.21485C25.2147 3.37307 24.1716 5.25128 24.1716 7.37185C24.1716 7.75107 24.2068 8.12186 24.2709 8.4828M28.5918 10.6577C28.5918 9.56366 29.4846 8.67679 30.5859 8.67679C31.6872 8.67679 32.5799 9.56366 32.5799 10.6577M28.5253 5.83759V4.51696M32.6463 4.51696V5.83759M25.3191 16.1844V17.2913M24.4505 23.7836H27.605M23.1255 15.4293L24.6819 13.883M17.9954 17.2198C17.5982 16.6257 16.9193 16.2315 16.1516 16.2315C15.579 16.2315 15.0572 16.4522 14.6633 16.8099C14.2199 17.2126 13.939 17.7893 13.939 18.4295V19.7323C13.939 20.9413 14.9347 21.9303 16.1516 21.9303H16.8403M16.9058 18.2636V20.0891M16.9058 19.1764H15.6964M13.2963 28.0057V29.8444H21.3084V28.2812C21.3084 27.7411 21.7491 27.3033 22.2928 27.3033H24.8323C26.3637 27.3033 27.605 26.0701 27.605 24.5489V21.4835C27.605 21.2564 27.7902 21.0723 28.0189 21.0723H28.6616C29.4822 21.0723 29.9852 20.1786 29.5555 19.4841L28.5667 17.8862C28.429 17.6636 28.3706 17.4029 28.3925 17.1426C28.4148 16.8777 28.4262 16.6098 28.4262 16.3392C28.4262 11.1811 24.3054 6.97919 19.1557 6.80505C13.7798 6.62336 9.26318 10.9184 9.22044 16.2618C9.19574 19.353 10.652 22.1062 12.9259 23.8664C13.162 24.0492 13.2963 24.3329 13.2963 24.6302V25.4872M25.0066 34H11.7383C11.3022 34 10.9487 33.6489 10.9487 33.2156V30.6288C10.9487 30.1956 11.3021 29.8443 11.7383 29.8443H23.1425C24.6081 29.8443 25.7962 31.0247 25.7962 32.4806V33.2155C25.7962 33.6488 25.4427 34 25.0066 34Z" stroke="white" stroke-miterlimit="10" stroke-linecap="round" stroke-linejoin="round"/>
</svg>
