<svg width="28" height="32" viewBox="0 0 28 32" fill="none" xmlns="http://www.w3.org/2000/svg">
<path id="Vector" d="M10.9599 20.1364V19.065C10.9599 18.9741 10.9733 18.8838 10.9995 18.7969L12.4853 13.8863C12.5855 13.5553 12.8856 13.3295 13.2255 13.3295C13.6532 13.3295 14 13.683 14 14.1189M14 14.1189V26.7445M14 14.1189C14 13.683 14.3468 13.3295 14.7745 13.3295C15.1144 13.3295 15.4145 13.5553 15.5147 13.8863L17.0005 18.7969C17.0267 18.8838 17.0401 18.9741 17.0401 19.065V20.1364M14 26.7445C14 27.2065 13.77 27.6369 13.3893 27.8876L8.66298 31M14 26.7445C14 27.2065 14.23 27.6369 14.6107 27.8876L19.337 31M14 14.119V7.49266M14 7.49266C14 6.90248 13.5306 6.424 12.9514 6.424C12.5111 6.424 12.1177 6.70441 11.9666 7.12593L10.6526 10.7918M14 7.49266C14 6.90254 14.4694 6.42403 15.0486 6.42403C15.4889 6.42403 15.8822 6.70438 16.0334 7.12596L20.337 19.1323C20.4931 19.5682 20.573 20.0285 20.573 20.4925V20.5889M9.99858 12.6165L7.66306 19.1323C7.50682 19.5681 7.42693 20.0285 7.42693 20.4925V24.7905C7.42693 25.3265 7.57812 25.8512 7.8625 26.302M7.42692 24.0144L1 26.302M20.1375 26.302C20.4219 25.8512 20.573 25.3266 20.573 24.7906V22.5196M20.5731 24.0144L27 26.302M20.351 13.8903L23.3667 10.6026C23.9197 9.99965 24.318 9.3095 24.5656 8.58112M24.8687 6.65036C24.8446 5.21425 24.2805 3.78769 23.1824 2.69656L23.1632 2.67741C20.9219 0.450522 17.2545 0.450522 15.0134 2.67741L14.3406 3.34594C14.1422 3.54304 13.8259 3.54328 13.6271 3.34666L12.9341 2.6608C10.693 0.443091 7.02945 0.446897 4.79278 2.66926C2.60455 4.84354 2.53526 8.34695 4.6359 10.605L7.66097 13.8567" stroke="white" stroke-miterlimit="10" stroke-linecap="round" stroke-linejoin="round"/>
</svg>
