<svg width="27" height="27" viewBox="0 0 27 27" fill="none" xmlns="http://www.w3.org/2000/svg">
<path d="M13 2.5C19.0753 2.5 24 7.4247 24 13.5C24 19.5753 19.0753 24.5 13 24.5C11.0561 24.5031 9.14633 23.9887 7.46701 23.0095L2.00442 24.5L3.49161 19.0352C2.51162 17.3554 1.99677 15.4448 2.00002 13.5C2.00002 7.4247 6.92471 2.5 13 2.5ZM9.25121 8.33L9.03121 8.3388C8.88878 8.34747 8.74959 8.38489 8.62201 8.4488C8.50268 8.51637 8.39376 8.60084 8.29861 8.6996C8.16661 8.8239 8.09181 8.9317 8.01151 9.0362C7.60465 9.56519 7.38558 10.2146 7.38891 10.882C7.39111 11.421 7.53191 11.9457 7.75191 12.4363C8.20181 13.4285 8.94211 14.479 9.91891 15.4525C10.1543 15.6868 10.3853 15.9222 10.6339 16.1411C11.8476 17.2097 13.294 17.9803 14.8579 18.3917L15.4827 18.4874C15.6862 18.4984 15.8897 18.483 16.0943 18.4731C16.4147 18.4566 16.7275 18.3698 17.0106 18.219C17.1547 18.1448 17.2952 18.064 17.4319 17.977C17.4319 17.977 17.4792 17.9462 17.5694 17.878C17.7179 17.768 17.8092 17.6899 17.9324 17.5612C18.0237 17.4666 18.1029 17.3555 18.1634 17.229C18.2492 17.0497 18.335 16.7076 18.3702 16.4227C18.3966 16.2049 18.3889 16.0861 18.3856 16.0124C18.3812 15.8947 18.2833 15.7726 18.1766 15.7209L17.5364 15.4338C17.5364 15.4338 16.5794 15.0169 15.9942 14.7507C15.933 14.724 15.8674 14.7087 15.8006 14.7056C15.7253 14.6979 15.6493 14.7063 15.5776 14.7304C15.5059 14.7545 15.4401 14.7937 15.3848 14.8453C15.3793 14.8431 15.3056 14.9058 14.5103 15.8694C14.4647 15.9307 14.4018 15.9771 14.3297 16.0026C14.2576 16.028 14.1796 16.0314 14.1055 16.0124C14.0338 15.9932 13.9636 15.9689 13.8954 15.9398C13.759 15.8826 13.7117 15.8606 13.6182 15.821C12.9869 15.5455 12.4024 15.1733 11.8857 14.7177C11.7471 14.5967 11.6184 14.4647 11.4864 14.3371C11.0537 13.9226 10.6765 13.4538 10.3644 12.9423L10.2995 12.8378C10.2529 12.7676 10.2152 12.6918 10.1873 12.6123C10.1455 12.4506 10.2544 12.3208 10.2544 12.3208C10.2544 12.3208 10.5217 12.0282 10.646 11.8698C10.767 11.7158 10.8693 11.5662 10.9353 11.4595C11.0651 11.2505 11.1058 11.036 11.0376 10.8699C10.7296 10.1175 10.4106 9.3684 10.0828 8.6248C10.0179 8.4774 9.82541 8.3718 9.65051 8.3509C9.59111 8.3443 9.53171 8.3377 9.47231 8.3333C9.32459 8.32596 9.17656 8.32743 9.02901 8.3377L9.25011 8.3289L9.25121 8.33Z" fill="black"/>
</svg>
